STARTFONT 2.1
COMMENT
COMMENT Glyphs are imported from the Baekmuk font and heavily modified
COMMENT   to make a new font named as a johab font.
COMMENT Hangul fonts are automatically generated from this johab(32x15x11) font.
COMMENT Symbol glyphs are made by Woo-Hyun Jang <louis@mail.mizi.com>
COMMENT   and retouched by Won-kyu Park <wkpark@kldp.org>
COMMENT Hanja glyphs are imported from K12.bdf(a japaness public domain font)
COMMENT   and missing glyphs are made by wkpark@kldp.org
COMMENT
COMMENT  Wed Oct  9 15:33:42 KST 2002
COMMENT
FONT -Baekmuk-Gulim-Medium-R-Normal--12-120-75-75-M-120-ksx1001.1998-0
SIZE 12 75 75
FONTBOUNDINGBOX 12 12 0 -2
STARTPROPERTIES 26
FOUNDRY "Baekmuk"
FAMILY_NAME "Gulim"
WEIGHT_NAME "Medium"
SLANT "R"
SETWIDTH_NAME "Normal"
ADD_STYLE_NAME ""
PIXEL_SIZE 12
POINT_SIZE 120
RESOLUTION_X 75
RESOLUTION_Y 75
SPACING "M"
AVERAGE_WIDTH 120
CHARSET_REGISTRY "ksx1001.1998"
CHARSET_ENCODING "0"
COPYRIGHT "made by Won-kyu Park <wkpark@kldp.org>. Share and enjoy"
NOTICE "Thanks to (c) Mizi Research, Inc."
NOTICE "Baekmuk Gulim is registerd trademark owned by Jeong-Hwan Kim"
NOTICE "Thanks for his donation of Baekmuk TrueType fonts"
NOTICE "See copyright notices about Baekmuk TrueType fonts"
FONT "-Baekmuk-Gulim-Medium-R-Normal--12-120-75-75-M-120-ksx1001.1998-0"
WEIGHT 10
X_HEIGHT 0
QUAD_WIDTH 12
DEFAULT_CHAR 8481
FONT_ASCENT 10
FONT_DESCENT 2
ENDPROPERTIES
CHARS    8226
STARTCHAR K+2121
ENCODING 8481
SWIDTH 960 0
DWIDTH 12 0
BBX 12 12 0 -2
BITMAP
0000
0000
0000
0000
0000
0000
0000
0000
0000
0000
0000
0000
ENDCHAR
STARTCHAR K+2122
ENCODING 8482
SWIDTH 960 0
DWIDTH 12 0
BBX 12 12 0 -2
BITMAP
0000
0000
0000
0000
0000
0000
0000
0000
0080
0070
0030
0000
ENDCHAR
STARTCHAR K+2123
ENCODING 8483
SWIDTH 960 0
DWIDTH 12 0
BBX 12 12 0 -2
BITMAP
0000
0000
0000
0000
0000
0000
0000
00c0
0120
0120
00c0
0000
ENDCHAR
STARTCHAR K+2124
ENCODING 8484
SWIDTH 960 0
DWIDTH 12 0
BBX 12 12 0 -2
BITMAP
0000
0000
0000
0000
0200
0000
0000
0000
0000
0000
0000
0000
ENDCHAR
STARTCHAR K+2125
ENCODING 8485
SWIDTH 960 0
DWIDTH 12 0
BBX 12 12 0 -2
BITMAP
0000
0000
0000
0000
1040
0000
0000
0000
0000
0000
0000
0000
ENDCHAR
STARTCHAR K+2126
ENCODING 8486
SWIDTH 960 0
DWIDTH 12 0
BBX 12 12 0 -2
BITMAP
0000
0000
0000
0000
2480
0000
0000
0000
0000
0000
0000
0000
ENDCHAR
STARTCHAR K+2127
ENCODING 8487
SWIDTH 960 0
DWIDTH 12 0
BBX 12 12 0 -2
BITMAP
1080
0000
0000
0000
0000
0000
0000
0000
0000
0000
0000
0000
ENDCHAR
STARTCHAR K+2128
ENCODING 8488
SWIDTH 960 0
DWIDTH 12 0
BBX 12 12 0 -2
BITMAP
0000
0000
0500
0500
0a00
0a00
0000
0000
0000
0000
0000
0000
ENDCHAR
STARTCHAR K+2129
ENCODING 8489
SWIDTH 960 0
DWIDTH 12 0
BBX 12 12 0 -2
BITMAP
0000
0000
0000
0000
0f80
0000
0000
0000
0000
0000
0000
0000
ENDCHAR
STARTCHAR K+212A
ENCODING 8490
SWIDTH 960 0
DWIDTH 12 0
BBX 12 12 0 -2
BITMAP
0000
0000
0000
0000
ffe0
0000
0000
0000
0000
0000
0000
0000
ENDCHAR
STARTCHAR K+212B
ENCODING 8491
SWIDTH 960 0
DWIDTH 12 0
BBX 12 12 0 -2
BITMAP
0900
0900
0900
0900
0900
0900
0900
0900
0900
0000
0000
0000
ENDCHAR
STARTCHAR K+212C
ENCODING 8492
SWIDTH 960 0
DWIDTH 12 0
BBX 12 12 0 -2
BITMAP
4000
2000
1000
0800
0400
0200
0100
0080
0040
0020
0000
0000
ENDCHAR
STARTCHAR K+212D
ENCODING 8493
SWIDTH 960 0
DWIDTH 12 0
BBX 12 12 0 -2
BITMAP
0000
0000
0000
0000
1c40
2380
0000
0000
0000
0000
0000
0000
ENDCHAR
STARTCHAR K+212E
ENCODING 8494
SWIDTH 960 0
DWIDTH 12 0
BBX 12 12 0 -2
BITMAP
0020
0040
0060
0000
0000
0000
0000
0000
0000
0000
0000
0000
ENDCHAR
STARTCHAR K+212F
ENCODING 8495
SWIDTH 960 0
DWIDTH 12 0
BBX 12 12 0 -2
BITMAP
6000
2000
4000
0000
0000
0000
0000
0000
0000
0000
0000
0000
ENDCHAR
STARTCHAR K+2130
ENCODING 8496
SWIDTH 960 0
DWIDTH 12 0
BBX 12 12 0 -2
BITMAP
0120
0240
0360
0000
0000
0000
0000
0000
0000
0000
0000
0000
ENDCHAR
STARTCHAR K+2131
ENCODING 8497
SWIDTH 960 0
DWIDTH 12 0
BBX 12 12 0 -2
BITMAP
6c00
2400
4800
0000
0000
0000
0000
0000
0000
0000
0000
0000
ENDCHAR
STARTCHAR K+2132
ENCODING 8498
SWIDTH 960 0
DWIDTH 12 0
BBX 12 12 0 -2
BITMAP
0030
0040
0040
0040
0040
0040
0040
0040
0040
0040
0030
0000
ENDCHAR
STARTCHAR K+2133
ENCODING 8499
SWIDTH 960 0
DWIDTH 12 0
BBX 12 12 0 -2
BITMAP
6000
1000
1000
1000
1000
1000
1000
1000
1000
1000
6000
0000
ENDCHAR
STARTCHAR K+2134
ENCODING 8500
SWIDTH 960 0
DWIDTH 12 0
BBX 12 12 0 -2
BITMAP
0020
0040
0080
0080
0100
0200
0100
0080
0080
0040
0020
0000
ENDCHAR
STARTCHAR K+2135
ENCODING 8501
SWIDTH 960 0
DWIDTH 12 0
BBX 12 12 0 -2
BITMAP
4000
2000
1000
1000
0800
0400
0800
1000
1000
2000
4000
0000
ENDCHAR
STARTCHAR K+2136
ENCODING 8502
SWIDTH 960 0
DWIDTH 12 0
BBX 12 12 0 -2
BITMAP
00a0
0140
0140
0280
0280
0500
0280
0280
0140
0140
00a0
0000
ENDCHAR
STARTCHAR K+2137
ENCODING 8503
SWIDTH 960 0
DWIDTH 12 0
BBX 12 12 0 -2
BITMAP
5000
2800
2800
1400
1400
0a00
1400
1400
2800
2800
5000
0000
ENDCHAR
STARTCHAR K+2138
ENCODING 8504
SWIDTH 960 0
DWIDTH 12 0
BBX 12 12 0 -2
BITMAP
00f0
0080
0080
0080
0080
0080
0000
0000
0000
0000
0000
0000
ENDCHAR
STARTCHAR K+2139
ENCODING 8505
SWIDTH 960 0
DWIDTH 12 0
BBX 12 12 0 -2
BITMAP
0000
0000
0000
0000
0800
0800
0800
0800
0800
7800
0000
0000
ENDCHAR
STARTCHAR K+213A
ENCODING 8506
SWIDTH 960 0
DWIDTH 12 0
BBX 12 12 0 -2
BITMAP
01f0
0110
0170
0140
0140
01c0
0000
0000
0000
0000
0000
0000
ENDCHAR
STARTCHAR K+213B
ENCODING 8507
SWIDTH 960 0
DWIDTH 12 0
BBX 12 12 0 -2
BITMAP
0000
0000
0000
0000
1c00
1400
1400
7400
4400
7c00
0000
0000
ENDCHAR
STARTCHAR K+213C
ENCODING 8508
SWIDTH 960 0
DWIDTH 12 0
BBX 12 12 0 -2
BITMAP
0070
0060
0060
0040
0040
0040
0040
0040
0060
0060
0070
0000
ENDCHAR
STARTCHAR K+213D
ENCODING 8509
SWIDTH 960 0
DWIDTH 12 0
BBX 12 12 0 -2
BITMAP
7000
3000
3000
1000
1000
1000
1000
1000
3000
3000
7000
0000
ENDCHAR
STARTCHAR K+213E
ENCODING 8510
SWIDTH 960 0
DWIDTH 12 0
BBX 12 12 0 -2
BITMAP
0200
0200
0200
1fc0
0200
0200
0200
0000
1fc0
0000
0000
0000
ENDCHAR
STARTCHAR K+213F
ENCODING 8511
SWIDTH 960 0
DWIDTH 12 0
BBX 12 12 0 -2
BITMAP
0000
0000
0880
0500
0200
0500
0880
0000
0000
0000
0000
0000
ENDCHAR
STARTCHAR K+2140
ENCODING 8512
SWIDTH 960 0
DWIDTH 12 0
BBX 12 12 0 -2
BITMAP
0000
0200
0200
0000
1fc0
0000
0200
0200
0000
0000
0000
0000
ENDCHAR
STARTCHAR K+2141
ENCODING 8513
SWIDTH 960 0
DWIDTH 12 0
BBX 12 12 0 -2
BITMAP
0000
0000
0800
0800
3fc0
0400
3fc0
0200
0200
0000
0000
0000
ENDCHAR
STARTCHAR K+2142
ENCODING 8514
SWIDTH 960 0
DWIDTH 12 0
BBX 12 12 0 -2
BITMAP
0000
0180
0600
1800
0600
0180
0000
1fc0
0000
0000
0000
0000
ENDCHAR
STARTCHAR K+2143
ENCODING 8515
SWIDTH 960 0
DWIDTH 12 0
BBX 12 12 0 -2
BITMAP
0000
1800
0600
0180
0600
1800
0000
3f80
0000
0000
0000
0000
ENDCHAR
STARTCHAR K+2144
ENCODING 8516
SWIDTH 960 0
DWIDTH 12 0
BBX 12 12 0 -2
BITMAP
0000
0000
0000
38e0
4510
4210
4510
38e0
0000
0000
0000
0000
ENDCHAR
STARTCHAR K+2145
ENCODING 8517
SWIDTH 960 0
DWIDTH 12 0
BBX 12 12 0 -2
BITMAP
0000
0200
0200
0000
0000
1040
1040
0000
0000
0000
0000
0000
ENDCHAR
STARTCHAR K+2146
ENCODING 8518
SWIDTH 960 0
DWIDTH 12 0
BBX 12 12 0 -2
BITMAP
3000
4800
4800
3000
0000
0000
0000
0000
0000
0000
0000
0000
ENDCHAR
STARTCHAR K+2147
ENCODING 8519
SWIDTH 960 0
DWIDTH 12 0
BBX 12 12 0 -2
BITMAP
3000
2000
4000
0000
0000
0000
0000
0000
0000
0000
0000
0000
ENDCHAR
STARTCHAR K+2148
ENCODING 8520
SWIDTH 960 0
DWIDTH 12 0
BBX 12 12 0 -2
BITMAP
3600
2400
4800
0000
0000
0000
0000
0000
0000
0000
0000
0000
ENDCHAR
STARTCHAR K+2149
ENCODING 8521
SWIDTH 960 0
DWIDTH 12 0
BBX 12 12 0 -2
BITMAP
2000
5380
2440
0800
0800
0800
0800
0440
0380
0000
0000
0000
ENDCHAR
STARTCHAR K+214A
ENCODING 8522
SWIDTH 960 0
DWIDTH 12 0
BBX 12 12 0 -2
BITMAP
0200
0500
0200
0200
0500
0500
0880
0f80
1040
1040
0000
0000
ENDCHAR
STARTCHAR K+214B
ENCODING 8523
SWIDTH 960 0
DWIDTH 12 0
BBX 12 12 0 -2
BITMAP
0080
0100
0f00
1280
1200
1400
1480
0f00
0800
1000
0000
0000
ENDCHAR
STARTCHAR K+214C
ENCODING 8524
SWIDTH 960 0
DWIDTH 12 0
BBX 12 12 0 -2
BITMAP
0f00
1080
1080
0800
3f80
0800
1800
2c40
1380
0000
0000
0000
ENDCHAR
STARTCHAR K+214D
ENCODING 8525
SWIDTH 960 0
DWIDTH 12 0
BBX 12 12 0 -2
BITMAP
1040
1040
0880
1fc0
0500
1fc0
0200
0200
0200
0200
0000
0000
ENDCHAR
STARTCHAR K+214E
ENCODING 8526
SWIDTH 960 0
DWIDTH 12 0
BBX 12 12 0 -2
BITMAP
0200
0700
0a80
1240
0200
0200
0200
0700
0880
0880
0700
0000
ENDCHAR
STARTCHAR K+214F
ENCODING 8527
SWIDTH 960 0
DWIDTH 12 0
BBX 12 12 0 -2
BITMAP
0700
0880
0880
0700
0200
0200
1fc0
0200
0200
0200
0200
0000
ENDCHAR
STARTCHAR K+2150
ENCODING 8528
SWIDTH 960 0
DWIDTH 12 0
BBX 12 12 0 -2
BITMAP
0000
0080
0100
0200
0400
0800
1000
2000
7fc0
0000
0000
0000
ENDCHAR
STARTCHAR K+2151
ENCODING 8529
SWIDTH 960 0
DWIDTH 12 0
BBX 12 12 0 -2
BITMAP
0000
0200
0200
0200
0200
0200
0200
0200
3fe0
0000
0000
0000
ENDCHAR
STARTCHAR K+2152
ENCODING 8530
SWIDTH 960 0
DWIDTH 12 0
BBX 12 12 0 -2
BITMAP
0000
0f00
1080
2040
0000
0000
0000
0000
0000
0000
0000
0000
ENDCHAR
STARTCHAR K+2153
ENCODING 8531
SWIDTH 960 0
DWIDTH 12 0
BBX 12 12 0 -2
BITMAP
0700
0880
1080
0780
0880
1100
1100
1200
0c00
0000
0000
0000
ENDCHAR
STARTCHAR K+2154
ENCODING 8532
SWIDTH 960 0
DWIDTH 12 0
BBX 12 12 0 -2
BITMAP
0000
0000
3fe0
1040
1040
0880
0880
0500
0500
0200
0000
0000
ENDCHAR
STARTCHAR K+2155
ENCODING 8533
SWIDTH 960 0
DWIDTH 12 0
BBX 12 12 0 -2
BITMAP
0000
0000
3fe0
0000
3fe0
0000
3fe0
0000
0000
0000
0000
0000
ENDCHAR
STARTCHAR K+2156
ENCODING 8534
SWIDTH 960 0
DWIDTH 12 0
BBX 12 12 0 -2
BITMAP
0000
1800
0000
0000
3fe0
0000
3fe0
0000
0000
00c0
0000
0000
ENDCHAR
STARTCHAR K+2157
ENCODING 8535
SWIDTH 960 0
DWIDTH 12 0
BBX 12 12 0 -2
BITMAP
0700
0880
0800
0700
0880
0880
0700
0080
0880
0700
0000
0000
ENDCHAR
STARTCHAR K+2158
ENCODING 8536
SWIDTH 960 0
DWIDTH 12 0
BBX 12 12 0 -2
BITMAP
2020
1240
0880
0500
1240
0500
0880
1240
2020
0000
0000
0000
ENDCHAR
STARTCHAR K+2159
ENCODING 8537
SWIDTH 960 0
DWIDTH 12 0
BBX 12 12 0 -2
BITMAP
0200
0200
0500
0880
78f0
2020
1040
1240
1540
18c0
3060
0000
ENDCHAR
STARTCHAR K+215A
ENCODING 8538
SWIDTH 960 0
DWIDTH 12 0
BBX 12 12 0 -2
BITMAP
0200
0200
0700
0700
7ff0
3fe0
1fc0
1fc0
1dc0
18c0
3060
0000
ENDCHAR
STARTCHAR K+215B
ENCODING 8539
SWIDTH 960 0
DWIDTH 12 0
BBX 12 12 0 -2
BITMAP
0780
0840
1020
2010
2010
2010
2010
1020
0840
0780
0000
0000
ENDCHAR
STARTCHAR K+215C
ENCODING 8540
SWIDTH 960 0
DWIDTH 12 0
BBX 12 12 0 -2
BITMAP
0780
0fc0
1fe0
3ff0
3ff0
3ff0
3ff0
1fe0
0fc0
0780
0000
0000
ENDCHAR
STARTCHAR K+215D
ENCODING 8541
SWIDTH 960 0
DWIDTH 12 0
BBX 12 12 0 -2
BITMAP
0780
0840
1320
2490
2850
2850
2490
1320
0840
0780
0000
0000
ENDCHAR
STARTCHAR K+215E
ENCODING 8542
SWIDTH 960 0
DWIDTH 12 0
BBX 12 12 0 -2
BITMAP
0200
0500
0880
1040
2020
4010
2020
1040
0880
0500
0200
0000
ENDCHAR
STARTCHAR K+215F
ENCODING 8543
SWIDTH 960 0
DWIDTH 12 0
BBX 12 12 0 -2
BITMAP
0200
0700
0f80
1fc0
3fe0
7ff0
3fe0
1fc0
0f80
0700
0200
0000
ENDCHAR
STARTCHAR K+2160
ENCODING 8544
SWIDTH 960 0
DWIDTH 12 0
BBX 12 12 0 -2
BITMAP
7fe0
4020
4020
4020
4020
4020
4020
4020
4020
7fe0
0000
0000
ENDCHAR
STARTCHAR K+2161
ENCODING 8545
SWIDTH 960 0
DWIDTH 12 0
BBX 12 12 0 -2
BITMAP
7fe0
7fe0
7fe0
7fe0
7fe0
7fe0
7fe0
7fe0
7fe0
7fe0
0000
0000
ENDCHAR
STARTCHAR K+2162
ENCODING 8546
SWIDTH 960 0
DWIDTH 12 0
BBX 12 12 0 -2
BITMAP
0200
0200
0500
0500
0880
0880
1040
1040
2020
3fe0
0000
0000
ENDCHAR
STARTCHAR K+2163
ENCODING 8547
SWIDTH 960 0
DWIDTH 12 0
BBX 12 12 0 -2
BITMAP
0200
0200
0700
0700
0f80
0f80
1fc0
1fc0
3fe0
3fe0
0000
0000
ENDCHAR
STARTCHAR K+2164
ENCODING 8548
SWIDTH 960 0
DWIDTH 12 0
BBX 12 12 0 -2
BITMAP
3fe0
2020
1040
1040
0880
0880
0500
0500
0200
0200
0000
0000
ENDCHAR
STARTCHAR K+2165
ENCODING 8549
SWIDTH 960 0
DWIDTH 12 0
BBX 12 12 0 -2
BITMAP
3fe0
3fe0
1fc0
1fc0
0f80
0f80
0700
0700
0200
0200
0000
0000
ENDCHAR
STARTCHAR K+2166
ENCODING 8550
SWIDTH 960 0
DWIDTH 12 0
BBX 12 12 0 -2
BITMAP
0000
0000
0080
0040
7fe0
0040
0080
0000
0000
0000
0000
0000
ENDCHAR
STARTCHAR K+2167
ENCODING 8551
SWIDTH 960 0
DWIDTH 12 0
BBX 12 12 0 -2
BITMAP
0000
0000
1000
2000
7fe0
2000
1000
0000
0000
0000
0000
0000
ENDCHAR
STARTCHAR K+2168
ENCODING 8552
SWIDTH 960 0
DWIDTH 12 0
BBX 12 12 0 -2
BITMAP
0200
0700
0a80
0200
0200
0200
0200
0200
0200
0200
0000
0000
ENDCHAR
STARTCHAR K+2169
ENCODING 8553
SWIDTH 960 0
DWIDTH 12 0
BBX 12 12 0 -2
BITMAP
0200
0200
0200
0200
0200
0200
0200
0a80
0700
0200
0000
0000
ENDCHAR
STARTCHAR K+216A
ENCODING 8554
SWIDTH 960 0
DWIDTH 12 0
BBX 12 12 0 -2
BITMAP
0000
0000
1040
2020
7ff0
2020
1040
0000
0000
0000
0000
0000
ENDCHAR
STARTCHAR K+216B
ENCODING 8555
SWIDTH 960 0
DWIDTH 12 0
BBX 12 12 0 -2
BITMAP
0000
0000
0000
ffe0
0000
0000
ffe0
0000
0000
0000
0000
0000
ENDCHAR
STARTCHAR K+216C
ENCODING 8556
SWIDTH 960 0
DWIDTH 12 0
BBX 12 12 0 -2
BITMAP
0000
00c0
0320
0cc0
3300
0cc0
0320
00c0
0000
0000
0000
0000
ENDCHAR
STARTCHAR K+216D
ENCODING 8557
SWIDTH 960 0
DWIDTH 12 0
BBX 12 12 0 -2
BITMAP
0000
1800
6600
1980
0660
1980
6600
1800
0000
0000
0000
0000
ENDCHAR
STARTCHAR K+216E
ENCODING 8558
SWIDTH 960 0
DWIDTH 12 0
BBX 12 12 0 -2
BITMAP
03e0
0200
0200
0200
0400
1400
3400
5400
0800
0800
0800
0000
ENDCHAR
STARTCHAR K+216F
ENCODING 8559
SWIDTH 960 0
DWIDTH 12 0
BBX 12 12 0 -2
BITMAP
0000
0000
18c0
2120
2220
2420
18c0
0000
0000
0000
0000
0000
ENDCHAR
STARTCHAR K+2170
ENCODING 8560
SWIDTH 960 0
DWIDTH 12 0
BBX 12 12 0 -2
BITMAP
0000
0000
18e0
2500
2200
2500
18e0
0000
0000
0000
0000
0000
ENDCHAR
STARTCHAR K+2171
ENCODING 8561
SWIDTH 960 0
DWIDTH 12 0
BBX 12 12 0 -2
BITMAP
0000
0000
1040
1040
0000
0000
0200
0200
0000
0000
0000
0000
ENDCHAR
STARTCHAR K+2172
ENCODING 8562
SWIDTH 960 0
DWIDTH 12 0
BBX 12 12 0 -2
BITMAP
0100
0280
0200
0200
0200
0200
0200
0200
0200
0a00
0400
0000
ENDCHAR
STARTCHAR K+2173
ENCODING 8563
SWIDTH 960 0
DWIDTH 12 0
BBX 12 12 0 -2
BITMAP
0480
0b40
0900
0900
0900
0900
0900
0900
0900
2d00
1200
0000
ENDCHAR
STARTCHAR K+2174
ENCODING 8564
SWIDTH 960 0
DWIDTH 12 0
BBX 12 12 0 -2
BITMAP
0000
0fc0
1000
2000
3fc0
2000
1000
0fc0
0000
0000
0000
0000
ENDCHAR
STARTCHAR K+2175
ENCODING 8565
SWIDTH 960 0
DWIDTH 12 0
BBX 12 12 0 -2
BITMAP
0000
3f00
0080
0040
3fc0
0040
0080
3f00
0000
0000
0000
0000
ENDCHAR
STARTCHAR K+2176
ENCODING 8566
SWIDTH 960 0
DWIDTH 12 0
BBX 12 12 0 -2
BITMAP
0fc0
1000
2000
2000
1000
0fc0
0000
0000
3fc0
0000
0000
0000
ENDCHAR
STARTCHAR K+2177
ENCODING 8567
SWIDTH 960 0
DWIDTH 12 0
BBX 12 12 0 -2
BITMAP
3f00
0080
0040
0040
0080
3f00
0000
0000
3fc0
0000
0000
0000
ENDCHAR
STARTCHAR K+2178
ENCODING 8568
SWIDTH 960 0
DWIDTH 12 0
BBX 12 12 0 -2
BITMAP
0000
0fc0
1000
2000
2000
2000
1000
0fc0
0000
0000
0000
0000
ENDCHAR
STARTCHAR K+2179
ENCODING 8569
SWIDTH 960 0
DWIDTH 12 0
BBX 12 12 0 -2
BITMAP
0000
3f00
0080
0040
0040
0040
0080
3f00
0000
0000
0000
0000
ENDCHAR
STARTCHAR K+217A
ENCODING 8570
SWIDTH 960 0
DWIDTH 12 0
BBX 12 12 0 -2
BITMAP
0000
1040
1040
1040
1040
1040
1040
0880
0700
0000
0000
0000
ENDCHAR
STARTCHAR K+217B
ENCODING 8571
SWIDTH 960 0
DWIDTH 12 0
BBX 12 12 0 -2
BITMAP
0000
0700
0880
1040
1040
1040
1040
1040
1040
0000
0000
0000
ENDCHAR
STARTCHAR K+217C
ENCODING 8572
SWIDTH 960 0
DWIDTH 12 0
BBX 12 12 0 -2
BITMAP
0000
0200
0200
0500
0500
0880
0880
1040
1040
0000
0000
0000
ENDCHAR
STARTCHAR K+217D
ENCODING 8573
SWIDTH 960 0
DWIDTH 12 0
BBX 12 12 0 -2
BITMAP
0000
1040
1040
0880
0880
0500
0500
0200
0200
0000
0000
0000
ENDCHAR
STARTCHAR K+217E
ENCODING 8574
SWIDTH 960 0
DWIDTH 12 0
BBX 12 12 0 -2
BITMAP
3fe0
0020
0020
0020
0000
0000
0000
0000
0000
0000
0000
0000
ENDCHAR
STARTCHAR K+2221
ENCODING 8737
SWIDTH 960 0
DWIDTH 12 0
BBX 12 12 0 -2
BITMAP
0000
0000
0080
0040
7fe0
0000
7fe0
0040
0080
0000
0000
0000
ENDCHAR
STARTCHAR K+2222
ENCODING 8738
SWIDTH 960 0
DWIDTH 12 0
BBX 12 12 0 -2
BITMAP
0000
0000
0880
1040
3fe0
4010
3fe0
1040
0880
0000
0000
0000
ENDCHAR
STARTCHAR K+2223
ENCODING 8739
SWIDTH 960 0
DWIDTH 12 0
BBX 12 12 0 -2
BITMAP
2020
2020
1040
1fc0
0880
0880
0500
0500
0200
0200
0000
0000
ENDCHAR
STARTCHAR K+2224
ENCODING 8740
SWIDTH 960 0
DWIDTH 12 0
BBX 12 12 0 -2
BITMAP
3fc0
0040
0040
0040
3fc0
0040
0040
0040
3fc0
0000
0000
0000
ENDCHAR
STARTCHAR K+2225
ENCODING 8741
SWIDTH 960 0
DWIDTH 12 0
BBX 12 12 0 -2
BITMAP
0600
0400
0800
0000
0000
0000
0000
0000
0000
0000
0000
0000
ENDCHAR
STARTCHAR K+2226
ENCODING 8742
SWIDTH 960 0
DWIDTH 12 0
BBX 12 12 0 -2
BITMAP
0c40
1380
0000
0000
0000
0000
0000
0000
0000
0000
0000
0000
ENDCHAR
STARTCHAR K+2227
ENCODING 8743
SWIDTH 960 0
DWIDTH 12 0
BBX 12 12 0 -2
BITMAP
1100
0a00
0400
0000
0000
0000
0000
0000
0000
0000
0000
0000
ENDCHAR
STARTCHAR K+2228
ENCODING 8744
SWIDTH 960 0
DWIDTH 12 0
BBX 12 12 0 -2
BITMAP
1100
1100
0e00
0000
0000
0000
0000
0000
0000
0000
0000
0000
ENDCHAR
STARTCHAR K+2229
ENCODING 8745
SWIDTH 960 0
DWIDTH 12 0
BBX 12 12 0 -2
BITMAP
0d80
0900
1200
0000
0000
0000
0000
0000
0000
0000
0000
0000
ENDCHAR
STARTCHAR K+222A
ENCODING 8746
SWIDTH 960 0
DWIDTH 12 0
BBX 12 12 0 -2
BITMAP
0600
0900
0900
0600
0000
0000
0000
0000
0000
0000
0000
0000
ENDCHAR
STARTCHAR K+222B
ENCODING 8747
SWIDTH 960 0
DWIDTH 12 0
BBX 12 12 0 -2
BITMAP
0600
0600
0000
0000
0000
0000
0000
0000
0000
0000
0000
0000
ENDCHAR
STARTCHAR K+222C
ENCODING 8748
SWIDTH 960 0
DWIDTH 12 0
BBX 12 12 0 -2
BITMAP
0000
0000
0000
0000
0000
0000
0400
0600
0100
0e00
0000
0000
ENDCHAR
STARTCHAR K+222D
ENCODING 8749
SWIDTH 960 0
DWIDTH 12 0
BBX 12 12 0 -2
BITMAP
0000
0000
0000
0000
0000
0000
0200
0400
0500
0200
0000
0000
ENDCHAR
STARTCHAR K+222E
ENCODING 8750
SWIDTH 960 0
DWIDTH 12 0
BBX 12 12 0 -2
BITMAP
0200
0200
0000
0200
0200
0200
0200
0200
0200
0200
0000
0000
ENDCHAR
STARTCHAR K+222F
ENCODING 8751
SWIDTH 960 0
DWIDTH 12 0
BBX 12 12 0 -2
BITMAP
0200
0200
0000
0200
0200
0400
0880
0880
0500
0200
0000
0000
ENDCHAR
STARTCHAR K+2230
ENCODING 8752
SWIDTH 960 0
DWIDTH 12 0
BBX 12 12 0 -2
BITMAP
0000
0700
0200
0000
0000
0000
0000
0200
0700
0000
0000
0000
ENDCHAR
STARTCHAR K+2231
ENCODING 8753
SWIDTH 960 0
DWIDTH 12 0
BBX 12 12 0 -2
BITMAP
0100
0280
0200
0200
0700
0a80
0700
0200
0200
0a00
0400
0000
ENDCHAR
STARTCHAR K+2232
ENCODING 8754
SWIDTH 960 0
DWIDTH 12 0
BBX 12 12 0 -2
BITMAP
3fc0
1000
0800
0400
0200
0400
0800
1000
3fc0
0000
0000
0000
ENDCHAR
STARTCHAR K+2233
ENCODING 8755
SWIDTH 960 0
DWIDTH 12 0
BBX 12 12 0 -2
BITMAP
7fe0
1080
1080
1080
1080
1080
1080
1080
1080
1080
0000
0000
ENDCHAR
STARTCHAR K+2234
ENCODING 8756
SWIDTH 960 0
DWIDTH 12 0
BBX 12 12 0 -2
BITMAP
4020
2640
1980
1080
2040
2040
1080
1980
2640
4020
0000
0000
ENDCHAR
STARTCHAR K+2235
ENCODING 8757
SWIDTH 960 0
DWIDTH 12 0
BBX 12 12 0 -2
BITMAP
27e0
5400
5400
2400
07c0
0400
0400
0400
0400
0400
0000
0000
ENDCHAR
STARTCHAR K+2236
ENCODING 8758
SWIDTH 960 0
DWIDTH 12 0
BBX 12 12 0 -2
BITMAP
2080
5100
5200
2400
0800
1000
2440
4aa0
0aa0
0440
0000
0000
ENDCHAR
STARTCHAR K+2237
ENCODING 8759
SWIDTH 960 0
DWIDTH 12 0
BBX 12 12 0 -2
BITMAP
0020
00e0
0320
0c20
3020
4020
3020
0c20
0320
00e0
0020
0000
ENDCHAR
STARTCHAR K+2238
ENCODING 8760
SWIDTH 960 0
DWIDTH 12 0
BBX 12 12 0 -2
BITMAP
0020
00e0
03e0
0fe0
3fe0
7fe0
3fe0
0fe0
03e0
00e0
0020
0000
ENDCHAR
STARTCHAR K+2239
ENCODING 8761
SWIDTH 960 0
DWIDTH 12 0
BBX 12 12 0 -2
BITMAP
4000
7000
4c00
4300
40c0
4020
40c0
4300
4c00
7000
4000
0000
ENDCHAR
STARTCHAR K+223A
ENCODING 8762
SWIDTH 960 0
DWIDTH 12 0
BBX 12 12 0 -2
BITMAP
4000
7000
7c00
7f00
7fc0
7fe0
7fc0
7f00
7c00
7000
4000
0000
ENDCHAR
STARTCHAR K+223B
ENCODING 8763
SWIDTH 960 0
DWIDTH 12 0
BBX 12 12 0 -2
BITMAP
0200
0500
0880
1040
2020
4010
4210
2720
1ac0
0200
0700
0000
ENDCHAR
STARTCHAR K+223C
ENCODING 8764
SWIDTH 960 0
DWIDTH 12 0
BBX 12 12 0 -2
BITMAP
0200
0700
0f80
1fc0
3fe0
7ff0
7ff0
3fe0
1ac0
0200
0700
0000
ENDCHAR
STARTCHAR K+223D
ENCODING 8765
SWIDTH 960 0
DWIDTH 12 0
BBX 12 12 0 -2
BITMAP
18c0
2520
4210
4010
4010
2020
2020
1040
0880
0500
0200
0000
ENDCHAR
STARTCHAR K+223E
ENCODING 8766
SWIDTH 960 0
DWIDTH 12 0
BBX 12 12 0 -2
BITMAP
18c0
3de0
7ff0
7ff0
7ff0
3ff0
3fe0
1fc0
0f80
0700
0200
0000
ENDCHAR
STARTCHAR K+223F
ENCODING 8767
SWIDTH 960 0
DWIDTH 12 0
BBX 12 12 0 -2
BITMAP
0700
0880
0880
0880
3560
4d90
4010
4510
3ae0
0200
0700
0000
ENDCHAR
STARTCHAR K+2240
ENCODING 8768
SWIDTH 960 0
DWIDTH 12 0
BBX 12 12 0 -2
BITMAP
0700
0f80
0f80
0f80
3760
7ff0
7ff0
7ff0
3ae0
0200
0700
0000
ENDCHAR
STARTCHAR K+2241
ENCODING 8769
SWIDTH 960 0
DWIDTH 12 0
BBX 12 12 0 -2
BITMAP
0780
0840
1020
2010
2310
2310
2010
1020
0840
0780
0000
0000
ENDCHAR
STARTCHAR K+2242
ENCODING 8770
SWIDTH 960 0
DWIDTH 12 0
BBX 12 12 0 -2
BITMAP
0200
0500
0a80
1740
2fa0
5fd0
2fa0
1740
0a80
0500
0200
0000
ENDCHAR
STARTCHAR K+2243
ENCODING 8771
SWIDTH 960 0
DWIDTH 12 0
BBX 12 12 0 -2
BITMAP
7fe0
4020
4020
4f20
4f20
4f20
4f20
4020
4020
7fe0
0000
0000
ENDCHAR
STARTCHAR K+2244
ENCODING 8772
SWIDTH 960 0
DWIDTH 12 0
BBX 12 12 0 -2
BITMAP
0f00
1c80
3c40
7c20
7c20
7c20
7c20
3c40
1c80
0f00
0000
0000
ENDCHAR
STARTCHAR K+2245
ENCODING 8773
SWIDTH 960 0
DWIDTH 12 0
BBX 12 12 0 -2
BITMAP
0f00
1380
23c0
43e0
43e0
43e0
43e0
23c0
1380
0f00
0000
0000
ENDCHAR
STARTCHAR K+2246
ENCODING 8774
SWIDTH 960 0
DWIDTH 12 0
BBX 12 12 0 -2
BITMAP
7fe0
4920
4020
5260
4020
44a0
4020
5260
4020
7fe0
0000
0000
ENDCHAR
STARTCHAR K+2247
ENCODING 8775
SWIDTH 960 0
DWIDTH 12 0
BBX 12 12 0 -2
BITMAP
7fe0
4020
4020
7fe0
4020
4020
7fe0
4020
4020
7fe0
0000
0000
ENDCHAR
STARTCHAR K+2248
ENCODING 8776
SWIDTH 960 0
DWIDTH 12 0
BBX 12 12 0 -2
BITMAP
7fe0
4920
4920
4920
4920
4920
4920
4920
4920
7fe0
0000
0000
ENDCHAR
STARTCHAR K+2249
ENCODING 8777
SWIDTH 960 0
DWIDTH 12 0
BBX 12 12 0 -2
BITMAP
7fe0
4460
48a0
5120
6220
4460
48a0
5120
6220
7fe0
0000
0000
ENDCHAR
STARTCHAR K+224A
ENCODING 8778
SWIDTH 960 0
DWIDTH 12 0
BBX 12 12 0 -2
BITMAP
7fe0
6220
5120
48a0
4460
6220
5120
48a0
4460
7fe0
0000
0000
ENDCHAR
STARTCHAR K+224B
ENCODING 8779
SWIDTH 960 0
DWIDTH 12 0
BBX 12 12 0 -2
BITMAP
7fe0
4920
4920
7fe0
4920
4920
7fe0
4920
4920
7fe0
0000
0000
ENDCHAR
STARTCHAR K+224C
ENCODING 8780
SWIDTH 960 0
DWIDTH 12 0
BBX 12 12 0 -2
BITMAP
7fe0
5560
48a0
5560
6220
5560
48a0
5560
6220
7fe0
0000
0000
ENDCHAR
STARTCHAR K+224D
ENCODING 8781
SWIDTH 960 0
DWIDTH 12 0
BBX 12 12 0 -2
BITMAP
0a80
1500
1500
1500
0a80
2aa0
5510
4010
7060
3fe0
0f80
0000
ENDCHAR
STARTCHAR K+224E
ENCODING 8782
SWIDTH 960 0
DWIDTH 12 0
BBX 12 12 0 -2
BITMAP
1fc0
2020
4710
4890
7770
18c0
28a0
2720
2020
3fe0
0000
0000
ENDCHAR
STARTCHAR K+224F
ENCODING 8783
SWIDTH 960 0
DWIDTH 12 0
BBX 12 12 0 -2
BITMAP
1fc0
3fe0
78f0
7ff0
7770
18c0
1040
3060
38e0
3fe0
0000
0000
ENDCHAR
STARTCHAR K+2250
ENCODING 8784
SWIDTH 960 0
DWIDTH 12 0
BBX 12 12 0 -2
BITMAP
7f90
8070
7c30
2030
1c30
1030
0c30
0850
0780
0000
0000
0000
ENDCHAR
STARTCHAR K+2251
ENCODING 8785
SWIDTH 960 0
DWIDTH 12 0
BBX 12 12 0 -2
BITMAP
9fe0
e010
c3e0
c040
c380
c080
c300
a100
1e00
0000
0000
0000
ENDCHAR
STARTCHAR K+2252
ENCODING 8786
SWIDTH 960 0
DWIDTH 12 0
BBX 12 12 0 -2
BITMAP
1c80
3c80
7c80
7c80
3c80
1c80
0480
0480
0480
0480
0480
0000
ENDCHAR
STARTCHAR K+2253
ENCODING 8787
SWIDTH 960 0
DWIDTH 12 0
BBX 12 12 0 -2
BITMAP
0200
0200
0200
3fe0
0200
0200
0200
0200
0200
0200
0200
0000
ENDCHAR
STARTCHAR K+2254
ENCODING 8788
SWIDTH 960 0
DWIDTH 12 0
BBX 12 12 0 -2
BITMAP
0200
0200
3fe0
0200
0200
1fc0
0200
0200
0200
0200
0200
0000
ENDCHAR
STARTCHAR K+2255
ENCODING 8789
SWIDTH 960 0
DWIDTH 12 0
BBX 12 12 0 -2
BITMAP
0200
0700
0a80
0200
0200
0200
0200
0200
0a80
0700
0200
0000
ENDCHAR
STARTCHAR K+2256
ENCODING 8790
SWIDTH 960 0
DWIDTH 12 0
BBX 12 12 0 -2
BITMAP
03e0
0060
00a0
0120
0220
0400
0800
1000
2000
0000
0000
0000
ENDCHAR
STARTCHAR K+2257
ENCODING 8791
SWIDTH 960 0
DWIDTH 12 0
BBX 12 12 0 -2
BITMAP
0020
0040
0080
0100
2200
2400
2800
3000
3c00
0000
0000
0000
ENDCHAR
STARTCHAR K+2258
ENCODING 8792
SWIDTH 960 0
DWIDTH 12 0
BBX 12 12 0 -2
BITMAP
0000
3e00
3000
2800
2400
2200
0100
0080
0040
0020
0000
0000
ENDCHAR
STARTCHAR K+2259
ENCODING 8793
SWIDTH 960 0
DWIDTH 12 0
BBX 12 12 0 -2
BITMAP
0000
2000
1000
0800
0400
0220
0120
00a0
0060
03e0
0000
0000
ENDCHAR
STARTCHAR K+225A
ENCODING 8794
SWIDTH 960 0
DWIDTH 12 0
BBX 12 12 0 -2
BITMAP
0800
0800
0800
0800
0b00
0c80
0880
0880
0900
0a00
0c00
0000
ENDCHAR
STARTCHAR K+225B
ENCODING 8795
SWIDTH 960 0
DWIDTH 12 0
BBX 12 12 0 -2
BITMAP
0200
0200
0200
0200
0200
0200
0200
0200
0600
0e00
0c00
0000
ENDCHAR
STARTCHAR K+225C
ENCODING 8796
SWIDTH 960 0
DWIDTH 12 0
BBX 12 12 0 -2
BITMAP
0200
0300
0280
0240
0220
0220
0240
0280
0600
0e00
0c00
0000
ENDCHAR
STARTCHAR K+225D
ENCODING 8797
SWIDTH 960 0
DWIDTH 12 0
BBX 12 12 0 -2
BITMAP
01c0
0640
1840
11c0
1640
1840
1040
10c0
31c0
7180
6000
0000
ENDCHAR
STARTCHAR K+225E
ENCODING 8798
SWIDTH 960 0
DWIDTH 12 0
BBX 12 12 0 -2
BITMAP
0f80
1040
2020
4490
4500
7670
0510
4490
2020
1040
0f80
0000
ENDCHAR
STARTCHAR K+225F
ENCODING 8799
SWIDTH 960 0
DWIDTH 12 0
BBX 12 12 0 -2
BITMAP
1040
2020
2fa0
4510
4890
4010
5fd0
4210
2220
2220
1040
0000
ENDCHAR
STARTCHAR K+2260
ENCODING 8800
SWIDTH 960 0
DWIDTH 12 0
BBX 12 12 0 -2
BITMAP
4800
4800
6800
6980
5a40
5a40
4980
4800
4bc0
0000
0000
0000
ENDCHAR
STARTCHAR K+2261
ENCODING 8801
SWIDTH 960 0
DWIDTH 12 0
BBX 12 12 0 -2
BITMAP
3000
4800
4800
4180
4240
4240
4a40
4a40
31a0
0000
0000
0000
ENDCHAR
STARTCHAR K+2262
ENCODING 8802
SWIDTH 960 0
DWIDTH 12 0
BBX 12 12 0 -2
BITMAP
7d10
11b0
11b0
1150
1150
1110
0000
0000
0000
0000
0000
0000
ENDCHAR
STARTCHAR K+2263
ENCODING 8803
SWIDTH 960 0
DWIDTH 12 0
BBX 12 12 0 -2
BITMAP
0000
0000
0000
3340
4aa0
3aa0
4aa0
4aa0
3410
0000
0000
0000
ENDCHAR
STARTCHAR K+2264
ENCODING 8804
SWIDTH 960 0
DWIDTH 12 0
BBX 12 12 0 -2
BITMAP
0000
0000
0000
7340
4aa0
4aa0
4aa0
72a0
4410
4000
0000
0000
ENDCHAR
STARTCHAR K+2265
ENCODING 8805
SWIDTH 960 0
DWIDTH 12 0
BBX 12 12 0 -2
BITMAP
7c20
1020
1020
1320
14a0
17a0
1420
13a0
0000
0000
0000
0000
ENDCHAR
STARTCHAR K+2266
ENCODING 8806
SWIDTH 960 0
DWIDTH 12 0
BBX 12 12 0 -2
BITMAP
0000
1E00
2100
4000
FC00
4000
FC00
4000
2100
1E00
0000
0000
ENDCHAR
STARTCHAR K+2267
ENCODING 8807
SWIDTH 960 0
DWIDTH 12 0
BBX 12 12 0 -2
BITMAP
0000
1E00
2100
5C80
5280
5280
5C80
5280
5280
2100
1E00
0000
ENDCHAR
STARTCHAR K+2321
ENCODING 8993
SWIDTH 960 0
DWIDTH 12 0
BBX 12 12 0 -2
BITMAP
0200
0200
0200
0200
0200
0200
0000
0200
0200
0000
0000
0000
ENDCHAR
STARTCHAR K+2322
ENCODING 8994
SWIDTH 960 0
DWIDTH 12 0
BBX 12 12 0 -2
BITMAP
0500
0500
0500
0000
0000
0000
0000
0000
0000
0000
0000
0000
ENDCHAR
STARTCHAR K+2323
ENCODING 8995
SWIDTH 960 0
DWIDTH 12 0
BBX 12 12 0 -2
BITMAP
0480
0480
1fc0
0480
0900
0900
3f80
1200
1200
0000
0000
0000
ENDCHAR
STARTCHAR K+2324
ENCODING 8996
SWIDTH 960 0
DWIDTH 12 0
BBX 12 12 0 -2
BITMAP
0200
0700
0a80
0a00
0700
0280
0280
0a80
0700
0200
0000
0000
ENDCHAR
STARTCHAR K+2325
ENCODING 8997
SWIDTH 960 0
DWIDTH 12 0
BBX 12 12 0 -2
BITMAP
3000
4840
4880
4900
3200
04c0
0920
1120
2120
00c0
0000
0000
ENDCHAR
STARTCHAR K+2326
ENCODING 8998
SWIDTH 960 0
DWIDTH 12 0
BBX 12 12 0 -2
BITMAP
0c00
1200
1200
0a00
0480
0a80
1100
1100
0ec0
0000
0000
0000
ENDCHAR
STARTCHAR K+2327
ENCODING 8999
SWIDTH 960 0
DWIDTH 12 0
BBX 12 12 0 -2
BITMAP
0200
0200
0200
0000
0000
0000
0000
0000
0000
0000
0000
0000
ENDCHAR
STARTCHAR K+2328
ENCODING 9000
SWIDTH 960 0
DWIDTH 12 0
BBX 12 12 0 -2
BITMAP
0020
0040
0040
0080
0080
0080
0080
0040
0040
0020
0000
0000
ENDCHAR
STARTCHAR K+2329
ENCODING 9001
SWIDTH 960 0
DWIDTH 12 0
BBX 12 12 0 -2
BITMAP
2000
1000
1000
0800
0800
0800
0800
1000
1000
2000
0000
0000
ENDCHAR
STARTCHAR K+232A
ENCODING 9002
SWIDTH 960 0
DWIDTH 12 0
BBX 12 12 0 -2
BITMAP
0000
0000
0200
0a80
0700
0500
0880
0000
0000
0000
0000
0000
ENDCHAR
STARTCHAR K+232B
ENCODING 9003
SWIDTH 960 0
DWIDTH 12 0
BBX 12 12 0 -2
BITMAP
0000
0000
0200
0200
0200
1fc0
0200
0200
0200
0000
0000
0000
ENDCHAR
STARTCHAR K+232C
ENCODING 9004
SWIDTH 960 0
DWIDTH 12 0
BBX 12 12 0 -2
BITMAP
0000
0000
0000
0000
0000
0000
0000
2000
2000
4000
0000
0000
ENDCHAR
STARTCHAR K+232D
ENCODING 9005
SWIDTH 960 0
DWIDTH 12 0
BBX 12 12 0 -2
BITMAP
0000
0000
0000
0000
0000
0f80
0000
0000
0000
0000
0000
0000
ENDCHAR
STARTCHAR K+232E
ENCODING 9006
SWIDTH 960 0
DWIDTH 12 0
BBX 12 12 0 -2
BITMAP
0000
0000
0000
0000
0000
0000
0000
2000
2000
0000
0000
0000
ENDCHAR
STARTCHAR K+232F
ENCODING 9007
SWIDTH 960 0
DWIDTH 12 0
BBX 12 12 0 -2
BITMAP
0100
0100
0200
0200
0400
0400
0800
0800
1000
1000
0000
0000
ENDCHAR
STARTCHAR K+2330
ENCODING 9008
SWIDTH 960 0
DWIDTH 12 0
BBX 12 12 0 -2
BITMAP
0700
0880
0880
0880
0880
0880
0880
0880
0700
0000
0000
0000
ENDCHAR
STARTCHAR K+2331
ENCODING 9009
SWIDTH 960 0
DWIDTH 12 0
BBX 12 12 0 -2
BITMAP
0200
0600
0200
0200
0200
0200
0200
0200
0200
0000
0000
0000
ENDCHAR
STARTCHAR K+2332
ENCODING 9010
SWIDTH 960 0
DWIDTH 12 0
BBX 12 12 0 -2
BITMAP
0700
0880
0880
0080
0100
0200
0400
0800
0f80
0000
0000
0000
ENDCHAR
STARTCHAR K+2333
ENCODING 9011
SWIDTH 960 0
DWIDTH 12 0
BBX 12 12 0 -2
BITMAP
0700
0880
0880
0080
0300
0080
0880
0880
0700
0000
0000
0000
ENDCHAR
STARTCHAR K+2334
ENCODING 9012
SWIDTH 960 0
DWIDTH 12 0
BBX 12 12 0 -2
BITMAP
0300
0300
0500
0500
0900
0900
0f80
0100
0100
0000
0000
0000
ENDCHAR
STARTCHAR K+2335
ENCODING 9013
SWIDTH 960 0
DWIDTH 12 0
BBX 12 12 0 -2
BITMAP
0f80
0800
0800
0f00
0880
0080
0080
0880
0700
0000
0000
0000
ENDCHAR
STARTCHAR K+2336
ENCODING 9014
SWIDTH 960 0
DWIDTH 12 0
BBX 12 12 0 -2
BITMAP
0700
0880
0800
0f00
0880
0880
0880
0880
0700
0000
0000
0000
ENDCHAR
STARTCHAR K+2337
ENCODING 9015
SWIDTH 960 0
DWIDTH 12 0
BBX 12 12 0 -2
BITMAP
0f80
0880
0880
0100
0100
0100
0200
0200
0200
0000
0000
0000
ENDCHAR
STARTCHAR K+2338
ENCODING 9016
SWIDTH 960 0
DWIDTH 12 0
BBX 12 12 0 -2
BITMAP
0700
0880
0880
0880
0700
0880
0880
0880
0700
0000
0000
0000
ENDCHAR
STARTCHAR K+2339
ENCODING 9017
SWIDTH 960 0
DWIDTH 12 0
BBX 12 12 0 -2
BITMAP
0700
0880
0880
0880
0880
0780
0080
0880
0700
0000
0000
0000
ENDCHAR
STARTCHAR K+233A
ENCODING 9018
SWIDTH 960 0
DWIDTH 12 0
BBX 12 12 0 -2
BITMAP
0000
0200
0200
0000
0000
0000
0200
0200
0000
0000
0000
0000
ENDCHAR
STARTCHAR K+233B
ENCODING 9019
SWIDTH 960 0
DWIDTH 12 0
BBX 12 12 0 -2
BITMAP
0000
0200
0200
0000
0000
0000
0200
0200
0400
0000
0000
0000
ENDCHAR
STARTCHAR K+233C
ENCODING 9020
SWIDTH 960 0
DWIDTH 12 0
BBX 12 12 0 -2
BITMAP
0020
0040
0080
0100
0200
0200
0100
0080
0040
0020
0000
0000
ENDCHAR
STARTCHAR K+233D
ENCODING 9021
SWIDTH 960 0
DWIDTH 12 0
BBX 12 12 0 -2
BITMAP
0000
0000
0000
0000
0f80
0000
0f80
0000
0000
0000
0000
0000
ENDCHAR
STARTCHAR K+233E
ENCODING 9022
SWIDTH 960 0
DWIDTH 12 0
BBX 12 12 0 -2
BITMAP
2000
1000
0800
0400
0200
0200
0400
0800
1000
2000
0000
0000
ENDCHAR
STARTCHAR K+233F
ENCODING 9023
SWIDTH 960 0
DWIDTH 12 0
BBX 12 12 0 -2
BITMAP
0700
0880
0880
0080
0100
0200
0000
0200
0200
0000
0000
0000
ENDCHAR
STARTCHAR K+2340
ENCODING 9024
SWIDTH 960 0
DWIDTH 12 0
BBX 12 12 0 -2
BITMAP
0f80
1040
26a0
2920
2920
2920
26c0
1000
0f80
0000
0000
0000
ENDCHAR
STARTCHAR K+2341
ENCODING 9025
SWIDTH 960 0
DWIDTH 12 0
BBX 12 12 0 -2
BITMAP
0200
0200
0500
0500
0880
0f80
0880
1040
1040
0000
0000
0000
ENDCHAR
STARTCHAR K+2342
ENCODING 9026
SWIDTH 960 0
DWIDTH 12 0
BBX 12 12 0 -2
BITMAP
1f00
1080
1080
1080
1f00
1080
1080
1080
1f00
0000
0000
0000
ENDCHAR
STARTCHAR K+2343
ENCODING 9027
SWIDTH 960 0
DWIDTH 12 0
BBX 12 12 0 -2
BITMAP
0700
0880
1000
1000
1000
1000
1000
0880
0700
0000
0000
0000
ENDCHAR
STARTCHAR K+2344
ENCODING 9028
SWIDTH 960 0
DWIDTH 12 0
BBX 12 12 0 -2
BITMAP
1e00
1100
1080
1080
1080
1080
1080
1100
1e00
0000
0000
0000
ENDCHAR
STARTCHAR K+2345
ENCODING 9029
SWIDTH 960 0
DWIDTH 12 0
BBX 12 12 0 -2
BITMAP
1f80
1000
1000
1000
1f00
1000
1000
1000
1f80
0000
0000
0000
ENDCHAR
STARTCHAR K+2346
ENCODING 9030
SWIDTH 960 0
DWIDTH 12 0
BBX 12 12 0 -2
BITMAP
1f80
1000
1000
1000
1f00
1000
1000
1000
1000
0000
0000
0000
ENDCHAR
STARTCHAR K+2347
ENCODING 9031
SWIDTH 960 0
DWIDTH 12 0
BBX 12 12 0 -2
BITMAP
0700
0880
1000
1000
1180
1080
1080
0980
0680
0000
0000
0000
ENDCHAR
STARTCHAR K+2348
ENCODING 9032
SWIDTH 960 0
DWIDTH 12 0
BBX 12 12 0 -2
BITMAP
1080
1080
1080
1080
1f80
1080
1080
1080
1080
0000
0000
0000
ENDCHAR
STARTCHAR K+2349
ENCODING 9033
SWIDTH 960 0
DWIDTH 12 0
BBX 12 12 0 -2
BITMAP
0200
0200
0200
0200
0200
0200
0200
0200
0200
0000
0000
0000
ENDCHAR
STARTCHAR K+234A
ENCODING 9034
SWIDTH 960 0
DWIDTH 12 0
BBX 12 12 0 -2
BITMAP
0100
0100
0100
0100
0100
0100
1100
1100
0e00
0000
0000
0000
ENDCHAR
STARTCHAR K+234B
ENCODING 9035
SWIDTH 960 0
DWIDTH 12 0
BBX 12 12 0 -2
BITMAP
1080
1100
1200
1400
1800
1400
1200
1100
1080
0000
0000
0000
ENDCHAR
STARTCHAR K+234C
ENCODING 9036
SWIDTH 960 0
DWIDTH 12 0
BBX 12 12 0 -2
BITMAP
1000
1000
1000
1000
1000
1000
1000
1000
1f80
0000
0000
0000
ENDCHAR
STARTCHAR K+234D
ENCODING 9037
SWIDTH 960 0
DWIDTH 12 0
BBX 12 12 0 -2
BITMAP
1040
1040
18c0
18c0
1540
1540
1240
1240
1040
0000
0000
0000
ENDCHAR
STARTCHAR K+234E
ENCODING 9038
SWIDTH 960 0
DWIDTH 12 0
BBX 12 12 0 -2
BITMAP
1080
1880
1880
1480
1480
1280
1280
1180
1180
0000
0000
0000
ENDCHAR
STARTCHAR K+234F
ENCODING 9039
SWIDTH 960 0
DWIDTH 12 0
BBX 12 12 0 -2
BITMAP
0700
0880
1040
1040
1040
1040
1040
0880
0700
0000
0000
0000
ENDCHAR
STARTCHAR K+2350
ENCODING 9040
SWIDTH 960 0
DWIDTH 12 0
BBX 12 12 0 -2
BITMAP
1f00
1080
1080
1080
1080
1f00
1000
1000
1000
0000
0000
0000
ENDCHAR
STARTCHAR K+2351
ENCODING 9041
SWIDTH 960 0
DWIDTH 12 0
BBX 12 12 0 -2
BITMAP
0700
0880
1040
1040
1040
1040
1140
0880
0740
0000
0000
0000
ENDCHAR
STARTCHAR K+2352
ENCODING 9042
SWIDTH 960 0
DWIDTH 12 0
BBX 12 12 0 -2
BITMAP
1f00
1080
1080
1080
1f00
1080
1080
1080
1080
0000
0000
0000
ENDCHAR
STARTCHAR K+2353
ENCODING 9043
SWIDTH 960 0
DWIDTH 12 0
BBX 12 12 0 -2
BITMAP
0f00
1080
1000
0c00
0300
0080
0080
1080
0f00
0000
0000
0000
ENDCHAR
STARTCHAR K+2354
ENCODING 9044
SWIDTH 960 0
DWIDTH 12 0
BBX 12 12 0 -2
BITMAP
1fc0
0200
0200
0200
0200
0200
0200
0200
0200
0000
0000
0000
ENDCHAR
STARTCHAR K+2355
ENCODING 9045
SWIDTH 960 0
DWIDTH 12 0
BBX 12 12 0 -2
BITMAP
1080
1080
1080
1080
1080
1080
1080
1080
0f00
0000
0000
0000
ENDCHAR
STARTCHAR K+2356
ENCODING 9046
SWIDTH 960 0
DWIDTH 12 0
BBX 12 12 0 -2
BITMAP
1040
1040
1040
0880
0880
0500
0500
0200
0200
0000
0000
0000
ENDCHAR
STARTCHAR K+2357
ENCODING 9047
SWIDTH 960 0
DWIDTH 12 0
BBX 12 12 0 -2
BITMAP
2220
2220
2220
1540
1540
1540
0880
0880
0880
0000
0000
0000
ENDCHAR
STARTCHAR K+2358
ENCODING 9048
SWIDTH 960 0
DWIDTH 12 0
BBX 12 12 0 -2
BITMAP
1040
1040
0880
0500
0200
0500
0880
1040
1040
0000
0000
0000
ENDCHAR
STARTCHAR K+2359
ENCODING 9049
SWIDTH 960 0
DWIDTH 12 0
BBX 12 12 0 -2
BITMAP
1040
1040
0880
0500
0200
0200
0200
0200
0200
0000
0000
0000
ENDCHAR
STARTCHAR K+235A
ENCODING 9050
SWIDTH 960 0
DWIDTH 12 0
BBX 12 12 0 -2
BITMAP
1f80
0100
0200
0200
0400
0400
0800
0800
1f80
0000
0000
0000
ENDCHAR
STARTCHAR K+235B
ENCODING 9051
SWIDTH 960 0
DWIDTH 12 0
BBX 12 12 0 -2
BITMAP
00e0
0080
0080
0080
0080
0080
0080
0080
0080
0080
00e0
0000
ENDCHAR
STARTCHAR K+235C
ENCODING 9052
SWIDTH 960 0
DWIDTH 12 0
BBX 12 12 0 -2
BITMAP
2220
2220
2220
7ff0
1540
1540
0880
0880
0880
0000
0000
0000
ENDCHAR
STARTCHAR K+235D
ENCODING 9053
SWIDTH 960 0
DWIDTH 12 0
BBX 12 12 0 -2
BITMAP
3800
0800
0800
0800
0800
0800
0800
0800
0800
0800
3800
0000
ENDCHAR
STARTCHAR K+235E
ENCODING 9054
SWIDTH 960 0
DWIDTH 12 0
BBX 12 12 0 -2
BITMAP
0200
0500
0880
0000
0000
0000
0000
0000
0000
0000
0000
0000
ENDCHAR
STARTCHAR K+235F
ENCODING 9055
SWIDTH 960 0
DWIDTH 12 0
BBX 12 12 0 -2
BITMAP
0000
0000
0000
0000
0000
0000
0000
0000
7fe0
0000
0000
0000
ENDCHAR
STARTCHAR K+2360
ENCODING 9056
SWIDTH 960 0
DWIDTH 12 0
BBX 12 12 0 -2
BITMAP
2000
1000
0800
0000
0000
0000
0000
0000
0000
0000
0000
0000
ENDCHAR
STARTCHAR K+2361
ENCODING 9057
SWIDTH 960 0
DWIDTH 12 0
BBX 12 12 0 -2
BITMAP
0000
0000
0000
0e00
1100
0f00
1100
1100
0e80
0000
0000
0000
ENDCHAR
STARTCHAR K+2362
ENCODING 9058
SWIDTH 960 0
DWIDTH 12 0
BBX 12 12 0 -2
BITMAP
0800
0800
0800
0f00
0880
0880
0880
0880
0f00
0000
0000
0000
ENDCHAR
STARTCHAR K+2363
ENCODING 9059
SWIDTH 960 0
DWIDTH 12 0
BBX 12 12 0 -2
BITMAP
0000
0000
0000
0700
0880
0800
0800
0880
0700
0000
0000
0000
ENDCHAR
STARTCHAR K+2364
ENCODING 9060
SWIDTH 960 0
DWIDTH 12 0
BBX 12 12 0 -2
BITMAP
0080
0080
0080
0780
0880
0880
0880
0880
0780
0000
0000
0000
ENDCHAR
STARTCHAR K+2365
ENCODING 9061
SWIDTH 960 0
DWIDTH 12 0
BBX 12 12 0 -2
BITMAP
0000
0000
0000
0700
0880
0f80
0800
0880
0700
0000
0000
0000
ENDCHAR
STARTCHAR K+2366
ENCODING 9062
SWIDTH 960 0
DWIDTH 12 0
BBX 12 12 0 -2
BITMAP
0300
0400
0400
1f00
0400
0400
0400
0400
0400
0000
0000
0000
ENDCHAR
STARTCHAR K+2367
ENCODING 9063
SWIDTH 960 0
DWIDTH 12 0
BBX 12 12 0 -2
BITMAP
0000
0000
0000
0780
0880
0880
0880
0880
0780
0880
0700
0000
ENDCHAR
STARTCHAR K+2368
ENCODING 9064
SWIDTH 960 0
DWIDTH 12 0
BBX 12 12 0 -2
BITMAP
0800
0800
0800
0f00
0880
0880
0880
0880
0880
0000
0000
0000
ENDCHAR
STARTCHAR K+2369
ENCODING 9065
SWIDTH 960 0
DWIDTH 12 0
BBX 12 12 0 -2
BITMAP
0200
0000
0000
0200
0200
0200
0200
0200
0200
0000
0000
0000
ENDCHAR
STARTCHAR K+236A
ENCODING 9066
SWIDTH 960 0
DWIDTH 12 0
BBX 12 12 0 -2
BITMAP
0200
0000
0000
0200
0200
0200
0200
0200
0200
1200
0c00
0000
ENDCHAR
STARTCHAR K+236B
ENCODING 9067
SWIDTH 960 0
DWIDTH 12 0
BBX 12 12 0 -2
BITMAP
0800
0800
0800
0880
0900
0a00
0e00
0900
0880
0000
0000
0000
ENDCHAR
STARTCHAR K+236C
ENCODING 9068
SWIDTH 960 0
DWIDTH 12 0
BBX 12 12 0 -2
BITMAP
0200
0200
0200
0200
0200
0200
0200
0200
0200
0000
0000
0000
ENDCHAR
STARTCHAR K+236D
ENCODING 9069
SWIDTH 960 0
DWIDTH 12 0
BBX 12 12 0 -2
BITMAP
0000
0000
0000
1d80
1240
1240
1240
1240
1240
0000
0000
0000
ENDCHAR
STARTCHAR K+236E
ENCODING 9070
SWIDTH 960 0
DWIDTH 12 0
BBX 12 12 0 -2
BITMAP
0000
0000
0000
0f00
0880
0880
0880
0880
0880
0000
0000
0000
ENDCHAR
STARTCHAR K+236F
ENCODING 9071
SWIDTH 960 0
DWIDTH 12 0
BBX 12 12 0 -2
BITMAP
0000
0000
0000
0700
0880
0880
0880
0880
0700
0000
0000
0000
ENDCHAR
STARTCHAR K+2370
ENCODING 9072
SWIDTH 960 0
DWIDTH 12 0
BBX 12 12 0 -2
BITMAP
0000
0000
0000
0f00
0880
0880
0880
0880
0f00
0800
0800
0000
ENDCHAR
STARTCHAR K+2371
ENCODING 9073
SWIDTH 960 0
DWIDTH 12 0
BBX 12 12 0 -2
BITMAP
0000
0000
0000
0780
0880
0880
0880
0880
0780
0080
0080
0000
ENDCHAR
STARTCHAR K+2372
ENCODING 9074
SWIDTH 960 0
DWIDTH 12 0
BBX 12 12 0 -2
BITMAP
0000
0000
0000
0580
0600
0400
0400
0400
0400
0000
0000
0000
ENDCHAR
STARTCHAR K+2373
ENCODING 9075
SWIDTH 960 0
DWIDTH 12 0
BBX 12 12 0 -2
BITMAP
0000
0000
0000
0700
0880
0600
0100
0880
0700
0000
0000
0000
ENDCHAR
STARTCHAR K+2374
ENCODING 9076
SWIDTH 960 0
DWIDTH 12 0
BBX 12 12 0 -2
BITMAP
0400
0400
0400
0f00
0400
0400
0400
0400
0300
0000
0000
0000
ENDCHAR
STARTCHAR K+2375
ENCODING 9077
SWIDTH 960 0
DWIDTH 12 0
BBX 12 12 0 -2
BITMAP
0000
0000
0000
0880
0880
0880
0880
0880
0780
0000
0000
0000
ENDCHAR
STARTCHAR K+2376
ENCODING 9078
SWIDTH 960 0
DWIDTH 12 0
BBX 12 12 0 -2
BITMAP
0000
0000
0000
0880
0880
0500
0500
0200
0200
0000
0000
0000
ENDCHAR
STARTCHAR K+2377
ENCODING 9079
SWIDTH 960 0
DWIDTH 12 0
BBX 12 12 0 -2
BITMAP
0000
0000
0000
1240
1240
1540
0d80
0880
0880
0000
0000
0000
ENDCHAR
STARTCHAR K+2378
ENCODING 9080
SWIDTH 960 0
DWIDTH 12 0
BBX 12 12 0 -2
BITMAP
0000
0000
0000
0880
0500
0200
0200
0500
0880
0000
0000
0000
ENDCHAR
STARTCHAR K+2379
ENCODING 9081
SWIDTH 960 0
DWIDTH 12 0
BBX 12 12 0 -2
BITMAP
0000
0000
0000
0880
0880
0500
0500
0200
0200
0400
1800
0000
ENDCHAR
STARTCHAR K+237A
ENCODING 9082
SWIDTH 960 0
DWIDTH 12 0
BBX 12 12 0 -2
BITMAP
0000
0000
0000
0f80
0100
0200
0400
0800
0f80
0000
0000
0000
ENDCHAR
STARTCHAR K+237B
ENCODING 9083
SWIDTH 960 0
DWIDTH 12 0
BBX 12 12 0 -2
BITMAP
0020
0040
0040
0040
0040
0080
0040
0040
0040
0040
0020
0000
ENDCHAR
STARTCHAR K+237C
ENCODING 9084
SWIDTH 960 0
DWIDTH 12 0
BBX 12 12 0 -2
BITMAP
0200
0200
0200
0200
0200
0200
0200
0200
0200
0000
0000
0000
ENDCHAR
STARTCHAR K+237D
ENCODING 9085
SWIDTH 960 0
DWIDTH 12 0
BBX 12 12 0 -2
BITMAP
2000
1000
1000
1000
1000
0800
1000
1000
1000
1000
2000
0000
ENDCHAR
STARTCHAR K+237E
ENCODING 9086
SWIDTH 960 0
DWIDTH 12 0
BBX 12 12 0 -2
BITMAP
7fe0
0000
0000
0000
0000
0000
0000
0000
0000
0000
0000
0000
ENDCHAR
STARTCHAR K+2421
ENCODING 9249
SWIDTH 960 0
DWIDTH 12 0
BBX 12 12 0 -2
BITMAP
0000
0000
1f80
0080
0080
0080
0080
0080
0000
0000
0000
0000
ENDCHAR
STARTCHAR K+2422
ENCODING 9250
SWIDTH 960 0
DWIDTH 12 0
BBX 12 12 0 -2
BITMAP
0000
0000
3fc0
0440
0440
0440
0440
0440
0000
0000
0000
0000
ENDCHAR
STARTCHAR K+2423
ENCODING 9251
SWIDTH 960 0
DWIDTH 12 0
BBX 12 12 0 -2
BITMAP
0000
0000
3c80
0480
0480
0540
0540
0620
0000
0000
0000
0000
ENDCHAR
STARTCHAR K+2424
ENCODING 9252
SWIDTH 960 0
DWIDTH 12 0
BBX 12 12 0 -2
BITMAP
0000
0000
1000
1000
1000
1000
1000
1f80
0000
0000
0000
0000
ENDCHAR
STARTCHAR K+2425
ENCODING 9253
SWIDTH 960 0
DWIDTH 12 0
BBX 12 12 0 -2
BITMAP
0000
0000
27c0
2100
2100
2100
2280
3c40
0000
0000
0000
0000
ENDCHAR
STARTCHAR K+2426
ENCODING 9254
SWIDTH 960 0
DWIDTH 12 0
BBX 12 12 0 -2
BITMAP
0000
0000
4380
4000
4fe0
4280
4440
7b80
0000
0000
0000
0000
ENDCHAR
STARTCHAR K+2427
ENCODING 9255
SWIDTH 960 0
DWIDTH 12 0
BBX 12 12 0 -2
BITMAP
0000
0000
1f80
1000
1000
1000
1000
1f80
0000
0000
0000
0000
ENDCHAR
STARTCHAR K+2428
ENCODING 9256
SWIDTH 960 0
DWIDTH 12 0
BBX 12 12 0 -2
BITMAP
0000
0000
3fc0
2200
2200
2200
2200
3fc0
0000
0000
0000
0000
ENDCHAR
STARTCHAR K+2429
ENCODING 9257
SWIDTH 960 0
DWIDTH 12 0
BBX 12 12 0 -2
BITMAP
0000
0000
1f80
0080
1f80
1000
1000
1f80
0000
0000
0000
0000
ENDCHAR
STARTCHAR K+242A
ENCODING 9258
SWIDTH 960 0
DWIDTH 12 0
BBX 12 12 0 -2
BITMAP
0000
0000
3fe0
0220
3e20
2020
2020
3e20
0000
0000
0000
0000
ENDCHAR
STARTCHAR K+242B
ENCODING 9259
SWIDTH 960 0
DWIDTH 12 0
BBX 12 12 0 -2
BITMAP
0000
0000
3de0
0520
3d20
2120
2120
3fe0
0000
0000
0000
0000
ENDCHAR
STARTCHAR K+242C
ENCODING 9260
SWIDTH 960 0
DWIDTH 12 0
BBX 12 12 0 -2
BITMAP
0000
0000
3d20
0520
3de0
2120
2120
3fe0
0000
0000
0000
0000
ENDCHAR
STARTCHAR K+242D
ENCODING 9261
SWIDTH 960 0
DWIDTH 12 0
BBX 12 12 0 -2
BITMAP
0000
0000
3c80
0480
3c80
2140
2140
3e20
0000
0000
0000
0000
ENDCHAR
STARTCHAR K+242E
ENCODING 9262
SWIDTH 960 0
DWIDTH 12 0
BBX 12 12 0 -2
BITMAP
0000
0000
3de0
0500
3de0
2100
2100
3fe0
0000
0000
0000
0000
ENDCHAR
STARTCHAR K+242F
ENCODING 9263
SWIDTH 960 0
DWIDTH 12 0
BBX 12 12 0 -2
BITMAP
0000
0000
3fe0
0400
3d40
2140
2140
3fe0
0000
0000
0000
0000
ENDCHAR
STARTCHAR K+2430
ENCODING 9264
SWIDTH 960 0
DWIDTH 12 0
BBX 12 12 0 -2
BITMAP
0000
0000
79c0
0800
7ff0
4140
4220
79c0
0000
0000
0000
0000
ENDCHAR
STARTCHAR K+2431
ENCODING 9265
SWIDTH 960 0
DWIDTH 12 0
BBX 12 12 0 -2
BITMAP
0000
0000
1f80
1080
1080
1080
1080
1f80
0000
0000
0000
0000
ENDCHAR
STARTCHAR K+2432
ENCODING 9266
SWIDTH 960 0
DWIDTH 12 0
BBX 12 12 0 -2
BITMAP
0000
0000
1080
1080
1f80
1080
1080
1f80
0000
0000
0000
0000
ENDCHAR
STARTCHAR K+2433
ENCODING 9267
SWIDTH 960 0
DWIDTH 12 0
BBX 12 12 0 -2
BITMAP
0000
0000
2520
2520
3de0
2520
2520
3de0
0000
0000
0000
0000
ENDCHAR
STARTCHAR K+2434
ENCODING 9268
SWIDTH 960 0
DWIDTH 12 0
BBX 12 12 0 -2
BITMAP
0000
0000
2480
2480
3c80
2540
2540
3e20
0000
0000
0000
0000
ENDCHAR
STARTCHAR K+2435
ENCODING 9269
SWIDTH 960 0
DWIDTH 12 0
BBX 12 12 0 -2
BITMAP
0000
0000
0200
0200
0200
0500
0880
1040
0000
0000
0000
0000
ENDCHAR
STARTCHAR K+2436
ENCODING 9270
SWIDTH 960 0
DWIDTH 12 0
BBX 12 12 0 -2
BITMAP
0000
0000
0880
0880
0880
1540
1540
2220
0000
0000
0000
0000
ENDCHAR
STARTCHAR K+2437
ENCODING 9271
SWIDTH 960 0
DWIDTH 12 0
BBX 12 12 0 -2
BITMAP
0000
0000
0f00
1080
1080
1080
1080
0f00
0000
0000
0000
0000
ENDCHAR
STARTCHAR K+2438
ENCODING 9272
SWIDTH 960 0
DWIDTH 12 0
BBX 12 12 0 -2
BITMAP
0000
0000
1fc0
0200
0200
0500
0880
1040
0000
0000
0000
0000
ENDCHAR
STARTCHAR K+2439
ENCODING 9273
SWIDTH 960 0
DWIDTH 12 0
BBX 12 12 0 -2
BITMAP
0000
0000
3fe0
0880
0880
1540
1540
2220
0000
0000
0000
0000
ENDCHAR
STARTCHAR K+243A
ENCODING 9274
SWIDTH 960 0
DWIDTH 12 0
BBX 12 12 0 -2
BITMAP
0000
0000
0700
0000
1fc0
0200
0500
18c0
0000
0000
0000
0000
ENDCHAR
STARTCHAR K+243B
ENCODING 9275
SWIDTH 960 0
DWIDTH 12 0
BBX 12 12 0 -2
BITMAP
0000
0000
1f80
0080
0080
1f80
0080
0080
0000
0000
0000
0000
ENDCHAR
STARTCHAR K+243C
ENCODING 9276
SWIDTH 960 0
DWIDTH 12 0
BBX 12 12 0 -2
BITMAP
0000
0000
1f80
1000
1f80
1000
1000
1f80
0000
0000
0000
0000
ENDCHAR
STARTCHAR K+243D
ENCODING 9277
SWIDTH 960 0
DWIDTH 12 0
BBX 12 12 0 -2
BITMAP
0000
0000
1f80
0000
0900
0900
0900
3fc0
0000
0000
0000
0000
ENDCHAR
STARTCHAR K+243E
ENCODING 9278
SWIDTH 960 0
DWIDTH 12 0
BBX 12 12 0 -2
BITMAP
0000
0700
0000
1fc0
0500
0880
0880
0700
0000
0000
0000
0000
ENDCHAR
STARTCHAR K+243F
ENCODING 9279
SWIDTH 960 0
DWIDTH 12 0
BBX 12 12 0 -2
BITMAP
0200
0200
0200
0200
0200
03c0
0200
0200
0200
0200
0200
0000
ENDCHAR
STARTCHAR K+2440
ENCODING 9280
SWIDTH 960 0
DWIDTH 12 0
BBX 12 12 0 -2
BITMAP
0100
0900
0900
0900
0900
0f00
0900
0900
0900
0900
0100
0000
ENDCHAR
STARTCHAR K+2441
ENCODING 9281
SWIDTH 960 0
DWIDTH 12 0
BBX 12 12 0 -2
BITMAP
0200
0200
0200
03c0
0200
0200
03c0
0200
0200
0200
0200
0000
ENDCHAR
STARTCHAR K+2442
ENCODING 9282
SWIDTH 960 0
DWIDTH 12 0
BBX 12 12 0 -2
BITMAP
0100
0900
0900
0f00
0900
0900
0f00
0900
0900
0900
0100
0000
ENDCHAR
STARTCHAR K+2443
ENCODING 9283
SWIDTH 960 0
DWIDTH 12 0
BBX 12 12 0 -2
BITMAP
0100
0100
0100
0100
0100
0f00
0100
0100
0100
0100
0100
0000
ENDCHAR
STARTCHAR K+2444
ENCODING 9284
SWIDTH 960 0
DWIDTH 12 0
BBX 12 12 0 -2
BITMAP
0080
0480
0480
0480
0480
1c80
0480
0480
0480
0480
0080
0000
ENDCHAR
STARTCHAR K+2445
ENCODING 9285
SWIDTH 960 0
DWIDTH 12 0
BBX 12 12 0 -2
BITMAP
0200
0200
0200
0e00
0200
0200
0e00
0200
0200
0200
0200
0000
ENDCHAR
STARTCHAR K+2446
ENCODING 9286
SWIDTH 960 0
DWIDTH 12 0
BBX 12 12 0 -2
BITMAP
0480
0480
0480
1c80
0480
0480
1c80
0480
0480
0480
0480
0000
ENDCHAR
STARTCHAR K+2447
ENCODING 9287
SWIDTH 960 0
DWIDTH 12 0
BBX 12 12 0 -2
BITMAP
0000
0000
0000
0000
0200
0200
0200
7fe0
0000
0000
0000
0000
ENDCHAR
STARTCHAR K+2448
ENCODING 9288
SWIDTH 960 0
DWIDTH 12 0
BBX 12 12 0 -2
BITMAP
0040
0040
0040
0040
0840
0840
0870
0840
7f40
0040
0040
0000
ENDCHAR
STARTCHAR K+2449
ENCODING 9289
SWIDTH 960 0
DWIDTH 12 0
BBX 12 12 0 -2
BITMAP
0020
0120
0120
0120
1120
11e0
1120
1120
7d20
0120
0020
0000
ENDCHAR
STARTCHAR K+244A
ENCODING 9290
SWIDTH 960 0
DWIDTH 12 0
BBX 12 12 0 -2
BITMAP
0040
0040
0040
0040
0840
0840
0840
0840
7f40
0040
0040
0000
ENDCHAR
STARTCHAR K+244B
ENCODING 9291
SWIDTH 960 0
DWIDTH 12 0
BBX 12 12 0 -2
BITMAP
0000
0000
0000
0000
0900
0900
0900
7fe0
0000
0000
0000
0000
ENDCHAR
STARTCHAR K+244C
ENCODING 9292
SWIDTH 960 0
DWIDTH 12 0
BBX 12 12 0 -2
BITMAP
0000
0000
0000
0000
7ff0
0200
0200
0200
0200
0200
0000
0000
ENDCHAR
STARTCHAR K+244D
ENCODING 9293
SWIDTH 960 0
DWIDTH 12 0
BBX 12 12 0 -2
BITMAP
0040
0040
0040
0040
0040
7f40
0840
09c0
0840
0840
0040
0000
ENDCHAR
STARTCHAR K+244E
ENCODING 9294
SWIDTH 960 0
DWIDTH 12 0
BBX 12 12 0 -2
BITMAP
0020
0120
0120
0120
0120
7d20
1120
1720
1120
0120
0020
0000
ENDCHAR
STARTCHAR K+244F
ENCODING 9295
SWIDTH 960 0
DWIDTH 12 0
BBX 12 12 0 -2
BITMAP
0040
0040
0040
0040
0040
7f40
0840
0840
0840
0840
0040
0000
ENDCHAR
STARTCHAR K+2450
ENCODING 9296
SWIDTH 960 0
DWIDTH 12 0
BBX 12 12 0 -2
BITMAP
0000
0000
0000
0000
7fe0
1080
1080
1080
1080
1080
0000
0000
ENDCHAR
STARTCHAR K+2451
ENCODING 9297
SWIDTH 960 0
DWIDTH 12 0
BBX 12 12 0 -2
BITMAP
0000
0000
0000
0000
7fe0
0000
0000
0000
0000
0000
0000
0000
ENDCHAR
STARTCHAR K+2452
ENCODING 9298
SWIDTH 960 0
DWIDTH 12 0
BBX 12 12 0 -2
BITMAP
0040
0040
0040
0040
0040
0040
0040
7f40
0040
0040
0040
0000
ENDCHAR
STARTCHAR K+2453
ENCODING 9299
SWIDTH 960 0
DWIDTH 12 0
BBX 12 12 0 -2
BITMAP
0200
0200
0200
0200
0200
0200
0200
0200
0200
0200
0200
0000
ENDCHAR
STARTCHAR K+2454
ENCODING 9300
SWIDTH 960 0
DWIDTH 12 0
BBX 12 12 0 -2
BITMAP
0000
0000
0000
0000
0000
0000
0000
0000
0000
0000
0000
0000
ENDCHAR
STARTCHAR K+2455
ENCODING 9301
SWIDTH 960 0
DWIDTH 12 0
BBX 12 12 0 -2
BITMAP
0000
0000
2200
2200
2200
2200
2200
3fc0
0000
0000
0000
0000
ENDCHAR
STARTCHAR K+2456
ENCODING 9302
SWIDTH 960 0
DWIDTH 12 0
BBX 12 12 0 -2
BITMAP
0000
0000
23c0
2200
2200
2200
2200
3fc0
0000
0000
0000
0000
ENDCHAR
STARTCHAR K+2457
ENCODING 9303
SWIDTH 960 0
DWIDTH 12 0
BBX 12 12 0 -2
BITMAP
0000
0000
2080
2080
2080
2140
2140
3e20
0000
0000
0000
0000
ENDCHAR
STARTCHAR K+2458
ENCODING 9304
SWIDTH 960 0
DWIDTH 12 0
BBX 12 12 0 -2
BITMAP
0000
0000
2080
2080
2140
2140
2220
3fe0
0000
0000
0000
0000
ENDCHAR
STARTCHAR K+2459
ENCODING 9305
SWIDTH 960 0
DWIDTH 12 0
BBX 12 12 0 -2
BITMAP
0000
0000
7e40
1240
7240
42a0
42a0
72a0
0000
0000
0000
0000
ENDCHAR
STARTCHAR K+245A
ENCODING 9306
SWIDTH 960 0
DWIDTH 12 0
BBX 12 12 0 -2
BITMAP
0000
0000
3de0
0500
3d00
2100
2100
3de0
0000
0000
0000
0000
ENDCHAR
STARTCHAR K+245B
ENCODING 9307
SWIDTH 960 0
DWIDTH 12 0
BBX 12 12 0 -2
BITMAP
0000
0000
7520
1520
7720
4520
4550
7750
0000
0000
0000
0000
ENDCHAR
STARTCHAR K+245C
ENCODING 9308
SWIDTH 960 0
DWIDTH 12 0
BBX 12 12 0 -2
BITMAP
0000
0000
3c80
0480
3d40
2140
2220
3fe0
0000
0000
0000
0000
ENDCHAR
STARTCHAR K+245D
ENCODING 9309
SWIDTH 960 0
DWIDTH 12 0
BBX 12 12 0 -2
BITMAP
0000
0000
3de0
0400
3cc0
2120
2120
3cc0
0000
0000
0000
0000
ENDCHAR
STARTCHAR K+245E
ENCODING 9310
SWIDTH 960 0
DWIDTH 12 0
BBX 12 12 0 -2
BITMAP
0000
0000
3d20
2520
25e0
2520
2520
3de0
0000
0000
0000
0000
ENDCHAR
STARTCHAR K+245F
ENCODING 9311
SWIDTH 960 0
DWIDTH 12 0
BBX 12 12 0 -2
BITMAP
0000
0000
3c80
2480
2480
2540
2540
3e20
0000
0000
0000
0000
ENDCHAR
STARTCHAR K+2460
ENCODING 9312
SWIDTH 960 0
DWIDTH 12 0
BBX 12 12 0 -2
BITMAP
0000
0000
3c80
2480
2540
2540
2620
3fe0
0000
0000
0000
0000
ENDCHAR
STARTCHAR K+2461
ENCODING 9313
SWIDTH 960 0
DWIDTH 12 0
BBX 12 12 0 -2
BITMAP
1f80
1080
1080
1f80
0400
0f00
1080
1080
0f00
0000
0000
0000
ENDCHAR
STARTCHAR K+2462
ENCODING 9314
SWIDTH 960 0
DWIDTH 12 0
BBX 12 12 0 -2
BITMAP
0000
0000
25e0
2420
3c20
2420
2420
3c20
0000
0000
0000
0000
ENDCHAR
STARTCHAR K+2463
ENCODING 9315
SWIDTH 960 0
DWIDTH 12 0
BBX 12 12 0 -2
BITMAP
0000
0000
25e0
2500
3d00
2500
2500
3de0
0000
0000
0000
0000
ENDCHAR
STARTCHAR K+2464
ENCODING 9316
SWIDTH 960 0
DWIDTH 12 0
BBX 12 12 0 -2
BITMAP
0000
0000
52e0
5220
7220
5520
5520
78a0
0000
0000
0000
0000
ENDCHAR
STARTCHAR K+2465
ENCODING 9317
SWIDTH 960 0
DWIDTH 12 0
BBX 12 12 0 -2
BITMAP
0000
0000
5270
5240
7240
5540
5540
78f0
0000
0000
0000
0000
ENDCHAR
STARTCHAR K+2466
ENCODING 9318
SWIDTH 960 0
DWIDTH 12 0
BBX 12 12 0 -2
BITMAP
0000
0000
27e0
2480
3c80
2540
2540
3e20
0000
0000
0000
0000
ENDCHAR
STARTCHAR K+2467
ENCODING 9319
SWIDTH 960 0
DWIDTH 12 0
BBX 12 12 0 -2
BITMAP
0000
0000
25e0
2500
3de0
2500
2500
3de0
0000
0000
0000
0000
ENDCHAR
STARTCHAR K+2468
ENCODING 9320
SWIDTH 960 0
DWIDTH 12 0
BBX 12 12 0 -2
BITMAP
0880
0f80
0880
0f80
0200
0700
0880
0880
0700
0000
0000
0000
ENDCHAR
STARTCHAR K+2469
ENCODING 9321
SWIDTH 960 0
DWIDTH 12 0
BBX 12 12 0 -2
BITMAP
1540
1dc0
1540
1dc0
0200
0700
0880
0880
0700
0000
0000
0000
ENDCHAR
STARTCHAR K+246A
ENCODING 9322
SWIDTH 960 0
DWIDTH 12 0
BBX 12 12 0 -2
BITMAP
0000
0000
0bc0
0840
0840
1440
1440
2240
0000
0000
0000
0000
ENDCHAR
STARTCHAR K+246B
ENCODING 9323
SWIDTH 960 0
DWIDTH 12 0
BBX 12 12 0 -2
BITMAP
0000
0000
0900
0900
0900
1500
1500
23e0
0000
0000
0000
0000
ENDCHAR
STARTCHAR K+246C
ENCODING 9324
SWIDTH 960 0
DWIDTH 12 0
BBX 12 12 0 -2
BITMAP
0000
0000
09e0
0900
0900
1500
1500
23e0
0000
0000
0000
0000
ENDCHAR
STARTCHAR K+246D
ENCODING 9325
SWIDTH 960 0
DWIDTH 12 0
BBX 12 12 0 -2
BITMAP
0000
0000
0920
0920
09e0
1520
1520
23e0
0000
0000
0000
0000
ENDCHAR
STARTCHAR K+246E
ENCODING 9326
SWIDTH 960 0
DWIDTH 12 0
BBX 12 12 0 -2
BITMAP
0000
0000
23e0
2080
2080
2140
2140
3e20
0000
0000
0000
0000
ENDCHAR
STARTCHAR K+246F
ENCODING 9327
SWIDTH 960 0
DWIDTH 12 0
BBX 12 12 0 -2
BITMAP
0000
0000
0200
0200
0500
0880
1040
1fc0
0000
0000
0000
0000
ENDCHAR
STARTCHAR K+2470
ENCODING 9328
SWIDTH 960 0
DWIDTH 12 0
BBX 12 12 0 -2
BITMAP
0000
0000
1080
18c0
2520
2520
2520
18c0
0000
0000
0000
0000
ENDCHAR
STARTCHAR K+2471
ENCODING 9329
SWIDTH 960 0
DWIDTH 12 0
BBX 12 12 0 -2
BITMAP
0000
0000
0200
0f80
1040
1040
1040
0f80
0000
0000
0000
0000
ENDCHAR
STARTCHAR K+2472
ENCODING 9330
SWIDTH 960 0
DWIDTH 12 0
BBX 12 12 0 -2
BITMAP
0000
0000
1080
3880
4480
4540
4540
3a20
0000
0000
0000
0000
ENDCHAR
STARTCHAR K+2473
ENCODING 9331
SWIDTH 960 0
DWIDTH 12 0
BBX 12 12 0 -2
BITMAP
0000
0000
2080
3080
4940
4940
4a20
33e0
0000
0000
0000
0000
ENDCHAR
STARTCHAR K+2474
ENCODING 9332
SWIDTH 960 0
DWIDTH 12 0
BBX 12 12 0 -2
BITMAP
1f80
0900
0900
3fc0
0400
0f00
1080
1080
0f00
0000
0000
0000
ENDCHAR
STARTCHAR K+2475
ENCODING 9333
SWIDTH 960 0
DWIDTH 12 0
BBX 12 12 0 -2
BITMAP
0000
18c0
0000
7ff0
18c0
2520
2520
18c0
0000
0000
0000
0000
ENDCHAR
STARTCHAR K+2476
ENCODING 9334
SWIDTH 960 0
DWIDTH 12 0
BBX 12 12 0 -2
BITMAP
0000
0000
1fc0
0000
0700
0880
0880
0700
0000
0000
0000
0000
ENDCHAR
STARTCHAR K+2477
ENCODING 9335
SWIDTH 960 0
DWIDTH 12 0
BBX 12 12 0 -2
BITMAP
0040
0040
0040
0040
1240
1260
1240
7fe0
0040
0040
0040
0000
ENDCHAR
STARTCHAR K+2478
ENCODING 9336
SWIDTH 960 0
DWIDTH 12 0
BBX 12 12 0 -2
BITMAP
0020
0120
0120
0120
29e0
2920
2920
7fe0
0120
0120
0020
0000
ENDCHAR
STARTCHAR K+2479
ENCODING 9337
SWIDTH 960 0
DWIDTH 12 0
BBX 12 12 0 -2
BITMAP
0040
0040
0040
0040
1240
1240
1240
7fc0
0040
0040
0040
0000
ENDCHAR
STARTCHAR K+247A
ENCODING 9338
SWIDTH 960 0
DWIDTH 12 0
BBX 12 12 0 -2
BITMAP
0040
0040
0040
0040
7f40
1440
15c0
1440
15c0
1440
0040
0000
ENDCHAR
STARTCHAR K+247B
ENCODING 9339
SWIDTH 960 0
DWIDTH 12 0
BBX 12 12 0 -2
BITMAP
00a0
00a0
00a0
00a0
7ea0
28a0
2ba0
28a0
2ba0
28a0
00a0
0000
ENDCHAR
STARTCHAR K+247C
ENCODING 9340
SWIDTH 960 0
DWIDTH 12 0
BBX 12 12 0 -2
BITMAP
0040
0040
0040
0040
7fc0
1240
1240
1240
1240
1240
0040
0000
ENDCHAR
STARTCHAR K+247D
ENCODING 9341
SWIDTH 960 0
DWIDTH 12 0
BBX 12 12 0 -2
BITMAP
0000
0000
0000
0000
0200
0200
0000
0000
0000
0000
0000
0000
ENDCHAR
STARTCHAR K+247E
ENCODING 9342
SWIDTH 960 0
DWIDTH 12 0
BBX 12 12 0 -2
BITMAP
0040
0040
0040
0040
0040
0840
0840
0040
0040
0040
0040
0000
ENDCHAR
STARTCHAR K+2521
ENCODING 9505
SWIDTH 960 0
DWIDTH 12 0
BBX 12 12 0 -2
BITMAP
0200
0000
0000
0200
0200
0200
0200
0200
0200
0000
0000
0000
ENDCHAR
STARTCHAR K+2522
ENCODING 9506
SWIDTH 960 0
DWIDTH 12 0
BBX 12 12 0 -2
BITMAP
0900
0000
0000
0900
0900
0900
0900
0900
0900
0000
0000
0000
ENDCHAR
STARTCHAR K+2523
ENCODING 9507
SWIDTH 960 0
DWIDTH 12 0
BBX 12 12 0 -2
BITMAP
1240
0000
0000
1240
1240
1240
1240
1240
1240
0000
0000
0000
ENDCHAR
STARTCHAR K+2524
ENCODING 9508
SWIDTH 960 0
DWIDTH 12 0
BBX 12 12 0 -2
BITMAP
0800
0000
0000
0a80
0a80
0a80
0a80
0900
0900
0000
0000
0000
ENDCHAR
STARTCHAR K+2525
ENCODING 9509
SWIDTH 960 0
DWIDTH 12 0
BBX 12 12 0 -2
BITMAP
0000
0000
0000
0880
0880
0500
0500
0200
0200
0000
0000
0000
ENDCHAR
STARTCHAR K+2526
ENCODING 9510
SWIDTH 960 0
DWIDTH 12 0
BBX 12 12 0 -2
BITMAP
0080
0000
0000
2280
2280
1480
1480
0880
0880
0000
0000
0000
ENDCHAR
STARTCHAR K+2527
ENCODING 9511
SWIDTH 960 0
DWIDTH 12 0
BBX 12 12 0 -2
BITMAP
0140
0000
0000
1540
1540
1540
1540
0940
0940
0000
0000
0000
ENDCHAR
STARTCHAR K+2528
ENCODING 9512
SWIDTH 960 0
DWIDTH 12 0
BBX 12 12 0 -2
BITMAP
02a0
0000
0000
2aa0
2aa0
2aa0
2aa0
12a0
12a0
0000
0000
0000
ENDCHAR
STARTCHAR K+2529
ENCODING 9513
SWIDTH 960 0
DWIDTH 12 0
BBX 12 12 0 -2
BITMAP
2000
0000
0000
2440
2280
2100
2100
2280
2440
0000
0000
0000
ENDCHAR
STARTCHAR K+252A
ENCODING 9514
SWIDTH 960 0
DWIDTH 12 0
BBX 12 12 0 -2
BITMAP
0000
0000
0000
0880
0500
0200
0200
0500
0880
0000
0000
0000
ENDCHAR
STARTCHAR K+2530
ENCODING 9520
SWIDTH 960 0
DWIDTH 12 0
BBX 12 12 0 -2
BITMAP
0200
0200
0200
0200
0200
0200
0200
0200
0200
0000
0000
0000
ENDCHAR
STARTCHAR K+2531
ENCODING 9521
SWIDTH 960 0
DWIDTH 12 0
BBX 12 12 0 -2
BITMAP
0880
0880
0880
0880
0880
0880
0880
0880
0880
0000
0000
0000
ENDCHAR
STARTCHAR K+2532
ENCODING 9522
SWIDTH 960 0
DWIDTH 12 0
BBX 12 12 0 -2
BITMAP
1240
1240
1240
1240
1240
1240
1240
1240
1240
0000
0000
0000
ENDCHAR
STARTCHAR K+2533
ENCODING 9523
SWIDTH 960 0
DWIDTH 12 0
BBX 12 12 0 -2
BITMAP
2440
2440
2440
2280
2280
2280
2100
2100
2100
0000
0000
0000
ENDCHAR
STARTCHAR K+2534
ENCODING 9524
SWIDTH 960 0
DWIDTH 12 0
BBX 12 12 0 -2
BITMAP
0880
0880
0880
0500
0500
0500
0200
0200
0200
0000
0000
0000
ENDCHAR
STARTCHAR K+2535
ENCODING 9525
SWIDTH 960 0
DWIDTH 12 0
BBX 12 12 0 -2
BITMAP
2240
2240
2240
1440
1440
1440
0840
0840
0840
0000
0000
0000
ENDCHAR
STARTCHAR K+2536
ENCODING 9526
SWIDTH 960 0
DWIDTH 12 0
BBX 12 12 0 -2
BITMAP
22a0
22a0
22a0
14a0
14a0
14a0
08a0
08a0
08a0
0000
0000
0000
ENDCHAR
STARTCHAR K+2537
ENCODING 9527
SWIDTH 960 0
DWIDTH 12 0
BBX 12 12 0 -2
BITMAP
4540
4540
4540
2940
2940
2940
1140
1140
1140
0000
0000
0000
ENDCHAR
STARTCHAR K+2538
ENCODING 9528
SWIDTH 960 0
DWIDTH 12 0
BBX 12 12 0 -2
BITMAP
2440
2440
2280
2280
2100
2280
2280
2440
2440
0000
0000
0000
ENDCHAR
STARTCHAR K+2539
ENCODING 9529
SWIDTH 960 0
DWIDTH 12 0
BBX 12 12 0 -2
BITMAP
0880
0880
0500
0500
0200
0500
0500
0880
0880
0000
0000
0000
ENDCHAR
STARTCHAR K+2541
ENCODING 9537
SWIDTH 960 0
DWIDTH 12 0
BBX 12 12 0 -2
BITMAP
0180
0280
0280
0480
0480
0880
0f80
1080
1080
0000
0000
0000
ENDCHAR
STARTCHAR K+2542
ENCODING 9538
SWIDTH 960 0
DWIDTH 12 0
BBX 12 12 0 -2
BITMAP
0780
0440
0440
0880
0f00
0880
1080
1100
1e00
0000
0000
0000
ENDCHAR
STARTCHAR K+2543
ENCODING 9539
SWIDTH 960 0
DWIDTH 12 0
BBX 12 12 0 -2
BITMAP
07c0
0400
0400
0800
0800
0800
1000
1000
1000
0000
0000
0000
ENDCHAR
STARTCHAR K+2544
ENCODING 9540
SWIDTH 960 0
DWIDTH 12 0
BBX 12 12 0 -2
BITMAP
0180
0280
0280
0480
0880
0880
1080
2080
3f80
0000
0000
0000
ENDCHAR
STARTCHAR K+2545
ENCODING 9541
SWIDTH 960 0
DWIDTH 12 0
BBX 12 12 0 -2
BITMAP
0fc0
0800
0800
1000
1f00
1000
2000
2000
3f00
0000
0000
0000
ENDCHAR
STARTCHAR K+2546
ENCODING 9542
SWIDTH 960 0
DWIDTH 12 0
BBX 12 12 0 -2
BITMAP
0fc0
0040
0080
0100
0200
0400
0800
1000
1f80
0000
0000
0000
ENDCHAR
STARTCHAR K+2547
ENCODING 9543
SWIDTH 960 0
DWIDTH 12 0
BBX 12 12 0 -2
BITMAP
0840
0840
0840
1080
1f80
1080
2100
2100
2100
0000
0000
0000
ENDCHAR
STARTCHAR K+2548
ENCODING 9544
SWIDTH 960 0
DWIDTH 12 0
BBX 12 12 0 -2
BITMAP
0380
0440
0840
0840
1740
1080
1080
1100
0e00
0000
0000
0000
ENDCHAR
STARTCHAR K+2549
ENCODING 9545
SWIDTH 960 0
DWIDTH 12 0
BBX 12 12 0 -2
BITMAP
0100
0100
0100
0200
0200
0200
0400
0400
0400
0000
0000
0000
ENDCHAR
STARTCHAR K+254A
ENCODING 9546
SWIDTH 960 0
DWIDTH 12 0
BBX 12 12 0 -2
BITMAP
0440
0480
0500
0a00
0c00
0a00
1200
1100
1100
0000
0000
0000
ENDCHAR
STARTCHAR K+254B
ENCODING 9547
SWIDTH 960 0
DWIDTH 12 0
BBX 12 12 0 -2
BITMAP
0180
0180
0280
0280
0480
0480
0880
0880
1080
0000
0000
0000
ENDCHAR
STARTCHAR K+254C
ENCODING 9548
SWIDTH 960 0
DWIDTH 12 0
BBX 12 12 0 -2
BITMAP
0840
08c0
08c0
1540
1540
1640
2480
2080
2080
0000
0000
0000
ENDCHAR
STARTCHAR K+254D
ENCODING 9549
SWIDTH 960 0
DWIDTH 12 0
BBX 12 12 0 -2
BITMAP
0840
0840
0c40
1480
1280
1280
2100
2100
2100
0000
0000
0000
ENDCHAR
STARTCHAR K+254E
ENCODING 9550
SWIDTH 960 0
DWIDTH 12 0
BBX 12 12 0 -2
BITMAP
0fe0
0000
0000
0000
0f80
0000
0000
0000
3f80
0000
0000
0000
ENDCHAR
STARTCHAR K+254F
ENCODING 9551
SWIDTH 960 0
DWIDTH 12 0
BBX 12 12 0 -2
BITMAP
0380
0440
0840
0840
1040
1080
1080
1100
0e00
0000
0000
0000
ENDCHAR
STARTCHAR K+2550
ENCODING 9552
SWIDTH 960 0
DWIDTH 12 0
BBX 12 12 0 -2
BITMAP
0fc0
0840
0840
1080
1080
1080
2100
2100
2100
0000
0000
0000
ENDCHAR
STARTCHAR K+2551
ENCODING 9553
SWIDTH 960 0
DWIDTH 12 0
BBX 12 12 0 -2
BITMAP
0780
0440
0440
0840
0f80
0800
1000
1000
1000
0000
0000
0000
ENDCHAR
STARTCHAR K+2552
ENCODING 9554
SWIDTH 960 0
DWIDTH 12 0
BBX 12 12 0 -2
BITMAP
1fc0
0800
0400
0200
0200
0400
0800
1000
3f80
0000
0000
0000
ENDCHAR
STARTCHAR K+2553
ENCODING 9555
SWIDTH 960 0
DWIDTH 12 0
BBX 12 12 0 -2
BITMAP
1fc0
0200
0200
0400
0400
0400
0800
0800
0800
0000
0000
0000
ENDCHAR
STARTCHAR K+2554
ENCODING 9556
SWIDTH 960 0
DWIDTH 12 0
BBX 12 12 0 -2
BITMAP
18c0
2520
0600
0400
0800
0800
0800
1000
1000
0000
0000
0000
ENDCHAR
STARTCHAR K+2555
ENCODING 9557
SWIDTH 960 0
DWIDTH 12 0
BBX 12 12 0 -2
BITMAP
0100
0100
0f80
1240
2440
2480
1f00
0800
0800
0000
0000
0000
ENDCHAR
STARTCHAR K+2556
ENCODING 9558
SWIDTH 960 0
DWIDTH 12 0
BBX 12 12 0 -2
BITMAP
0820
0840
0480
0500
0200
0500
0900
1080
2080
0000
0000
0000
ENDCHAR
STARTCHAR K+2557
ENCODING 9559
SWIDTH 960 0
DWIDTH 12 0
BBX 12 12 0 -2
BITMAP
2240
52a0
1280
2480
2480
1f00
0800
0800
0800
0000
0000
0000
ENDCHAR
STARTCHAR K+2558
ENCODING 9560
SWIDTH 960 0
DWIDTH 12 0
BBX 12 12 0 -2
BITMAP
0780
0840
1040
1040
1080
0900
0a00
0a00
3b80
0000
0000
0000
ENDCHAR
STARTCHAR K+2561
ENCODING 9569
SWIDTH 960 0
DWIDTH 12 0
BBX 12 12 0 -2
BITMAP
0000
0000
0000
0c80
1280
1100
1100
1240
0d80
0000
0000
0000
ENDCHAR
STARTCHAR K+2562
ENCODING 9570
SWIDTH 960 0
DWIDTH 12 0
BBX 12 12 0 -2
BITMAP
0380
0440
0440
0480
0b00
0880
0880
1480
1300
1000
0000
0000
ENDCHAR
STARTCHAR K+2563
ENCODING 9571
SWIDTH 960 0
DWIDTH 12 0
BBX 12 12 0 -2
BITMAP
0000
0000
0000
0880
1500
0600
0400
0400
0800
0800
0000
0000
ENDCHAR
STARTCHAR K+2564
ENCODING 9572
SWIDTH 960 0
DWIDTH 12 0
BBX 12 12 0 -2
BITMAP
0300
0480
0440
0200
0500
0900
0900
0900
0600
0000
0000
0000
ENDCHAR
STARTCHAR K+2565
ENCODING 9573
SWIDTH 960 0
DWIDTH 12 0
BBX 12 12 0 -2
BITMAP
0000
0000
0000
0700
0880
0600
0800
0880
0700
0000
0000
0000
ENDCHAR
STARTCHAR K+2566
ENCODING 9574
SWIDTH 960 0
DWIDTH 12 0
BBX 12 12 0 -2
BITMAP
0200
0480
0300
0400
0800
0800
0700
0080
0080
0300
0000
0000
ENDCHAR
STARTCHAR K+2567
ENCODING 9575
SWIDTH 960 0
DWIDTH 12 0
BBX 12 12 0 -2
BITMAP
0000
0000
0000
0b80
1440
0440
0880
0880
0100
0100
0000
0000
ENDCHAR
STARTCHAR K+2568
ENCODING 9576
SWIDTH 960 0
DWIDTH 12 0
BBX 12 12 0 -2
BITMAP
0300
0480
0880
0880
1f80
1100
1100
1200
0c00
0000
0000
0000
ENDCHAR
STARTCHAR K+2569
ENCODING 9577
SWIDTH 960 0
DWIDTH 12 0
BBX 12 12 0 -2
BITMAP
0000
0000
0000
0400
0400
0800
0800
0900
0600
0000
0000
0000
ENDCHAR
STARTCHAR K+256A
ENCODING 9578
SWIDTH 960 0
DWIDTH 12 0
BBX 12 12 0 -2
BITMAP
0000
0000
0000
0480
0500
0600
0a00
0a80
0900
0000
0000
0000
ENDCHAR
STARTCHAR K+256B
ENCODING 9579
SWIDTH 960 0
DWIDTH 12 0
BBX 12 12 0 -2
BITMAP
0600
0100
0100
0100
0100
0300
0480
0880
1040
0000
0000
0000
ENDCHAR
STARTCHAR K+256C
ENCODING 9580
SWIDTH 960 0
DWIDTH 12 0
BBX 12 12 0 -2
BITMAP
0000
0000
0000
0480
0480
0900
0900
0940
1680
1000
0000
0000
ENDCHAR
STARTCHAR K+256D
ENCODING 9581
SWIDTH 960 0
DWIDTH 12 0
BBX 12 12 0 -2
BITMAP
0000
0000
0000
0880
0880
0500
0500
0600
0400
0000
0000
0000
ENDCHAR
STARTCHAR K+256E
ENCODING 9582
SWIDTH 960 0
DWIDTH 12 0
BBX 12 12 0 -2
BITMAP
0600
0800
0700
0800
0700
0800
0600
0100
0100
1e00
0000
0000
ENDCHAR
STARTCHAR K+256F
ENCODING 9583
SWIDTH 960 0
DWIDTH 12 0
BBX 12 12 0 -2
BITMAP
0000
0000
0000
0300
0480
0880
0880
0900
0600
0000
0000
0000
ENDCHAR
STARTCHAR K+2570
ENCODING 9584
SWIDTH 960 0
DWIDTH 12 0
BBX 12 12 0 -2
BITMAP
0000
0000
0000
0fe0
0280
0280
0480
04a0
0840
0000
0000
0000
ENDCHAR
STARTCHAR K+2571
ENCODING 9585
SWIDTH 960 0
DWIDTH 12 0
BBX 12 12 0 -2
BITMAP
0000
0000
0000
0300
0480
0880
0880
0c80
1300
1000
0000
0000
ENDCHAR
STARTCHAR K+2572
ENCODING 9586
SWIDTH 960 0
DWIDTH 12 0
BBX 12 12 0 -2
BITMAP
0380
0400
0800
0e00
1100
1100
1100
1200
0c00
0000
0000
0000
ENDCHAR
STARTCHAR K+2573
ENCODING 9587
SWIDTH 960 0
DWIDTH 12 0
BBX 12 12 0 -2
BITMAP
0000
0000
0000
0f80
0200
0400
0400
0500
0200
0000
0000
0000
ENDCHAR
STARTCHAR K+2574
ENCODING 9588
SWIDTH 960 0
DWIDTH 12 0
BBX 12 12 0 -2
BITMAP
0000
0000
0000
0880
0880
0900
0900
0a00
0c00
0000
0000
0000
ENDCHAR
STARTCHAR K+2575
ENCODING 9589
SWIDTH 960 0
DWIDTH 12 0
BBX 12 12 0 -2
BITMAP
0000
0000
0000
0980
1240
1440
1440
0f80
0400
0400
0000
0000
ENDCHAR
STARTCHAR K+2576
ENCODING 9590
SWIDTH 960 0
DWIDTH 12 0
BBX 12 12 0 -2
BITMAP
0000
0000
0000
1880
0500
0600
0400
0c00
1480
2300
0000
0000
ENDCHAR
STARTCHAR K+2577
ENCODING 9591
SWIDTH 960 0
DWIDTH 12 0
BBX 12 12 0 -2
BITMAP
0200
0200
0200
1480
2440
2440
2480
1f00
0800
0800
0000
0000
ENDCHAR
STARTCHAR K+2578
ENCODING 9592
SWIDTH 960 0
DWIDTH 12 0
BBX 12 12 0 -2
BITMAP
0000
0000
0000
1080
2440
2440
2440
2480
1b00
0000
0000
0000
ENDCHAR
STARTCHAR K+2621
ENCODING 9761
SWIDTH 960 0
DWIDTH 12 0
BBX 12 12 0 -2
BITMAP
0000
0000
0000
0000
fff0
0000
0000
0000
0000
0000
0000
0000
ENDCHAR
STARTCHAR K+2622
ENCODING 9762
SWIDTH 960 0
DWIDTH 12 0
BBX 12 12 0 -2
BITMAP
0200
0200
0200
0200
0200
0200
0200
0200
0200
0200
0200
0200
ENDCHAR
STARTCHAR K+2623
ENCODING 9763
SWIDTH 960 0
DWIDTH 12 0
BBX 12 12 0 -2
BITMAP
0000
0000
0000
0000
03f0
0200
0200
0200
0200
0200
0200
0000
ENDCHAR
STARTCHAR K+2624
ENCODING 9764
SWIDTH 960 0
DWIDTH 12 0
BBX 12 12 0 -2
BITMAP
0000
0000
0000
0000
fe00
0200
0200
0200
0200
0200
0200
0000
ENDCHAR
STARTCHAR K+2625
ENCODING 9765
SWIDTH 960 0
DWIDTH 12 0
BBX 12 12 0 -2
BITMAP
0200
0200
0200
0200
0200
fe00
0000
0000
0000
0000
0000
0000
ENDCHAR
STARTCHAR K+2626
ENCODING 9766
SWIDTH 960 0
DWIDTH 12 0
BBX 12 12 0 -2
BITMAP
0200
0200
0200
0200
0200
03f0
0000
0000
0000
0000
0000
0000
ENDCHAR
STARTCHAR K+2627
ENCODING 9767
SWIDTH 960 0
DWIDTH 12 0
BBX 12 12 0 -2
BITMAP
0200
0200
0200
0200
0200
03f0
0200
0200
0200
0200
0200
0200
ENDCHAR
STARTCHAR K+2628
ENCODING 9768
SWIDTH 960 0
DWIDTH 12 0
BBX 12 12 0 -2
BITMAP
0000
0000
0000
0000
fff0
0200
0200
0200
0200
0200
0200
0000
ENDCHAR
STARTCHAR K+2629
ENCODING 9769
SWIDTH 960 0
DWIDTH 12 0
BBX 12 12 0 -2
BITMAP
0200
0200
0200
0200
0200
fe00
0200
0200
0200
0200
0200
0200
ENDCHAR
STARTCHAR K+262A
ENCODING 9770
SWIDTH 960 0
DWIDTH 12 0
BBX 12 12 0 -2
BITMAP
0200
0200
0200
0200
0200
fff0
0000
0000
0000
0000
0000
0000
ENDCHAR
STARTCHAR K+262B
ENCODING 9771
SWIDTH 960 0
DWIDTH 12 0
BBX 12 12 0 -2
BITMAP
0200
0200
0200
0200
0200
fff0
0200
0200
0200
0200
0200
0200
ENDCHAR
STARTCHAR K+262C
ENCODING 9772
SWIDTH 960 0
DWIDTH 12 0
BBX 12 12 0 -2
BITMAP
0000
0000
0000
0000
fff0
fff0
0000
0000
0000
0000
0000
0000
ENDCHAR
STARTCHAR K+262D
ENCODING 9773
SWIDTH 960 0
DWIDTH 12 0
BBX 12 12 0 -2
BITMAP
0600
0600
0600
0600
0600
0600
0600
0600
0600
0600
0600
0600
ENDCHAR
STARTCHAR K+262E
ENCODING 9774
SWIDTH 960 0
DWIDTH 12 0
BBX 12 12 0 -2
BITMAP
0000
0000
0000
0000
07f0
07f0
0600
0600
0600
0600
0600
0000
ENDCHAR
STARTCHAR K+262F
ENCODING 9775
SWIDTH 960 0
DWIDTH 12 0
BBX 12 12 0 -2
BITMAP
0000
0000
0000
0000
fe00
fe00
0600
0600
0600
0600
0600
0000
ENDCHAR
STARTCHAR K+2630
ENCODING 9776
SWIDTH 960 0
DWIDTH 12 0
BBX 12 12 0 -2
BITMAP
0600
0600
0600
0600
0600
fe00
fe00
0000
0000
0000
0000
0000
ENDCHAR
STARTCHAR K+2631
ENCODING 9777
SWIDTH 960 0
DWIDTH 12 0
BBX 12 12 0 -2
BITMAP
0600
0600
0600
0600
0600
07f0
07f0
0000
0000
0000
0000
0000
ENDCHAR
STARTCHAR K+2632
ENCODING 9778
SWIDTH 960 0
DWIDTH 12 0
BBX 12 12 0 -2
BITMAP
0600
0600
0600
0600
0600
07f0
07f0
0600
0600
0600
0600
0600
ENDCHAR
STARTCHAR K+2633
ENCODING 9779
SWIDTH 960 0
DWIDTH 12 0
BBX 12 12 0 -2
BITMAP
0000
0000
0000
0000
fff0
fff0
0600
0600
0600
0600
0600
0000
ENDCHAR
STARTCHAR K+2634
ENCODING 9780
SWIDTH 960 0
DWIDTH 12 0
BBX 12 12 0 -2
BITMAP
0600
0600
0600
0600
0600
fe00
fe00
0600
0600
0600
0600
0600
ENDCHAR
STARTCHAR K+2635
ENCODING 9781
SWIDTH 960 0
DWIDTH 12 0
BBX 12 12 0 -2
BITMAP
0600
0600
0600
0600
0600
fff0
fff0
0000
0000
0000
0000
0000
ENDCHAR
STARTCHAR K+2636
ENCODING 9782
SWIDTH 960 0
DWIDTH 12 0
BBX 12 12 0 -2
BITMAP
0600
0600
0600
0600
0600
fff0
fff0
0600
0600
0600
0600
0600
ENDCHAR
STARTCHAR K+2637
ENCODING 9783
SWIDTH 960 0
DWIDTH 12 0
BBX 12 12 0 -2
BITMAP
0600
0600
0600
0600
0600
07f0
0600
0600
0600
0600
0600
0600
ENDCHAR
STARTCHAR K+2638
ENCODING 9784
SWIDTH 960 0
DWIDTH 12 0
BBX 12 12 0 -2
BITMAP
0000
0000
0000
0000
fff0
fff0
0200
0200
0200
0200
0200
0000
ENDCHAR
STARTCHAR K+2639
ENCODING 9785
SWIDTH 960 0
DWIDTH 12 0
BBX 12 12 0 -2
BITMAP
0600
0600
0600
0600
0600
fe00
0600
0600
0600
0600
0600
0600
ENDCHAR
STARTCHAR K+263A
ENCODING 9786
SWIDTH 960 0
DWIDTH 12 0
BBX 12 12 0 -2
BITMAP
0200
0200
0200
0200
0200
ffe0
ffe0
0000
0000
0000
0000
0000
ENDCHAR
STARTCHAR K+263B
ENCODING 9787
SWIDTH 960 0
DWIDTH 12 0
BBX 12 12 0 -2
BITMAP
0200
0200
0200
0200
0200
fff0
fff0
0200
0200
0200
0200
0200
ENDCHAR
STARTCHAR K+263C
ENCODING 9788
SWIDTH 960 0
DWIDTH 12 0
BBX 12 12 0 -2
BITMAP
0200
0200
0200
0200
0200
03f0
03f0
0200
0200
0200
0200
0200
ENDCHAR
STARTCHAR K+263D
ENCODING 9789
SWIDTH 960 0
DWIDTH 12 0
BBX 12 12 0 -2
BITMAP
0000
0000
0000
0000
fff0
0600
0600
0600
0600
0600
0600
0000
ENDCHAR
STARTCHAR K+263E
ENCODING 9790
SWIDTH 960 0
DWIDTH 12 0
BBX 12 12 0 -2
BITMAP
0200
0200
0200
0200
0200
fe00
fe00
0200
0200
0200
0200
0200
ENDCHAR
STARTCHAR K+263F
ENCODING 9791
SWIDTH 960 0
DWIDTH 12 0
BBX 12 12 0 -2
BITMAP
0600
0600
0600
0600
0600
fff0
0000
0000
0000
0000
0000
0000
ENDCHAR
STARTCHAR K+2640
ENCODING 9792
SWIDTH 960 0
DWIDTH 12 0
BBX 12 12 0 -2
BITMAP
0600
0600
0600
0600
0600
fff0
0600
0600
0600
0600
0600
0600
ENDCHAR
STARTCHAR K+2641
ENCODING 9793
SWIDTH 960 0
DWIDTH 12 0
BBX 12 12 0 -2
BITMAP
0000
0000
0000
0000
fe00
0600
0600
0600
0600
0600
0600
0000
ENDCHAR
STARTCHAR K+2642
ENCODING 9794
SWIDTH 960 0
DWIDTH 12 0
BBX 12 12 0 -2
BITMAP
0000
0000
0000
0000
fe00
fe00
0200
0200
0200
0200
0200
0000
ENDCHAR
STARTCHAR K+2643
ENCODING 9795
SWIDTH 960 0
DWIDTH 12 0
BBX 12 12 0 -2
BITMAP
0600
0600
0600
0600
0600
fe00
0000
0000
0000
0000
0000
0000
ENDCHAR
STARTCHAR K+2644
ENCODING 9796
SWIDTH 960 0
DWIDTH 12 0
BBX 12 12 0 -2
BITMAP
0200
0200
0200
0200
0200
fe00
fe00
0000
0000
0000
0000
0000
ENDCHAR
STARTCHAR K+2645
ENCODING 9797
SWIDTH 960 0
DWIDTH 12 0
BBX 12 12 0 -2
BITMAP
0600
0600
0600
0600
0600
07f0
0000
0000
0000
0000
0000
0000
ENDCHAR
STARTCHAR K+2646
ENCODING 9798
SWIDTH 960 0
DWIDTH 12 0
BBX 12 12 0 -2
BITMAP
0200
0200
0200
0200
0200
03f0
03f0
0000
0000
0000
0000
0000
ENDCHAR
STARTCHAR K+2647
ENCODING 9799
SWIDTH 960 0
DWIDTH 12 0
BBX 12 12 0 -2
BITMAP
0000
0000
0000
0000
07f0
0600
0600
0600
0600
0600
0600
0000
ENDCHAR
STARTCHAR K+2648
ENCODING 9800
SWIDTH 960 0
DWIDTH 12 0
BBX 12 12 0 -2
BITMAP
0000
0000
0000
0000
03f0
03f0
0200
0200
0200
0200
0200
0000
ENDCHAR
STARTCHAR K+2649
ENCODING 9801
SWIDTH 960 0
DWIDTH 12 0
BBX 12 12 0 -2
BITMAP
0600
0600
0600
0600
0600
07f0
0200
0200
0200
0200
0200
0200
ENDCHAR
STARTCHAR K+264A
ENCODING 9802
SWIDTH 960 0
DWIDTH 12 0
BBX 12 12 0 -2
BITMAP
0200
0200
0200
0200
0200
07f0
0600
0600
0600
0600
0600
0600
ENDCHAR
STARTCHAR K+264B
ENCODING 9803
SWIDTH 960 0
DWIDTH 12 0
BBX 12 12 0 -2
BITMAP
0600
0600
0600
0600
0600
07f0
07f0
0200
0200
0200
0200
0200
ENDCHAR
STARTCHAR K+264C
ENCODING 9804
SWIDTH 960 0
DWIDTH 12 0
BBX 12 12 0 -2
BITMAP
0200
0200
0200
0200
0200
07f0
07f0
0600
0600
0600
0600
0600
ENDCHAR
STARTCHAR K+264D
ENCODING 9805
SWIDTH 960 0
DWIDTH 12 0
BBX 12 12 0 -2
BITMAP
0600
0600
0600
0600
0600
fe00
0200
0200
0200
0200
0200
0200
ENDCHAR
STARTCHAR K+264E
ENCODING 9806
SWIDTH 960 0
DWIDTH 12 0
BBX 12 12 0 -2
BITMAP
0200
0200
0200
0200
0200
fe00
0600
0600
0600
0600
0600
0600
ENDCHAR
STARTCHAR K+264F
ENCODING 9807
SWIDTH 960 0
DWIDTH 12 0
BBX 12 12 0 -2
BITMAP
0600
0600
0600
0600
0600
fe00
fe00
0200
0200
0200
0200
0200
ENDCHAR
STARTCHAR K+2650
ENCODING 9808
SWIDTH 960 0
DWIDTH 12 0
BBX 12 12 0 -2
BITMAP
0200
0200
0200
0200
0200
fe00
fe00
0600
0600
0600
0600
0600
ENDCHAR
STARTCHAR K+2651
ENCODING 9809
SWIDTH 960 0
DWIDTH 12 0
BBX 12 12 0 -2
BITMAP
0000
0000
0000
0000
fff0
fe00
0200
0200
0200
0200
0200
0000
ENDCHAR
STARTCHAR K+2652
ENCODING 9810
SWIDTH 960 0
DWIDTH 12 0
BBX 12 12 0 -2
BITMAP
0000
0000
0000
0000
fff0
03f0
0200
0200
0200
0200
0200
0000
ENDCHAR
STARTCHAR K+2653
ENCODING 9811
SWIDTH 960 0
DWIDTH 12 0
BBX 12 12 0 -2
BITMAP
0000
0000
0000
0000
fff0
fe00
0600
0600
0600
0600
0600
0000
ENDCHAR
STARTCHAR K+2654
ENCODING 9812
SWIDTH 960 0
DWIDTH 12 0
BBX 12 12 0 -2
BITMAP
0000
0000
0000
0000
fff0
07f0
0600
0600
0600
0600
0600
0000
ENDCHAR
STARTCHAR K+2655
ENCODING 9813
SWIDTH 960 0
DWIDTH 12 0
BBX 12 12 0 -2
BITMAP
0200
0200
0200
0200
0200
fff0
fe00
0000
0000
0000
0000
0000
ENDCHAR
STARTCHAR K+2656
ENCODING 9814
SWIDTH 960 0
DWIDTH 12 0
BBX 12 12 0 -2
BITMAP
0200
0200
0200
0200
0200
fff0
03f0
0000
0000
0000
0000
0000
ENDCHAR
STARTCHAR K+2657
ENCODING 9815
SWIDTH 960 0
DWIDTH 12 0
BBX 12 12 0 -2
BITMAP
0600
0600
0600
0600
0600
fff0
fe00
0000
0000
0000
0000
0000
ENDCHAR
STARTCHAR K+2658
ENCODING 9816
SWIDTH 960 0
DWIDTH 12 0
BBX 12 12 0 -2
BITMAP
0600
0600
0600
0600
0600
fff0
07f0
0000
0000
0000
0000
0000
ENDCHAR
STARTCHAR K+2659
ENCODING 9817
SWIDTH 960 0
DWIDTH 12 0
BBX 12 12 0 -2
BITMAP
0200
0200
0200
0200
0200
fff0
fe00
0200
0200
0200
0200
0200
ENDCHAR
STARTCHAR K+265A
ENCODING 9818
SWIDTH 960 0
DWIDTH 12 0
BBX 12 12 0 -2
BITMAP
0200
0200
0200
0200
0200
fff0
03f0
0200
0200
0200
0200
0200
ENDCHAR
STARTCHAR K+265B
ENCODING 9819
SWIDTH 960 0
DWIDTH 12 0
BBX 12 12 0 -2
BITMAP
0600
0600
0600
0600
0600
fff0
0200
0200
0200
0200
0200
0200
ENDCHAR
STARTCHAR K+265C
ENCODING 9820
SWIDTH 960 0
DWIDTH 12 0
BBX 12 12 0 -2
BITMAP
0200
0200
0200
0200
0200
fff0
0600
0600
0600
0600
0600
0600
ENDCHAR
STARTCHAR K+265D
ENCODING 9821
SWIDTH 960 0
DWIDTH 12 0
BBX 12 12 0 -2
BITMAP
0600
0600
0600
0600
0600
fe00
fe00
0200
0200
0200
0200
0200
ENDCHAR
STARTCHAR K+265E
ENCODING 9822
SWIDTH 960 0
DWIDTH 12 0
BBX 12 12 0 -2
BITMAP
0600
0600
0600
0600
0600
fff0
07f0
0200
0200
0200
0200
0200
ENDCHAR
STARTCHAR K+265F
ENCODING 9823
SWIDTH 960 0
DWIDTH 12 0
BBX 12 12 0 -2
BITMAP
0200
0200
0200
0200
0200
fff0
fe00
0600
0600
0600
0600
0600
ENDCHAR
STARTCHAR K+2660
ENCODING 9824
SWIDTH 960 0
DWIDTH 12 0
BBX 12 12 0 -2
BITMAP
0200
0200
0200
0200
0200
fff0
07f0
0600
0600
0600
0600
0600
ENDCHAR
STARTCHAR K+2661
ENCODING 9825
SWIDTH 960 0
DWIDTH 12 0
BBX 12 12 0 -2
BITMAP
0600
0600
0600
0600
0600
fff0
fff0
0200
0200
0200
0200
0200
ENDCHAR
STARTCHAR K+2662
ENCODING 9826
SWIDTH 960 0
DWIDTH 12 0
BBX 12 12 0 -2
BITMAP
0200
0200
0200
0200
0200
fff0
fff0
0600
0600
0600
0600
0600
ENDCHAR
STARTCHAR K+2663
ENCODING 9827
SWIDTH 960 0
DWIDTH 12 0
BBX 12 12 0 -2
BITMAP
0600
0600
0600
0600
0600
fff0
fe00
0600
0600
0600
0600
0600
ENDCHAR
STARTCHAR K+2664
ENCODING 9828
SWIDTH 960 0
DWIDTH 12 0
BBX 12 12 0 -2
BITMAP
0600
0600
0600
0600
0600
fff0
07f0
0600
0600
0600
0600
0600
ENDCHAR
STARTCHAR K+2721
ENCODING 10017
SWIDTH 960 0
DWIDTH 12 0
BBX 12 12 0 -2
BITMAP
0040
00a0
00a0
12a0
12a0
24c0
2480
3ca0
4340
4000
0000
0000
ENDCHAR
STARTCHAR K+2722
ENCODING 10018
SWIDTH 960 0
DWIDTH 12 0
BBX 12 12 0 -2
BITMAP
0040
00a0
00a0
68a0
54a0
54c0
5480
54a0
5540
0000
0000
0000
ENDCHAR
STARTCHAR K+2723
ENCODING 10019
SWIDTH 960 0
DWIDTH 12 0
BBX 12 12 0 -2
BITMAP
0440
04a0
04a0
1ca0
24a0
24c0
2480
25a0
1e40
0000
0000
0000
ENDCHAR
STARTCHAR K+2724
ENCODING 10020
SWIDTH 960 0
DWIDTH 12 0
BBX 12 12 0 -2
BITMAP
0200
0500
0500
0500
0500
0600
0400
0c80
1300
0000
0000
0000
ENDCHAR
STARTCHAR K+2725
ENCODING 10021
SWIDTH 960 0
DWIDTH 12 0
BBX 12 12 0 -2
BITMAP
2040
20a0
20a0
24a0
28a0
30c0
3080
2940
2620
0000
0000
0000
ENDCHAR
STARTCHAR K+2726
ENCODING 10022
SWIDTH 960 0
DWIDTH 12 0
BBX 12 12 0 -2
BITMAP
0000
0000
0000
18c0
2520
2100
2100
2520
18c0
0000
0000
0000
ENDCHAR
STARTCHAR K+2727
ENCODING 10023
SWIDTH 960 0
DWIDTH 12 0
BBX 12 12 0 -2
BITMAP
0020
0010
0020
6a90
5560
5540
5540
5540
5540
0000
0000
0000
ENDCHAR
STARTCHAR K+2728
ENCODING 10024
SWIDTH 960 0
DWIDTH 12 0
BBX 12 12 0 -2
BITMAP
0020
0010
0020
3690
4d60
4540
4540
4d40
3540
0000
0000
0000
ENDCHAR
STARTCHAR K+2729
ENCODING 10025
SWIDTH 960 0
DWIDTH 12 0
BBX 12 12 0 -2
BITMAP
0040
0020
0040
7620
4940
4900
4900
4900
4900
0000
0000
0000
ENDCHAR
STARTCHAR K+272A
ENCODING 10026
SWIDTH 960 0
DWIDTH 12 0
BBX 12 12 0 -2
BITMAP
4020
4010
4020
4e90
5560
6540
5540
4d40
4540
0000
0000
0000
ENDCHAR
STARTCHAR K+272B
ENCODING 10027
SWIDTH 960 0
DWIDTH 12 0
BBX 12 12 0 -2
BITMAP
0800
1000
1000
3b40
12a0
12a0
12a0
12a0
12a0
0000
0000
0000
ENDCHAR
STARTCHAR K+272C
ENCODING 10028
SWIDTH 960 0
DWIDTH 12 0
BBX 12 12 0 -2
BITMAP
0000
0000
0000
7340
4aa0
4aa0
4aa0
4aa0
4aa0
0000
0000
0000
ENDCHAR
STARTCHAR K+272D
ENCODING 10029
SWIDTH 960 0
DWIDTH 12 0
BBX 12 12 0 -2
BITMAP
0000
0000
0000
15a0
1550
2950
2950
3550
4150
4000
0000
0000
ENDCHAR
STARTCHAR K+272E
ENCODING 10030
SWIDTH 960 0
DWIDTH 12 0
BBX 12 12 0 -2
BITMAP
0000
0000
0000
69a0
5550
5550
5550
5550
5550
0000
0000
0000
ENDCHAR
STARTCHAR K+272F
ENCODING 10031
SWIDTH 960 0
DWIDTH 12 0
BBX 12 12 0 -2
BITMAP
0000
0000
0000
3340
4aa0
42a0
42a0
4aa0
32a0
0000
0000
0000
ENDCHAR
STARTCHAR K+2730
ENCODING 10032
SWIDTH 960 0
DWIDTH 12 0
BBX 12 12 0 -2
BITMAP
4000
4000
4000
4b40
52a0
62a0
62a0
52a0
4aa0
0000
0000
0000
ENDCHAR
STARTCHAR K+2731
ENCODING 10033
SWIDTH 960 0
DWIDTH 12 0
BBX 12 12 0 -2
BITMAP
0020
0010
0010
6aa0
5570
5540
5540
5540
5540
0000
0000
0000
ENDCHAR
STARTCHAR K+2732
ENCODING 10034
SWIDTH 960 0
DWIDTH 12 0
BBX 12 12 0 -2
BITMAP
0020
0050
0010
36a0
4d70
4540
4540
4d40
3540
0000
0000
0000
ENDCHAR
STARTCHAR K+2733
ENCODING 10035
SWIDTH 960 0
DWIDTH 12 0
BBX 12 12 0 -2
BITMAP
0020
0050
0010
3b20
24b0
2480
2480
2480
2480
0000
0000
0000
ENDCHAR
STARTCHAR K+2734
ENCODING 10036
SWIDTH 960 0
DWIDTH 12 0
BBX 12 12 0 -2
BITMAP
4020
4050
4010
4ea0
5570
6540
6540
5540
4d40
0000
0000
0000
ENDCHAR
STARTCHAR K+2735
ENCODING 10037
SWIDTH 960 0
DWIDTH 12 0
BBX 12 12 0 -2
BITMAP
2000
2000
2000
38c0
2520
24e0
2520
2520
24d0
0000
0000
0000
ENDCHAR
STARTCHAR K+2736
ENCODING 10038
SWIDTH 960 0
DWIDTH 12 0
BBX 12 12 0 -2
BITMAP
0000
0000
0000
14e0
1520
2920
2920
34e0
4120
40c0
0000
0000
ENDCHAR
STARTCHAR K+2737
ENCODING 10039
SWIDTH 960 0
DWIDTH 12 0
BBX 12 12 0 -2
BITMAP
0000
0000
0000
68e0
5520
5520
5520
54e0
5520
00c0
0000
0000
ENDCHAR
STARTCHAR K+2738
ENCODING 10040
SWIDTH 960 0
DWIDTH 12 0
BBX 12 12 0 -2
BITMAP
2000
2000
2000
24e0
2920
3120
3120
28e0
2520
00c0
0000
0000
ENDCHAR
STARTCHAR K+2739
ENCODING 10041
SWIDTH 960 0
DWIDTH 12 0
BBX 12 12 0 -2
BITMAP
2080
2080
2080
25c0
2880
3080
3080
28a0
2440
0000
0000
0000
ENDCHAR
STARTCHAR K+273A
ENCODING 10042
SWIDTH 960 0
DWIDTH 12 0
BBX 12 12 0 -2
BITMAP
0010
0010
0010
3310
4c90
4390
4490
4c90
3350
0000
0000
0000
ENDCHAR
STARTCHAR K+273B
ENCODING 10043
SWIDTH 960 0
DWIDTH 12 0
BBX 12 12 0 -2
BITMAP
4010
4010
4010
5690
6950
68d0
6950
5950
56b0
0000
0000
0000
ENDCHAR
STARTCHAR K+273C
ENCODING 10044
SWIDTH 960 0
DWIDTH 12 0
BBX 12 12 0 -2
BITMAP
05c0
0520
0520
1d20
25c0
2520
2520
2520
1dc0
0000
0000
0000
ENDCHAR
STARTCHAR K+273D
ENCODING 10045
SWIDTH 960 0
DWIDTH 12 0
BBX 12 12 0 -2
BITMAP
0080
0080
0080
68e0
5590
5540
5520
5590
5560
0000
0000
0000
ENDCHAR
STARTCHAR K+273E
ENCODING 10046
SWIDTH 960 0
DWIDTH 12 0
BBX 12 12 0 -2
BITMAP
0120
0150
0210
6ae0
5730
5480
5440
5520
54c0
0000
0000
0000
ENDCHAR
STARTCHAR K+273F
ENCODING 10047
SWIDTH 960 0
DWIDTH 12 0
BBX 12 12 0 -2
BITMAP
0000
0000
0000
38c0
2520
2480
2440
3920
20c0
2000
0000
0000
ENDCHAR
STARTCHAR K+2740
ENCODING 10048
SWIDTH 960 0
DWIDTH 12 0
BBX 12 12 0 -2
BITMAP
0000
0000
0000
38c0
2520
2480
2440
2520
24c0
0000
0000
0000
ENDCHAR
STARTCHAR K+2741
ENCODING 10049
SWIDTH 960 0
DWIDTH 12 0
BBX 12 12 0 -2
BITMAP
0000
0000
0000
1260
1290
2440
2420
3a90
4060
4000
0000
0000
ENDCHAR
STARTCHAR K+2742
ENCODING 10050
SWIDTH 960 0
DWIDTH 12 0
BBX 12 12 0 -2
BITMAP
0000
0000
0000
68c0
5520
5480
5440
5520
54c0
0000
0000
0000
ENDCHAR
STARTCHAR K+2743
ENCODING 10051
SWIDTH 960 0
DWIDTH 12 0
BBX 12 12 0 -2
BITMAP
0220
0220
0220
3940
2540
2540
2480
3880
2080
2000
0000
0000
ENDCHAR
STARTCHAR K+2744
ENCODING 10052
SWIDTH 960 0
DWIDTH 12 0
BBX 12 12 0 -2
BITMAP
0220
0220
0220
7140
4940
4940
4880
4880
4880
0000
0000
0000
ENDCHAR
STARTCHAR K+2745
ENCODING 10053
SWIDTH 960 0
DWIDTH 12 0
BBX 12 12 0 -2
BITMAP
0110
0110
0110
12a0
12a0
24a0
2440
3a40
4040
4000
0000
0000
ENDCHAR
STARTCHAR K+2746
ENCODING 10054
SWIDTH 960 0
DWIDTH 12 0
BBX 12 12 0 -2
BITMAP
0220
0220
0220
6940
5540
5540
5480
5480
5480
0000
0000
0000
ENDCHAR
STARTCHAR K+2747
ENCODING 10055
SWIDTH 960 0
DWIDTH 12 0
BBX 12 12 0 -2
BITMAP
4220
4220
4220
4940
5140
6140
6080
5080
4880
0000
0000
0000
ENDCHAR
STARTCHAR K+2748
ENCODING 10056
SWIDTH 960 0
DWIDTH 12 0
BBX 12 12 0 -2
BITMAP
4510
4510
6d10
6ca0
54a0
54a0
5440
4440
4440
0000
0000
0000
ENDCHAR
STARTCHAR K+2749
ENCODING 10057
SWIDTH 960 0
DWIDTH 12 0
BBX 12 12 0 -2
BITMAP
0080
0080
0080
7140
4940
4940
4be0
7220
4220
4000
0000
0000
ENDCHAR
STARTCHAR K+274A
ENCODING 10058
SWIDTH 960 0
DWIDTH 12 0
BBX 12 12 0 -2
BITMAP
0080
0080
0080
7140
4940
49c0
4a20
4a20
4a20
0000
0000
0000
ENDCHAR
STARTCHAR K+274B
ENCODING 10059
SWIDTH 960 0
DWIDTH 12 0
BBX 12 12 0 -2
BITMAP
0040
0040
0040
12a0
12a0
24a0
25e0
3b10
4110
4000
0000
0000
ENDCHAR
STARTCHAR K+274C
ENCODING 10060
SWIDTH 960 0
DWIDTH 12 0
BBX 12 12 0 -2
BITMAP
0040
0040
0040
68a0
54a0
54a0
55f0
5510
5510
0000
0000
0000
ENDCHAR
STARTCHAR K+274D
ENCODING 10061
SWIDTH 960 0
DWIDTH 12 0
BBX 12 12 0 -2
BITMAP
2040
2040
2040
24a0
28a0
30a0
31f0
2910
2510
0000
0000
0000
ENDCHAR
STARTCHAR K+274E
ENCODING 10062
SWIDTH 960 0
DWIDTH 12 0
BBX 12 12 0 -2
BITMAP
02a0
02a0
02a0
72a0
4aa0
4aa0
4940
7140
4140
4000
0000
0000
ENDCHAR
STARTCHAR K+274F
ENCODING 10063
SWIDTH 960 0
DWIDTH 12 0
BBX 12 12 0 -2
BITMAP
02a0
02a0
02a0
72a0
4aa0
4aa0
4940
4940
4940
0000
0000
0000
ENDCHAR
STARTCHAR K+2750
ENCODING 10064
SWIDTH 960 0
DWIDTH 12 0
BBX 12 12 0 -2
BITMAP
0150
0150
0150
1550
1550
2950
28a0
34a0
40a0
4000
0000
0000
ENDCHAR
STARTCHAR K+2751
ENCODING 10065
SWIDTH 960 0
DWIDTH 12 0
BBX 12 12 0 -2
BITMAP
0150
0150
0150
6950
5550
5550
54a0
54a0
54a0
0000
0000
0000
ENDCHAR
STARTCHAR K+2752
ENCODING 10066
SWIDTH 960 0
DWIDTH 12 0
BBX 12 12 0 -2
BITMAP
42a0
42a0
42a0
4aa0
52a0
62a0
6140
5140
4940
0000
0000
0000
ENDCHAR
STARTCHAR K+2753
ENCODING 10067
SWIDTH 960 0
DWIDTH 12 0
BBX 12 12 0 -2
BITMAP
4550
4550
6d50
6d50
5550
5550
54a0
44a0
44a0
0000
0000
0000
ENDCHAR
STARTCHAR K+2754
ENCODING 10068
SWIDTH 960 0
DWIDTH 12 0
BBX 12 12 0 -2
BITMAP
2400
2400
2400
25e0
3c20
2440
2480
2500
25e0
0000
0000
0000
ENDCHAR
STARTCHAR K+2755
ENCODING 10069
SWIDTH 960 0
DWIDTH 12 0
BBX 12 12 0 -2
BITMAP
4500
4500
4500
5570
5710
6520
6520
5540
5570
0000
0000
0000
ENDCHAR
STARTCHAR K+2756
ENCODING 10070
SWIDTH 960 0
DWIDTH 12 0
BBX 12 12 0 -2
BITMAP
4480
4480
6c80
6cf0
5790
54a0
54a0
54c0
44f0
0000
0000
0000
ENDCHAR
STARTCHAR K+2757
ENCODING 10071
SWIDTH 960 0
DWIDTH 12 0
BBX 12 12 0 -2
BITMAP
3280
4a80
4a80
42f0
5b90
4aa0
4aa0
4ac0
3af0
0000
0000
0000
ENDCHAR
STARTCHAR K+2758
ENCODING 10072
SWIDTH 960 0
DWIDTH 12 0
BBX 12 12 0 -2
BITMAP
7e80
1280
1280
12f0
1390
12a0
12a0
12c0
12f0
0000
0000
0000
ENDCHAR
STARTCHAR K+2759
ENCODING 10073
SWIDTH 960 0
DWIDTH 12 0
BBX 12 12 0 -2
BITMAP
0700
0880
1040
1040
0880
0500
0500
1540
1dc0
0000
0000
0000
ENDCHAR
STARTCHAR K+275A
ENCODING 10074
SWIDTH 960 0
DWIDTH 12 0
BBX 12 12 0 -2
BITMAP
41c0
4220
4220
4a20
5220
6140
6140
5140
4b60
0000
0000
0000
ENDCHAR
STARTCHAR K+275B
ENCODING 10075
SWIDTH 960 0
DWIDTH 12 0
BBX 12 12 0 -2
BITMAP
44e0
4510
6d10
6d10
5510
54a0
54a0
44a0
45b0
0000
0000
0000
ENDCHAR
STARTCHAR K+275C
ENCODING 10076
SWIDTH 960 0
DWIDTH 12 0
BBX 12 12 0 -2
BITMAP
03e0
0200
0200
7200
4bc0
4a00
4a00
7200
4200
4000
0000
0000
ENDCHAR
STARTCHAR K+275D
ENCODING 10077
SWIDTH 960 0
DWIDTH 12 0
BBX 12 12 0 -2
BITMAP
03e0
0200
0200
7200
4bc0
4a00
4a00
4a00
4a00
0000
0000
0000
ENDCHAR
STARTCHAR K+275E
ENCODING 10078
SWIDTH 960 0
DWIDTH 12 0
BBX 12 12 0 -2
BITMAP
00f0
0080
0080
1280
12e0
2480
2480
3a80
4080
4000
0000
0000
ENDCHAR
STARTCHAR K+275F
ENCODING 10079
SWIDTH 960 0
DWIDTH 12 0
BBX 12 12 0 -2
BITMAP
0020
0020
0020
6b20
54a0
54a0
54a0
54a0
5720
0000
0000
0000
ENDCHAR
STARTCHAR K+2760
ENCODING 10080
SWIDTH 960 0
DWIDTH 12 0
BBX 12 12 0 -2
BITMAP
0040
0040
0040
31c0
4a40
4240
4240
4a40
31c0
0000
0000
0000
ENDCHAR
STARTCHAR K+2761
ENCODING 10081
SWIDTH 960 0
DWIDTH 12 0
BBX 12 12 0 -2
BITMAP
0010
0010
0010
5630
6950
4750
4950
4950
46b0
0000
0000
0000
ENDCHAR
STARTCHAR K+2762
ENCODING 10082
SWIDTH 960 0
DWIDTH 12 0
BBX 12 12 0 -2
BITMAP
5840
64c0
4d40
5540
4ec0
0060
0780
7860
00c0
0020
00c0
0000
ENDCHAR
STARTCHAR K+2763
ENCODING 10083
SWIDTH 960 0
DWIDTH 12 0
BBX 12 12 0 -2
BITMAP
5840
64c0
4d40
5570
4ec0
0320
1c10
61a0
0330
0080
0300
0000
ENDCHAR
STARTCHAR K+2764
ENCODING 10084
SWIDTH 960 0
DWIDTH 12 0
BBX 12 12 0 -2
BITMAP
0000
0000
0000
1cb0
22c0
1880
0480
2280
1c80
0000
0000
0000
ENDCHAR
STARTCHAR K+2765
ENCODING 10085
SWIDTH 960 0
DWIDTH 12 0
BBX 12 12 0 -2
BITMAP
3800
2400
2400
24c0
2520
38e0
2120
2120
20d0
0000
0000
0000
ENDCHAR
STARTCHAR K+2766
ENCODING 10086
SWIDTH 960 0
DWIDTH 12 0
BBX 12 12 0 -2
BITMAP
4600
4500
4500
55c0
5520
6660
64a0
54a0
5460
0000
0000
0000
ENDCHAR
STARTCHAR K+2767
ENCODING 10087
SWIDTH 960 0
DWIDTH 12 0
BBX 12 12 0 -2
BITMAP
4580
4540
6d40
6d60
5550
55b0
5550
4550
4530
0000
0000
0000
ENDCHAR
STARTCHAR K+2768
ENCODING 10088
SWIDTH 960 0
DWIDTH 12 0
BBX 12 12 0 -2
BITMAP
3300
4a80
4a80
42e0
5a90
4b30
4a50
4a50
3a30
0000
0000
0000
ENDCHAR
STARTCHAR K+2769
ENCODING 10089
SWIDTH 960 0
DWIDTH 12 0
BBX 12 12 0 -2
BITMAP
5500
5500
5500
55c0
5520
5520
2920
2920
29c0
0000
0000
0000
ENDCHAR
STARTCHAR K+276A
ENCODING 10090
SWIDTH 960 0
DWIDTH 12 0
BBX 12 12 0 -2
BITMAP
2000
2000
2000
2680
2540
2540
2540
2540
2540
0000
0000
0000
ENDCHAR
STARTCHAR K+276B
ENCODING 10091
SWIDTH 960 0
DWIDTH 12 0
BBX 12 12 0 -2
BITMAP
1000
1000
1000
1440
1280
1100
1100
1280
1440
0000
0000
0000
ENDCHAR
STARTCHAR K+276C
ENCODING 10092
SWIDTH 960 0
DWIDTH 12 0
BBX 12 12 0 -2
BITMAP
3800
2400
2400
24e0
3920
2520
2520
24e0
3820
0020
0000
0000
ENDCHAR
STARTCHAR K+276D
ENCODING 10093
SWIDTH 960 0
DWIDTH 12 0
BBX 12 12 0 -2
BITMAP
3000
4800
4800
4220
5a20
4940
4940
4880
3080
0300
0000
0000
ENDCHAR
STARTCHAR K+276E
ENCODING 10094
SWIDTH 960 0
DWIDTH 12 0
BBX 12 12 0 -2
BITMAP
3000
4800
4800
2220
1220
0940
4940
4880
3080
0000
0000
0000
ENDCHAR
STARTCHAR K+276F
ENCODING 10095
SWIDTH 960 0
DWIDTH 12 0
BBX 12 12 0 -2
BITMAP
2400
5600
5600
4a00
4aa0
5ad0
2b50
1350
12b0
12d0
0020
0000
ENDCHAR
STARTCHAR K+2821
ENCODING 10273
SWIDTH 960 0
DWIDTH 12 0
BBX 12 12 0 -2
BITMAP
03c0
0600
0600
0a00
0b80
1200
1e00
2200
23c0
0000
0000
0000
ENDCHAR
STARTCHAR K+2822
ENCODING 10274
SWIDTH 960 0
DWIDTH 12 0
BBX 12 12 0 -2
BITMAP
0f00
0880
0840
3e40
0840
0840
0840
0880
0f00
0000
0000
0000
ENDCHAR
STARTCHAR K+2823
ENCODING 10275
SWIDTH 960 0
DWIDTH 12 0
BBX 12 12 0 -2
BITMAP
0000
0600
0900
0700
0900
0680
0000
0f80
0000
0000
0000
0000
ENDCHAR
STARTCHAR K+2824
ENCODING 10276
SWIDTH 960 0
DWIDTH 12 0
BBX 12 12 0 -2
BITMAP
1080
7fe0
1080
1080
1f80
1080
1080
1080
1080
0000
0000
0000
ENDCHAR
STARTCHAR K+2826
ENCODING 10278
SWIDTH 960 0
DWIDTH 12 0
BBX 12 12 0 -2
BITMAP
1040
1040
1040
1040
1040
1040
1240
1240
1180
0000
0000
0000
ENDCHAR
STARTCHAR K+2828
ENCODING 10280
SWIDTH 960 0
DWIDTH 12 0
BBX 12 12 0 -2
BITMAP
0800
0800
0800
0880
0880
0800
0800
0800
0f80
0000
0000
0000
ENDCHAR
STARTCHAR K+2829
ENCODING 10281
SWIDTH 960 0
DWIDTH 12 0
BBX 12 12 0 -2
BITMAP
0800
0980
0e00
1800
6800
0800
0800
0800
0f80
0000
0000
0000
ENDCHAR
STARTCHAR K+282A
ENCODING 10282
SWIDTH 960 0
DWIDTH 12 0
BBX 12 12 0 -2
BITMAP
0620
0940
1080
1180
1280
1480
1880
1900
2600
0000
0000
0000
ENDCHAR
STARTCHAR K+282B
ENCODING 10283
SWIDTH 960 0
DWIDTH 12 0
BBX 12 12 0 -2
BITMAP
1fe0
2400
4200
4200
43c0
4200
4200
2400
1fe0
0000
0000
0000
ENDCHAR
STARTCHAR K+282C
ENCODING 10284
SWIDTH 960 0
DWIDTH 12 0
BBX 12 12 0 -2
BITMAP
0000
0700
0880
0880
0880
0700
0000
0f80
0000
0000
0000
0000
ENDCHAR
STARTCHAR K+282D
ENCODING 10285
SWIDTH 960 0
DWIDTH 12 0
BBX 12 12 0 -2
BITMAP
1c00
0800
0f00
0880
0880
0880
0f00
0800
0800
0000
0000
0000
ENDCHAR
STARTCHAR K+282E
ENCODING 10286
SWIDTH 960 0
DWIDTH 12 0
BBX 12 12 0 -2
BITMAP
1fc0
0200
0200
0200
0f80
0200
0200
0200
0200
0000
0000
0000
ENDCHAR
STARTCHAR K+282F
ENCODING 10287
SWIDTH 960 0
DWIDTH 12 0
BBX 12 12 0 -2
BITMAP
1880
1880
1480
1480
1280
1280
1180
1180
0080
0900
0600
0000
ENDCHAR
STARTCHAR K+2831
ENCODING 10289
SWIDTH 960 0
DWIDTH 12 0
BBX 12 12 0 -2
BITMAP
0f80
1040
2020
4f90
4090
4090
4090
4090
2020
1040
0f80
0000
ENDCHAR
STARTCHAR K+2832
ENCODING 10290
SWIDTH 960 0
DWIDTH 12 0
BBX 12 12 0 -2
BITMAP
0f80
1040
2020
4810
4810
4810
4810
4f90
2020
1040
0f80
0000
ENDCHAR
STARTCHAR K+2833
ENCODING 10291
SWIDTH 960 0
DWIDTH 12 0
BBX 12 12 0 -2
BITMAP
0f80
1040
2020
4f90
4810
4810
4810
4f90
2020
1040
0f80
0000
ENDCHAR
STARTCHAR K+2834
ENCODING 10292
SWIDTH 960 0
DWIDTH 12 0
BBX 12 12 0 -2
BITMAP
0f80
1040
2020
4f90
4090
4f90
4810
4f90
2020
1040
0f80
0000
ENDCHAR
STARTCHAR K+2835
ENCODING 10293
SWIDTH 960 0
DWIDTH 12 0
BBX 12 12 0 -2
BITMAP
0f80
1040
2020
4f90
4890
4890
4890
4f90
2020
1040
0f80
0000
ENDCHAR
STARTCHAR K+2836
ENCODING 10294
SWIDTH 960 0
DWIDTH 12 0
BBX 12 12 0 -2
BITMAP
0f80
1040
2020
4890
4890
4f90
4890
4f90
2020
1040
0f80
0000
ENDCHAR
STARTCHAR K+2837
ENCODING 10295
SWIDTH 960 0
DWIDTH 12 0
BBX 12 12 0 -2
BITMAP
0f80
1040
2020
4210
4210
4210
4510
4890
2020
1040
0f80
0000
ENDCHAR
STARTCHAR K+2838
ENCODING 10296
SWIDTH 960 0
DWIDTH 12 0
BBX 12 12 0 -2
BITMAP
0f80
1040
2020
4710
4890
4890
4890
4710
2020
1040
0f80
0000
ENDCHAR
STARTCHAR K+2839
ENCODING 10297
SWIDTH 960 0
DWIDTH 12 0
BBX 12 12 0 -2
BITMAP
0f80
1040
2020
4f90
4210
4210
4510
4890
2020
1040
0f80
0000
ENDCHAR
STARTCHAR K+283A
ENCODING 10298
SWIDTH 960 0
DWIDTH 12 0
BBX 12 12 0 -2
BITMAP
0f80
1040
2720
4010
4f90
4210
4510
4890
2020
1040
0f80
0000
ENDCHAR
STARTCHAR K+283B
ENCODING 10299
SWIDTH 960 0
DWIDTH 12 0
BBX 12 12 0 -2
BITMAP
0f80
1040
2020
4f90
4090
4f90
4090
4090
2020
1040
0f80
0000
ENDCHAR
STARTCHAR K+283C
ENCODING 10300
SWIDTH 960 0
DWIDTH 12 0
BBX 12 12 0 -2
BITMAP
0f80
1040
2020
4f90
4810
4f90
4810
4f90
2020
1040
0f80
0000
ENDCHAR
STARTCHAR K+283D
ENCODING 10301
SWIDTH 960 0
DWIDTH 12 0
BBX 12 12 0 -2
BITMAP
0f80
1040
2020
4f90
4510
4510
4510
4f90
2020
1040
0f80
0000
ENDCHAR
STARTCHAR K+283E
ENCODING 10302
SWIDTH 960 0
DWIDTH 12 0
BBX 12 12 0 -2
BITMAP
0f80
1040
2720
4010
5fd0
4510
4890
4890
2720
1040
0f80
0000
ENDCHAR
STARTCHAR K+283F
ENCODING 10303
SWIDTH 960 0
DWIDTH 12 0
BBX 12 12 0 -2
BITMAP
0f80
1040
2ea0
4290
4290
42d0
4490
4890
20a0
1040
0f80
0000
ENDCHAR
STARTCHAR K+2840
ENCODING 10304
SWIDTH 960 0
DWIDTH 12 0
BBX 12 12 0 -2
BITMAP
0f80
1040
28a0
4890
4890
48d0
4890
4e90
20a0
1040
0f80
0000
ENDCHAR
STARTCHAR K+2841
ENCODING 10305
SWIDTH 960 0
DWIDTH 12 0
BBX 12 12 0 -2
BITMAP
0f80
1040
2ea0
4890
4890
48d0
4890
4e90
20a0
1040
0f80
0000
ENDCHAR
STARTCHAR K+2842
ENCODING 10306
SWIDTH 960 0
DWIDTH 12 0
BBX 12 12 0 -2
BITMAP
0f80
1040
2ea0
4290
4e90
48d0
4890
4e90
20a0
1040
0f80
0000
ENDCHAR
STARTCHAR K+2843
ENCODING 10307
SWIDTH 960 0
DWIDTH 12 0
BBX 12 12 0 -2
BITMAP
0f80
1040
2ea0
4a90
4a90
4ad0
4a90
4e90
20a0
1040
0f80
0000
ENDCHAR
STARTCHAR K+2844
ENCODING 10308
SWIDTH 960 0
DWIDTH 12 0
BBX 12 12 0 -2
BITMAP
0f80
1040
2aa0
4a90
4e90
4ad0
4a90
4e90
20a0
1040
0f80
0000
ENDCHAR
STARTCHAR K+2845
ENCODING 10309
SWIDTH 960 0
DWIDTH 12 0
BBX 12 12 0 -2
BITMAP
0f80
1040
24a0
4490
4490
4ad0
4a90
5190
20a0
1040
0f80
0000
ENDCHAR
STARTCHAR K+2846
ENCODING 10310
SWIDTH 960 0
DWIDTH 12 0
BBX 12 12 0 -2
BITMAP
0f80
1040
24a0
4a90
4a90
4ad0
4a90
4490
20a0
1040
0f80
0000
ENDCHAR
STARTCHAR K+2847
ENCODING 10311
SWIDTH 960 0
DWIDTH 12 0
BBX 12 12 0 -2
BITMAP
0f80
1040
2ea0
4490
4490
4ad0
4a90
5190
20a0
1040
0f80
0000
ENDCHAR
STARTCHAR K+2848
ENCODING 10312
SWIDTH 960 0
DWIDTH 12 0
BBX 12 12 0 -2
BITMAP
0f80
1040
2ca0
4090
5e90
44d0
4c90
5290
20a0
1040
0f80
0000
ENDCHAR
STARTCHAR K+2849
ENCODING 10313
SWIDTH 960 0
DWIDTH 12 0
BBX 12 12 0 -2
BITMAP
0f80
1040
2ea0
4290
4e90
42d0
4490
4890
20a0
1040
0f80
0000
ENDCHAR
STARTCHAR K+284A
ENCODING 10314
SWIDTH 960 0
DWIDTH 12 0
BBX 12 12 0 -2
BITMAP
0f80
1040
2ea0
4890
4e90
48d0
4890
4e90
20a0
1040
0f80
0000
ENDCHAR
STARTCHAR K+284B
ENCODING 10315
SWIDTH 960 0
DWIDTH 12 0
BBX 12 12 0 -2
BITMAP
0f80
1040
20a0
5f90
4a90
4ad0
4a90
5f90
20a0
1040
0f80
0000
ENDCHAR
STARTCHAR K+284C
ENCODING 10316
SWIDTH 960 0
DWIDTH 12 0
BBX 12 12 0 -2
BITMAP
0f80
1040
2ca0
4090
5e90
4cd0
5290
4c90
20a0
1040
0f80
0000
ENDCHAR
STARTCHAR K+284D
ENCODING 10317
SWIDTH 960 0
DWIDTH 12 0
BBX 12 12 0 -2
BITMAP
0f80
1040
2020
4610
4910
4710
4910
4690
2020
1040
0f80
0000
ENDCHAR
STARTCHAR K+284E
ENCODING 10318
SWIDTH 960 0
DWIDTH 12 0
BBX 12 12 0 -2
BITMAP
0f80
1040
2420
4410
4710
4490
4490
4710
2020
1040
0f80
0000
ENDCHAR
STARTCHAR K+284F
ENCODING 10319
SWIDTH 960 0
DWIDTH 12 0
BBX 12 12 0 -2
BITMAP
0f80
1040
2020
4610
4910
4810
4910
4610
2020
1040
0f80
0000
ENDCHAR
STARTCHAR K+2850
ENCODING 10320
SWIDTH 960 0
DWIDTH 12 0
BBX 12 12 0 -2
BITMAP
0f80
1040
2120
4110
4710
4910
4910
4710
2020
1040
0f80
0000
ENDCHAR
STARTCHAR K+2851
ENCODING 10321
SWIDTH 960 0
DWIDTH 12 0
BBX 12 12 0 -2
BITMAP
0f80
1040
2020
4610
4910
4f10
4810
4710
2020
1040
0f80
0000
ENDCHAR
STARTCHAR K+2852
ENCODING 10322
SWIDTH 960 0
DWIDTH 12 0
BBX 12 12 0 -2
BITMAP
0f80
1040
2320
4410
4f10
4410
4410
4410
2020
1040
0f80
0000
ENDCHAR
STARTCHAR K+2853
ENCODING 10323
SWIDTH 960 0
DWIDTH 12 0
BBX 12 12 0 -2
BITMAP
0f80
1040
2020
4710
4910
4910
4710
4110
2e20
1040
0f80
0000
ENDCHAR
STARTCHAR K+2854
ENCODING 10324
SWIDTH 960 0
DWIDTH 12 0
BBX 12 12 0 -2
BITMAP
0f80
1040
2420
4410
4710
4490
4490
4490
2020
1040
0f80
0000
ENDCHAR
STARTCHAR K+2855
ENCODING 10325
SWIDTH 960 0
DWIDTH 12 0
BBX 12 12 0 -2
BITMAP
0f80
1040
2220
4010
4210
4210
4210
4210
2020
1040
0f80
0000
ENDCHAR
STARTCHAR K+2856
ENCODING 10326
SWIDTH 960 0
DWIDTH 12 0
BBX 12 12 0 -2
BITMAP
0f80
1040
2220
4010
4210
4210
4210
4a10
2420
1040
0f80
0000
ENDCHAR
STARTCHAR K+2857
ENCODING 10327
SWIDTH 960 0
DWIDTH 12 0
BBX 12 12 0 -2
BITMAP
0f80
1040
2420
4410
4510
4610
4510
4490
2020
1040
0f80
0000
ENDCHAR
STARTCHAR K+2858
ENCODING 10328
SWIDTH 960 0
DWIDTH 12 0
BBX 12 12 0 -2
BITMAP
0f80
1040
2220
4210
4210
4210
4210
4210
2020
1040
0f80
0000
ENDCHAR
STARTCHAR K+2859
ENCODING 10329
SWIDTH 960 0
DWIDTH 12 0
BBX 12 12 0 -2
BITMAP
0f80
1040
2020
4d10
4a90
4a90
4a90
4a90
2020
1040
0f80
0000
ENDCHAR
STARTCHAR K+285A
ENCODING 10330
SWIDTH 960 0
DWIDTH 12 0
BBX 12 12 0 -2
BITMAP
0f80
1040
2020
4710
4490
4490
4490
4490
2020
1040
0f80
0000
ENDCHAR
STARTCHAR K+285B
ENCODING 10331
SWIDTH 960 0
DWIDTH 12 0
BBX 12 12 0 -2
BITMAP
0f80
1040
2020
4710
4890
4890
4890
4710
2020
1040
0f80
0000
ENDCHAR
STARTCHAR K+285C
ENCODING 10332
SWIDTH 960 0
DWIDTH 12 0
BBX 12 12 0 -2
BITMAP
0f80
1040
2020
4710
4490
4490
4710
4410
2420
1040
0f80
0000
ENDCHAR
STARTCHAR K+285D
ENCODING 10333
SWIDTH 960 0
DWIDTH 12 0
BBX 12 12 0 -2
BITMAP
0f80
1040
2020
4710
4910
4910
4710
4110
2120
1040
0f80
0000
ENDCHAR
STARTCHAR K+285E
ENCODING 10334
SWIDTH 960 0
DWIDTH 12 0
BBX 12 12 0 -2
BITMAP
0f80
1040
2020
4510
4610
4410
4410
4410
2020
1040
0f80
0000
ENDCHAR
STARTCHAR K+285F
ENCODING 10335
SWIDTH 960 0
DWIDTH 12 0
BBX 12 12 0 -2
BITMAP
0f80
1040
2020
4710
4810
4610
4110
4e10
2020
1040
0f80
0000
ENDCHAR
STARTCHAR K+2860
ENCODING 10336
SWIDTH 960 0
DWIDTH 12 0
BBX 12 12 0 -2
BITMAP
0f80
1040
2420
4410
4f10
4410
4410
4310
2020
1040
0f80
0000
ENDCHAR
STARTCHAR K+2861
ENCODING 10337
SWIDTH 960 0
DWIDTH 12 0
BBX 12 12 0 -2
BITMAP
0f80
1040
2020
4910
4910
4910
4910
4710
2020
1040
0f80
0000
ENDCHAR
STARTCHAR K+2862
ENCODING 10338
SWIDTH 960 0
DWIDTH 12 0
BBX 12 12 0 -2
BITMAP
0f80
1040
2020
4890
4890
4510
4510
4210
2020
1040
0f80
0000
ENDCHAR
STARTCHAR K+2863
ENCODING 10339
SWIDTH 960 0
DWIDTH 12 0
BBX 12 12 0 -2
BITMAP
0f80
1040
2020
4a90
4a90
4a90
4510
4510
2020
1040
0f80
0000
ENDCHAR
STARTCHAR K+2864
ENCODING 10340
SWIDTH 960 0
DWIDTH 12 0
BBX 12 12 0 -2
BITMAP
0f80
1040
2020
4890
4510
4210
4510
4890
2020
1040
0f80
0000
ENDCHAR
STARTCHAR K+2865
ENCODING 10341
SWIDTH 960 0
DWIDTH 12 0
BBX 12 12 0 -2
BITMAP
0f80
1040
2020
4890
4510
4210
4210
4210
2020
1040
0f80
0000
ENDCHAR
STARTCHAR K+2866
ENCODING 10342
SWIDTH 960 0
DWIDTH 12 0
BBX 12 12 0 -2
BITMAP
0f80
1040
2020
4f90
4110
4210
4410
4f90
2020
1040
0f80
0000
ENDCHAR
STARTCHAR K+2867
ENCODING 10343
SWIDTH 960 0
DWIDTH 12 0
BBX 12 12 0 -2
BITMAP
0f80
1040
2220
4610
4210
4210
4210
4210
2220
1040
0f80
0000
ENDCHAR
STARTCHAR K+2868
ENCODING 10344
SWIDTH 960 0
DWIDTH 12 0
BBX 12 12 0 -2
BITMAP
0f80
1040
2620
4910
4110
4210
4410
4810
2f20
1040
0f80
0000
ENDCHAR
STARTCHAR K+2869
ENCODING 10345
SWIDTH 960 0
DWIDTH 12 0
BBX 12 12 0 -2
BITMAP
0f80
1040
2620
4910
4110
4610
4110
4910
2620
1040
0f80
0000
ENDCHAR
STARTCHAR K+286A
ENCODING 10346
SWIDTH 960 0
DWIDTH 12 0
BBX 12 12 0 -2
BITMAP
0f80
1040
2120
4310
4510
4910
4f90
4110
2120
1040
0f80
0000
ENDCHAR
STARTCHAR K+286B
ENCODING 10347
SWIDTH 960 0
DWIDTH 12 0
BBX 12 12 0 -2
BITMAP
0f80
1040
2f20
4810
4e10
4910
4110
4910
2620
1040
0f80
0000
ENDCHAR
STARTCHAR K+286C
ENCODING 10348
SWIDTH 960 0
DWIDTH 12 0
BBX 12 12 0 -2
BITMAP
0f80
1040
2620
4910
4810
4e10
4910
4910
2620
1040
0f80
0000
ENDCHAR
STARTCHAR K+286D
ENCODING 10349
SWIDTH 960 0
DWIDTH 12 0
BBX 12 12 0 -2
BITMAP
0f80
1040
2f20
4110
4210
4210
4410
4410
2420
1040
0f80
0000
ENDCHAR
STARTCHAR K+286E
ENCODING 10350
SWIDTH 960 0
DWIDTH 12 0
BBX 12 12 0 -2
BITMAP
0f80
1040
2620
4910
4910
4610
4910
4910
2620
1040
0f80
0000
ENDCHAR
STARTCHAR K+286F
ENCODING 10351
SWIDTH 960 0
DWIDTH 12 0
BBX 12 12 0 -2
BITMAP
0f80
1040
2620
4910
4910
4710
4110
4910
2620
1040
0f80
0000
ENDCHAR
STARTCHAR K+2870
ENCODING 10352
SWIDTH 960 0
DWIDTH 12 0
BBX 12 12 0 -2
BITMAP
0f80
1040
29a0
5a50
4a50
4a50
4a50
4a50
29a0
1040
0f80
0000
ENDCHAR
STARTCHAR K+2871
ENCODING 10353
SWIDTH 960 0
DWIDTH 12 0
BBX 12 12 0 -2
BITMAP
0f80
1040
24a0
4d90
4490
4490
4490
4490
24a0
1040
0f80
0000
ENDCHAR
STARTCHAR K+2872
ENCODING 10354
SWIDTH 960 0
DWIDTH 12 0
BBX 12 12 0 -2
BITMAP
0f80
1040
29a0
5a50
4850
4890
4910
4a10
2be0
1040
0f80
0000
ENDCHAR
STARTCHAR K+2873
ENCODING 10355
SWIDTH 960 0
DWIDTH 12 0
BBX 12 12 0 -2
BITMAP
0f80
1040
29a0
5a50
4850
4990
4850
4a50
29a0
1040
0f80
0000
ENDCHAR
STARTCHAR K+2874
ENCODING 10356
SWIDTH 960 0
DWIDTH 12 0
BBX 12 12 0 -2
BITMAP
0f80
1040
29a0
5990
4a90
4a90
4bd0
4890
28a0
1040
0f80
0000
ENDCHAR
STARTCHAR K+2875
ENCODING 10357
SWIDTH 960 0
DWIDTH 12 0
BBX 12 12 0 -2
BITMAP
0f80
1040
2be0
5a10
4b90
4a50
4850
4a50
29a0
1040
0f80
0000
ENDCHAR
STARTCHAR K+2876
ENCODING 10358
SWIDTH 960 0
DWIDTH 12 0
BBX 12 12 0 -2
BITMAP
1000
3020
1040
1080
1100
12c0
0520
0820
1040
2080
41e0
0000
ENDCHAR
STARTCHAR K+2877
ENCODING 10359
SWIDTH 960 0
DWIDTH 12 0
BBX 12 12 0 -2
BITMAP
1000
3020
1040
1080
1100
12c0
0520
0840
1020
2120
40c0
0000
ENDCHAR
STARTCHAR K+2878
ENCODING 10360
SWIDTH 960 0
DWIDTH 12 0
BBX 12 12 0 -2
BITMAP
3000
4820
0840
1080
2100
7ac0
0520
0840
1020
2120
40c0
0000
ENDCHAR
STARTCHAR K+2879
ENCODING 10361
SWIDTH 960 0
DWIDTH 12 0
BBX 12 12 0 -2
BITMAP
1000
3020
1040
1080
1100
1240
04c0
08c0
1140
21e0
4040
0000
ENDCHAR
STARTCHAR K+287A
ENCODING 10362
SWIDTH 960 0
DWIDTH 12 0
BBX 12 12 0 -2
BITMAP
3000
4820
1040
0880
4900
3240
04c0
08c0
1140
21e0
4040
0000
ENDCHAR
STARTCHAR K+287B
ENCODING 10363
SWIDTH 960 0
DWIDTH 12 0
BBX 12 12 0 -2
BITMAP
1000
3020
1040
1080
1100
12c0
0520
08c0
1120
2120
40c0
0000
ENDCHAR
STARTCHAR K+287C
ENCODING 10364
SWIDTH 960 0
DWIDTH 12 0
BBX 12 12 0 -2
BITMAP
3000
4820
1040
0880
4900
32c0
0520
08c0
1120
2120
40c0
0000
ENDCHAR
STARTCHAR K+287D
ENCODING 10365
SWIDTH 960 0
DWIDTH 12 0
BBX 12 12 0 -2
BITMAP
7800
4020
7040
0880
4900
32c0
0520
08c0
1120
2120
40c0
0000
ENDCHAR
STARTCHAR K+287E
ENCODING 10366
SWIDTH 960 0
DWIDTH 12 0
BBX 12 12 0 -2
BITMAP
3c00
0420
0840
0880
1100
12c0
0520
08c0
1120
2120
40c0
0000
ENDCHAR
STARTCHAR K+2921
ENCODING 10529
SWIDTH 960 0
DWIDTH 12 0
BBX 12 12 0 -2
BITMAP
0000
0000
0000
0d80
1240
0fc0
1200
1240
0d80
0000
0000
0000
ENDCHAR
STARTCHAR K+2922
ENCODING 10530
SWIDTH 960 0
DWIDTH 12 0
BBX 12 12 0 -2
BITMAP
0100
0100
0fc0
0100
0f00
1100
1100
1100
0f00
0000
0000
0000
ENDCHAR
STARTCHAR K+2923
ENCODING 10531
SWIDTH 960 0
DWIDTH 12 0
BBX 12 12 0 -2
BITMAP
0e00
11c0
0700
1900
0100
1f00
1100
1100
0e00
0000
0000
0000
ENDCHAR
STARTCHAR K+2924
ENCODING 10532
SWIDTH 960 0
DWIDTH 12 0
BBX 12 12 0 -2
BITMAP
0800
3f00
0800
0800
0f00
0880
0880
0880
0880
0000
0000
0000
ENDCHAR
STARTCHAR K+2925
ENCODING 10533
SWIDTH 960 0
DWIDTH 12 0
BBX 12 12 0 -2
BITMAP
0000
0000
0000
0200
0200
0200
0200
0200
0200
0000
0000
0000
ENDCHAR
STARTCHAR K+2926
ENCODING 10534
SWIDTH 960 0
DWIDTH 12 0
BBX 12 12 0 -2
BITMAP
0880
0000
0000
0880
0880
0880
0880
0880
0880
0300
0000
0000
ENDCHAR
STARTCHAR K+2927
ENCODING 10535
SWIDTH 960 0
DWIDTH 12 0
BBX 12 12 0 -2
BITMAP
0800
0800
0880
0900
0a00
0c00
0a00
0900
0880
0000
0000
0000
ENDCHAR
STARTCHAR K+2928
ENCODING 10536
SWIDTH 960 0
DWIDTH 12 0
BBX 12 12 0 -2
BITMAP
0800
0800
0800
0880
0880
0800
0800
0800
0800
0000
0000
0000
ENDCHAR
STARTCHAR K+2929
ENCODING 10537
SWIDTH 960 0
DWIDTH 12 0
BBX 12 12 0 -2
BITMAP
0280
0280
0300
0300
0200
0200
0600
0600
0a00
0000
0000
0000
ENDCHAR
STARTCHAR K+292A
ENCODING 10538
SWIDTH 960 0
DWIDTH 12 0
BBX 12 12 0 -2
BITMAP
0100
0100
0700
0a80
0a80
0a80
0700
0400
0400
0000
0000
0000
ENDCHAR
STARTCHAR K+292B
ENCODING 10539
SWIDTH 960 0
DWIDTH 12 0
BBX 12 12 0 -2
BITMAP
0000
0000
0000
0d80
1240
13c0
1200
1240
0d80
0000
0000
0000
ENDCHAR
STARTCHAR K+292C
ENCODING 10540
SWIDTH 960 0
DWIDTH 12 0
BBX 12 12 0 -2
BITMAP
0600
0900
0900
0a00
0900
0880
0880
0c80
0b00
0000
0000
0000
ENDCHAR
STARTCHAR K+292D
ENCODING 10541
SWIDTH 960 0
DWIDTH 12 0
BBX 12 12 0 -2
BITMAP
0000
0000
0400
0700
0480
0480
0480
0700
0400
0400
0000
0000
ENDCHAR
STARTCHAR K+292E
ENCODING 10542
SWIDTH 960 0
DWIDTH 12 0
BBX 12 12 0 -2
BITMAP
0400
0700
1c00
0400
1f00
0400
0400
0500
0200
0000
0000
0000
ENDCHAR
STARTCHAR K+292F
ENCODING 10543
SWIDTH 960 0
DWIDTH 12 0
BBX 12 12 0 -2
BITMAP
0000
0000
0000
0b00
0c80
0880
0880
0080
0080
0700
0000
0000
ENDCHAR
STARTCHAR K+2930
ENCODING 10544
SWIDTH 960 0
DWIDTH 12 0
BBX 12 12 0 -2
BITMAP
0000
2000
2000
4e00
0900
0900
0900
0900
0900
0000
0000
0000
ENDCHAR
STARTCHAR K+2931
ENCODING 10545
SWIDTH 960 0
DWIDTH 12 0
BBX 12 12 0 -2
BITMAP
1040
2020
2020
4f90
4090
4090
4090
4090
2020
2020
1040
0000
ENDCHAR
STARTCHAR K+2932
ENCODING 10546
SWIDTH 960 0
DWIDTH 12 0
BBX 12 12 0 -2
BITMAP
1040
2020
2020
4810
4810
4810
4810
4f90
2020
2020
1040
0000
ENDCHAR
STARTCHAR K+2933
ENCODING 10547
SWIDTH 960 0
DWIDTH 12 0
BBX 12 12 0 -2
BITMAP
1040
2020
2020
4f90
4810
4810
4810
4f90
2020
2020
1040
0000
ENDCHAR
STARTCHAR K+2934
ENCODING 10548
SWIDTH 960 0
DWIDTH 12 0
BBX 12 12 0 -2
BITMAP
1040
2020
2020
4f90
4090
4f90
4810
4f90
2020
2020
1040
0000
ENDCHAR
STARTCHAR K+2935
ENCODING 10549
SWIDTH 960 0
DWIDTH 12 0
BBX 12 12 0 -2
BITMAP
1040
2020
2020
4f90
4890
4890
4890
4f90
2020
2020
1040
0000
ENDCHAR
STARTCHAR K+2936
ENCODING 10550
SWIDTH 960 0
DWIDTH 12 0
BBX 12 12 0 -2
BITMAP
1040
2020
2020
4890
4890
4f90
4890
4f90
2020
2020
1040
0000
ENDCHAR
STARTCHAR K+2937
ENCODING 10551
SWIDTH 960 0
DWIDTH 12 0
BBX 12 12 0 -2
BITMAP
1040
2020
2020
4210
4210
4210
4510
4890
2020
2020
1040
0000
ENDCHAR
STARTCHAR K+2938
ENCODING 10552
SWIDTH 960 0
DWIDTH 12 0
BBX 12 12 0 -2
BITMAP
1040
2020
2020
4710
4890
4890
4890
4710
2020
2020
1040
0000
ENDCHAR
STARTCHAR K+2939
ENCODING 10553
SWIDTH 960 0
DWIDTH 12 0
BBX 12 12 0 -2
BITMAP
1040
2020
2020
4f90
4210
4210
4510
4890
2020
2020
1040
0000
ENDCHAR
STARTCHAR K+293A
ENCODING 10554
SWIDTH 960 0
DWIDTH 12 0
BBX 12 12 0 -2
BITMAP
1040
2020
2720
4010
4f90
4210
4510
4890
2020
2020
1040
0000
ENDCHAR
STARTCHAR K+293B
ENCODING 10555
SWIDTH 960 0
DWIDTH 12 0
BBX 12 12 0 -2
BITMAP
1040
2020
2020
4f90
4090
4f90
4090
4090
2020
2020
1040
0000
ENDCHAR
STARTCHAR K+293C
ENCODING 10556
SWIDTH 960 0
DWIDTH 12 0
BBX 12 12 0 -2
BITMAP
1040
2020
2020
4f90
4810
4f90
4810
4f90
2020
2020
1040
0000
ENDCHAR
STARTCHAR K+293D
ENCODING 10557
SWIDTH 960 0
DWIDTH 12 0
BBX 12 12 0 -2
BITMAP
1040
2020
2020
4f90
4510
4510
4510
4f90
2020
2020
1040
0000
ENDCHAR
STARTCHAR K+293E
ENCODING 10558
SWIDTH 960 0
DWIDTH 12 0
BBX 12 12 0 -2
BITMAP
1040
2020
2720
4010
5fd0
4510
4890
4890
2720
2020
1040
0000
ENDCHAR
STARTCHAR K+293F
ENCODING 10559
SWIDTH 960 0
DWIDTH 12 0
BBX 12 12 0 -2
BITMAP
1040
2020
2ea0
4290
4290
42d0
4490
4890
20a0
2020
1040
0000
ENDCHAR
STARTCHAR K+2940
ENCODING 10560
SWIDTH 960 0
DWIDTH 12 0
BBX 12 12 0 -2
BITMAP
1040
2020
28a0
4890
4890
48d0
4890
4e90
20a0
2020
1040
0000
ENDCHAR
STARTCHAR K+2941
ENCODING 10561
SWIDTH 960 0
DWIDTH 12 0
BBX 12 12 0 -2
BITMAP
1040
2020
2ea0
4890
4890
48d0
4890
4e90
20a0
2020
1040
0000
ENDCHAR
STARTCHAR K+2942
ENCODING 10562
SWIDTH 960 0
DWIDTH 12 0
BBX 12 12 0 -2
BITMAP
1040
2020
2ea0
4290
4e90
48d0
4890
4e90
20a0
2020
1040
0000
ENDCHAR
STARTCHAR K+2943
ENCODING 10563
SWIDTH 960 0
DWIDTH 12 0
BBX 12 12 0 -2
BITMAP
1040
2020
2ea0
4a90
4a90
4ad0
4a90
4e90
20a0
2020
1040
0000
ENDCHAR
STARTCHAR K+2944
ENCODING 10564
SWIDTH 960 0
DWIDTH 12 0
BBX 12 12 0 -2
BITMAP
1040
2020
2aa0
4a90
4e90
4ad0
4a90
4e90
20a0
2020
1040
0000
ENDCHAR
STARTCHAR K+2945
ENCODING 10565
SWIDTH 960 0
DWIDTH 12 0
BBX 12 12 0 -2
BITMAP
1040
2020
24a0
4490
4490
4ad0
4a90
5190
20a0
2020
1040
0000
ENDCHAR
STARTCHAR K+2946
ENCODING 10566
SWIDTH 960 0
DWIDTH 12 0
BBX 12 12 0 -2
BITMAP
1040
2020
24a0
4a90
4a90
4ad0
4a90
4490
20a0
2020
1040
0000
ENDCHAR
STARTCHAR K+2947
ENCODING 10567
SWIDTH 960 0
DWIDTH 12 0
BBX 12 12 0 -2
BITMAP
1040
2020
2ea0
4490
4490
4ad0
4a90
5190
20a0
2020
1040
0000
ENDCHAR
STARTCHAR K+2948
ENCODING 10568
SWIDTH 960 0
DWIDTH 12 0
BBX 12 12 0 -2
BITMAP
1040
2020
2ca0
4090
5e90
44d0
4c90
5290
20a0
2020
1040
0000
ENDCHAR
STARTCHAR K+2949
ENCODING 10569
SWIDTH 960 0
DWIDTH 12 0
BBX 12 12 0 -2
BITMAP
1040
2020
2ea0
4290
4e90
42d0
4490
4890
20a0
2020
1040
0000
ENDCHAR
STARTCHAR K+294A
ENCODING 10570
SWIDTH 960 0
DWIDTH 12 0
BBX 12 12 0 -2
BITMAP
1040
2020
3ea0
5090
5e90
50d0
5090
5e90
20a0
2020
1040
0000
ENDCHAR
STARTCHAR K+294B
ENCODING 10571
SWIDTH 960 0
DWIDTH 12 0
BBX 12 12 0 -2
BITMAP
1040
2020
20a0
5f90
4a90
4ad0
4a90
5f90
20a0
2020
1040
0000
ENDCHAR
STARTCHAR K+294C
ENCODING 10572
SWIDTH 960 0
DWIDTH 12 0
BBX 12 12 0 -2
BITMAP
1040
2020
2ca0
4090
5e90
4cd0
5290
4c90
20a0
2020
1040
0000
ENDCHAR
STARTCHAR K+294D
ENCODING 10573
SWIDTH 960 0
DWIDTH 12 0
BBX 12 12 0 -2
BITMAP
1040
2020
2020
4610
4910
4710
4910
4690
2020
2020
1040
0000
ENDCHAR
STARTCHAR K+294E
ENCODING 10574
SWIDTH 960 0
DWIDTH 12 0
BBX 12 12 0 -2
BITMAP
1040
2020
2420
4410
4710
4490
4490
4710
2020
2020
1040
0000
ENDCHAR
STARTCHAR K+294F
ENCODING 10575
SWIDTH 960 0
DWIDTH 12 0
BBX 12 12 0 -2
BITMAP
1040
2020
2020
4610
4910
4810
4910
4610
2020
2020
1040
0000
ENDCHAR
STARTCHAR K+2950
ENCODING 10576
SWIDTH 960 0
DWIDTH 12 0
BBX 12 12 0 -2
BITMAP
1040
2020
2120
4110
4710
4910
4910
4710
2020
2020
1040
0000
ENDCHAR
STARTCHAR K+2951
ENCODING 10577
SWIDTH 960 0
DWIDTH 12 0
BBX 12 12 0 -2
BITMAP
1040
2020
2020
4610
4910
4f10
4810
4710
2020
2020
1040
0000
ENDCHAR
STARTCHAR K+2952
ENCODING 10578
SWIDTH 960 0
DWIDTH 12 0
BBX 12 12 0 -2
BITMAP
1040
2020
2320
4410
4f10
4410
4410
4410
2020
2020
1040
0000
ENDCHAR
STARTCHAR K+2953
ENCODING 10579
SWIDTH 960 0
DWIDTH 12 0
BBX 12 12 0 -2
BITMAP
1040
2020
2020
4710
4910
4910
4710
4110
2e20
2020
1040
0000
ENDCHAR
STARTCHAR K+2954
ENCODING 10580
SWIDTH 960 0
DWIDTH 12 0
BBX 12 12 0 -2
BITMAP
1040
2020
2420
4410
4710
4490
4490
4490
2020
2020
1040
0000
ENDCHAR
STARTCHAR K+2955
ENCODING 10581
SWIDTH 960 0
DWIDTH 12 0
BBX 12 12 0 -2
BITMAP
1040
2020
2220
4010
4210
4210
4210
4210
2020
2020
1040
0000
ENDCHAR
STARTCHAR K+2956
ENCODING 10582
SWIDTH 960 0
DWIDTH 12 0
BBX 12 12 0 -2
BITMAP
1040
2020
2220
4010
4210
4210
4210
4a10
2420
2020
1040
0000
ENDCHAR
STARTCHAR K+2957
ENCODING 10583
SWIDTH 960 0
DWIDTH 12 0
BBX 12 12 0 -2
BITMAP
1040
2020
2420
4410
4510
4610
4510
4490
2020
2020
1040
0000
ENDCHAR
STARTCHAR K+2958
ENCODING 10584
SWIDTH 960 0
DWIDTH 12 0
BBX 12 12 0 -2
BITMAP
1040
2020
2220
4210
4210
4210
4210
4210
2020
2020
1040
0000
ENDCHAR
STARTCHAR K+2959
ENCODING 10585
SWIDTH 960 0
DWIDTH 12 0
BBX 12 12 0 -2
BITMAP
1040
2020
2020
4d10
4a90
4a90
4a90
4a90
2020
2020
1040
0000
ENDCHAR
STARTCHAR K+295A
ENCODING 10586
SWIDTH 960 0
DWIDTH 12 0
BBX 12 12 0 -2
BITMAP
1040
2020
2020
4710
4490
4490
4490
4490
2020
2020
1040
0000
ENDCHAR
STARTCHAR K+295B
ENCODING 10587
SWIDTH 960 0
DWIDTH 12 0
BBX 12 12 0 -2
BITMAP
1040
2020
2020
4710
4890
4890
4890
4710
2020
2020
1040
0000
ENDCHAR
STARTCHAR K+295C
ENCODING 10588
SWIDTH 960 0
DWIDTH 12 0
BBX 12 12 0 -2
BITMAP
1040
2020
2020
4710
4490
4490
4710
4410
2420
2020
1040
0000
ENDCHAR
STARTCHAR K+295D
ENCODING 10589
SWIDTH 960 0
DWIDTH 12 0
BBX 12 12 0 -2
BITMAP
1040
2020
2020
4710
4910
4910
4710
4110
2120
2020
1040
0000
ENDCHAR
STARTCHAR K+295E
ENCODING 10590
SWIDTH 960 0
DWIDTH 12 0
BBX 12 12 0 -2
BITMAP
1040
2020
2020
4510
4610
4410
4410
4410
2020
2020
1040
0000
ENDCHAR
STARTCHAR K+295F
ENCODING 10591
SWIDTH 960 0
DWIDTH 12 0
BBX 12 12 0 -2
BITMAP
1040
2020
2020
4710
4810
4610
4110
4e10
2020
2020
1040
0000
ENDCHAR
STARTCHAR K+2960
ENCODING 10592
SWIDTH 960 0
DWIDTH 12 0
BBX 12 12 0 -2
BITMAP
1040
2020
2420
4410
4f10
4410
4410
4310
2020
2020
1040
0000
ENDCHAR
STARTCHAR K+2961
ENCODING 10593
SWIDTH 960 0
DWIDTH 12 0
BBX 12 12 0 -2
BITMAP
1040
2020
2020
4910
4910
4910
4910
4710
2020
2020
1040
0000
ENDCHAR
STARTCHAR K+2962
ENCODING 10594
SWIDTH 960 0
DWIDTH 12 0
BBX 12 12 0 -2
BITMAP
1040
2020
2020
4890
4890
4510
4510
4210
2020
2020
1040
0000
ENDCHAR
STARTCHAR K+2963
ENCODING 10595
SWIDTH 960 0
DWIDTH 12 0
BBX 12 12 0 -2
BITMAP
1040
2020
2020
4a90
4a90
4a90
4510
4510
2020
2020
1040
0000
ENDCHAR
STARTCHAR K+2964
ENCODING 10596
SWIDTH 960 0
DWIDTH 12 0
BBX 12 12 0 -2
BITMAP
1040
2020
2020
4890
4510
4210
4510
4890
2020
2020
1040
0000
ENDCHAR
STARTCHAR K+2965
ENCODING 10597
SWIDTH 960 0
DWIDTH 12 0
BBX 12 12 0 -2
BITMAP
1040
2020
2020
4890
4510
4210
4210
4210
2020
2020
1040
0000
ENDCHAR
STARTCHAR K+2966
ENCODING 10598
SWIDTH 960 0
DWIDTH 12 0
BBX 12 12 0 -2
BITMAP
1040
2020
2020
4f90
4110
4210
4410
4f90
2020
2020
1040
0000
ENDCHAR
STARTCHAR K+2967
ENCODING 10599
SWIDTH 960 0
DWIDTH 12 0
BBX 12 12 0 -2
BITMAP
1040
2020
2220
4610
4210
4210
4210
4210
2220
2020
1040
0000
ENDCHAR
STARTCHAR K+2968
ENCODING 10600
SWIDTH 960 0
DWIDTH 12 0
BBX 12 12 0 -2
BITMAP
1040
2020
2620
4910
4110
4210
4410
4810
2f20
2020
1040
0000
ENDCHAR
STARTCHAR K+2969
ENCODING 10601
SWIDTH 960 0
DWIDTH 12 0
BBX 12 12 0 -2
BITMAP
1040
2020
2620
4910
4110
4610
4110
4910
2620
2020
1040
0000
ENDCHAR
STARTCHAR K+296A
ENCODING 10602
SWIDTH 960 0
DWIDTH 12 0
BBX 12 12 0 -2
BITMAP
1040
2020
2120
4310
4510
4910
4f90
4110
2120
2020
1040
0000
ENDCHAR
STARTCHAR K+296B
ENCODING 10603
SWIDTH 960 0
DWIDTH 12 0
BBX 12 12 0 -2
BITMAP
1040
2020
2f20
4810
4e10
4910
4110
4910
2620
2020
1040
0000
ENDCHAR
STARTCHAR K+296C
ENCODING 10604
SWIDTH 960 0
DWIDTH 12 0
BBX 12 12 0 -2
BITMAP
1040
2020
2620
4910
4810
4e10
4910
4910
2620
2020
1040
0000
ENDCHAR
STARTCHAR K+296D
ENCODING 10605
SWIDTH 960 0
DWIDTH 12 0
BBX 12 12 0 -2
BITMAP
1040
2020
2f20
4110
4210
4210
4410
4410
2420
2020
1040
0000
ENDCHAR
STARTCHAR K+296E
ENCODING 10606
SWIDTH 960 0
DWIDTH 12 0
BBX 12 12 0 -2
BITMAP
1040
2020
2630
4910
4910
4610
4910
4900
2620
2020
1040
0000
ENDCHAR
STARTCHAR K+296F
ENCODING 10607
SWIDTH 960 0
DWIDTH 12 0
BBX 12 12 0 -2
BITMAP
1040
2020
2620
4910
4910
4710
4110
4910
2620
2020
1040
0000
ENDCHAR
STARTCHAR K+2970
ENCODING 10608
SWIDTH 960 0
DWIDTH 12 0
BBX 12 12 0 -2
BITMAP
1040
2020
29a0
5a50
4a50
4a50
4a50
4a50
29a0
2020
1040
0000
ENDCHAR
STARTCHAR K+2971
ENCODING 10609
SWIDTH 960 0
DWIDTH 12 0
BBX 12 12 0 -2
BITMAP
1040
2020
24a0
4d90
4490
4490
4490
4490
24a0
2020
1040
0000
ENDCHAR
STARTCHAR K+2972
ENCODING 10610
SWIDTH 960 0
DWIDTH 12 0
BBX 12 12 0 -2
BITMAP
1040
2020
29a0
5a50
4a50
4890
4910
4a10
2be0
2020
1040
0000
ENDCHAR
STARTCHAR K+2973
ENCODING 10611
SWIDTH 960 0
DWIDTH 12 0
BBX 12 12 0 -2
BITMAP
1040
2020
29a0
5a50
4850
4990
4850
4a50
29a0
2020
1040
0000
ENDCHAR
STARTCHAR K+2974
ENCODING 10612
SWIDTH 960 0
DWIDTH 12 0
BBX 12 12 0 -2
BITMAP
1040
2020
29a0
5990
4a90
4a90
4bd0
4890
28a0
2020
1040
0000
ENDCHAR
STARTCHAR K+2975
ENCODING 10613
SWIDTH 960 0
DWIDTH 12 0
BBX 12 12 0 -2
BITMAP
1040
2020
2be0
5a10
4b90
4850
4850
4a50
29a0
2020
1040
0000
ENDCHAR
STARTCHAR K+2976
ENCODING 10614
SWIDTH 960 0
DWIDTH 12 0
BBX 12 12 0 -2
BITMAP
1000
3000
1000
1000
1000
1000
0000
0000
0000
0000
0000
0000
ENDCHAR
STARTCHAR K+2977
ENCODING 10615
SWIDTH 960 0
DWIDTH 12 0
BBX 12 12 0 -2
BITMAP
3000
4800
0800
1000
2000
7800
0000
0000
0000
0000
0000
0000
ENDCHAR
STARTCHAR K+2978
ENCODING 10616
SWIDTH 960 0
DWIDTH 12 0
BBX 12 12 0 -2
BITMAP
3000
4800
1000
0800
4800
3000
0000
0000
0000
0000
0000
0000
ENDCHAR
STARTCHAR K+2979
ENCODING 10617
SWIDTH 960 0
DWIDTH 12 0
BBX 12 12 0 -2
BITMAP
3000
3000
5000
5000
7800
1000
0000
0000
0000
0000
0000
0000
ENDCHAR
STARTCHAR K+297A
ENCODING 10618
SWIDTH 960 0
DWIDTH 12 0
BBX 12 12 0 -2
BITMAP
7000
4800
4800
4800
4800
0000
0000
0000
0000
0000
0000
0000
ENDCHAR
STARTCHAR K+297B
ENCODING 10619
SWIDTH 960 0
DWIDTH 12 0
BBX 12 12 0 -2
BITMAP
0000
0000
0000
0000
1000
3000
1000
1000
1000
1000
0000
0000
ENDCHAR
STARTCHAR K+297C
ENCODING 10620
SWIDTH 960 0
DWIDTH 12 0
BBX 12 12 0 -2
BITMAP
0000
0000
0000
0000
3000
4800
0800
1000
2000
7800
0000
0000
ENDCHAR
STARTCHAR K+297D
ENCODING 10621
SWIDTH 960 0
DWIDTH 12 0
BBX 12 12 0 -2
BITMAP
0000
0000
0000
0000
3000
4800
1000
0800
4800
3000
0000
0000
ENDCHAR
STARTCHAR K+297E
ENCODING 10622
SWIDTH 960 0
DWIDTH 12 0
BBX 12 12 0 -2
BITMAP
0000
0000
0000
0000
3000
3000
5000
5000
7800
1000
0000
0000
ENDCHAR
STARTCHAR K+2A21
ENCODING 10785
SWIDTH 960 0
DWIDTH 12 0
BBX 12 12 0 -2
BITMAP
0000
0400
0700
1c00
0580
0e40
1440
1440
0880
0000
0000
0000
ENDCHAR
STARTCHAR K+2A22
ENCODING 10786
SWIDTH 960 0
DWIDTH 12 0
BBX 12 12 0 -2
BITMAP
0400
0700
1c00
0480
0fc0
1520
2620
2420
18c0
0000
0000
0000
ENDCHAR
STARTCHAR K+2A23
ENCODING 10787
SWIDTH 960 0
DWIDTH 12 0
BBX 12 12 0 -2
BITMAP
0000
0000
0000
0000
1080
1040
1040
0a00
0400
0000
0000
0000
ENDCHAR
STARTCHAR K+2A24
ENCODING 10788
SWIDTH 960 0
DWIDTH 12 0
BBX 12 12 0 -2
BITMAP
1000
1000
1100
1080
1040
1040
1000
0a00
0400
0000
0000
0000
ENDCHAR
STARTCHAR K+2A25
ENCODING 10789
SWIDTH 960 0
DWIDTH 12 0
BBX 12 12 0 -2
BITMAP
0000
0000
0600
0000
0300
0c80
0080
0100
0200
0000
0000
0000
ENDCHAR
STARTCHAR K+2A26
ENCODING 10790
SWIDTH 960 0
DWIDTH 12 0
BBX 12 12 0 -2
BITMAP
0400
0300
0000
0300
1c80
0080
0080
0100
0200
0000
0000
0000
ENDCHAR
STARTCHAR K+2A27
ENCODING 10791
SWIDTH 960 0
DWIDTH 12 0
BBX 12 12 0 -2
BITMAP
0000
0000
0400
0200
0080
0f80
0200
0500
08c0
0000
0000
0000
ENDCHAR
STARTCHAR K+2A28
ENCODING 10792
SWIDTH 960 0
DWIDTH 12 0
BBX 12 12 0 -2
BITMAP
0600
0100
0000
0080
0f80
0100
0200
0500
0900
10e0
0000
0000
ENDCHAR
STARTCHAR K+2A29
ENCODING 10793
SWIDTH 960 0
DWIDTH 12 0
BBX 12 12 0 -2
BITMAP
0000
0000
0400
0680
1c40
0780
0c40
1440
0980
0000
0000
0000
ENDCHAR
STARTCHAR K+2A2A
ENCODING 10794
SWIDTH 960 0
DWIDTH 12 0
BBX 12 12 0 -2
BITMAP
0400
0740
1c20
0400
0fc0
1420
2420
2420
18c0
0000
0000
0000
ENDCHAR
STARTCHAR K+2A2B
ENCODING 10795
SWIDTH 960 0
DWIDTH 12 0
BBX 12 12 0 -2
BITMAP
0800
0800
0880
3e40
0900
0900
1100
1100
2600
0000
0000
0000
ENDCHAR
STARTCHAR K+2A2C
ENCODING 10796
SWIDTH 960 0
DWIDTH 12 0
BBX 12 12 0 -2
BITMAP
08a0
0840
0800
3e00
0940
0920
1120
1100
2600
0000
0000
0000
ENDCHAR
STARTCHAR K+2A2D
ENCODING 10797
SWIDTH 960 0
DWIDTH 12 0
BBX 12 12 0 -2
BITMAP
0500
0e00
0280
0f00
0100
0780
0800
0800
0700
0000
0000
0000
ENDCHAR
STARTCHAR K+2A2E
ENCODING 10798
SWIDTH 960 0
DWIDTH 12 0
BBX 12 12 0 -2
BITMAP
0a20
1c80
0540
1e00
0200
1f00
2000
2000
1c00
0000
0000
0000
ENDCHAR
STARTCHAR K+2A2F
ENCODING 10799
SWIDTH 960 0
DWIDTH 12 0
BBX 12 12 0 -2
BITMAP
0200
0200
0400
0800
1000
0800
0400
0200
0200
0000
0000
0000
ENDCHAR
STARTCHAR K+2A30
ENCODING 10800
SWIDTH 960 0
DWIDTH 12 0
BBX 12 12 0 -2
BITMAP
0400
0480
0840
1100
2080
1000
0800
0400
0400
0000
0000
0000
ENDCHAR
STARTCHAR K+2A31
ENCODING 10801
SWIDTH 960 0
DWIDTH 12 0
BBX 12 12 0 -2
BITMAP
1080
1080
10e0
2380
2080
2080
2880
1080
1100
0000
0000
0000
ENDCHAR
STARTCHAR K+2A32
ENCODING 10802
SWIDTH 960 0
DWIDTH 12 0
BBX 12 12 0 -2
BITMAP
0020
1100
1140
11a0
2700
2100
2100
2900
1100
1200
0000
0000
ENDCHAR
STARTCHAR K+2A33
ENCODING 10803
SWIDTH 960 0
DWIDTH 12 0
BBX 12 12 0 -2
BITMAP
0000
0000
0f80
0100
0000
0000
1800
07c0
0000
0000
0000
0000
ENDCHAR
STARTCHAR K+2A34
ENCODING 10804
SWIDTH 960 0
DWIDTH 12 0
BBX 12 12 0 -2
BITMAP
0020
0000
1f40
0220
0000
0000
3000
0f80
0000
0000
0000
0000
ENDCHAR
STARTCHAR K+2A35
ENCODING 10805
SWIDTH 960 0
DWIDTH 12 0
BBX 12 12 0 -2
BITMAP
0800
0580
1e00
0200
0100
0f80
1000
1000
0e00
0000
0000
0000
ENDCHAR
STARTCHAR K+2A36
ENCODING 10806
SWIDTH 960 0
DWIDTH 12 0
BBX 12 12 0 -2
BITMAP
1020
0b00
3c40
0420
0200
1f00
2000
2000
1c00
0000
0000
0000
ENDCHAR
STARTCHAR K+2A37
ENCODING 10807
SWIDTH 960 0
DWIDTH 12 0
BBX 12 12 0 -2
BITMAP
0800
0800
0800
0800
0800
0800
0840
0880
0700
0000
0000
0000
ENDCHAR
STARTCHAR K+2A38
ENCODING 10808
SWIDTH 960 0
DWIDTH 12 0
BBX 12 12 0 -2
BITMAP
1080
1040
1100
1080
1000
1000
1080
1100
0e00
0000
0000
0000
ENDCHAR
STARTCHAR K+2A39
ENCODING 10809
SWIDTH 960 0
DWIDTH 12 0
BBX 12 12 0 -2
BITMAP
0200
03c0
1e00
0200
0600
0900
0700
0100
0200
0400
0000
0000
ENDCHAR
STARTCHAR K+2A3A
ENCODING 10810
SWIDTH 960 0
DWIDTH 12 0
BBX 12 12 0 -2
BITMAP
0440
0720
3c80
0440
0c00
1200
0e00
0200
0400
0800
0000
0000
ENDCHAR
STARTCHAR K+2A3B
ENCODING 10811
SWIDTH 960 0
DWIDTH 12 0
BBX 12 12 0 -2
BITMAP
0000
0100
0900
0bc0
3d00
0900
0a00
0820
07c0
0000
0000
0000
ENDCHAR
STARTCHAR K+2A3C
ENCODING 10812
SWIDTH 960 0
DWIDTH 12 0
BBX 12 12 0 -2
BITMAP
0020
0200
1240
17a0
7a00
1200
1400
1040
0f80
0000
0000
0000
ENDCHAR
STARTCHAR K+2A3D
ENCODING 10813
SWIDTH 960 0
DWIDTH 12 0
BBX 12 12 0 -2
BITMAP
0000
1100
0a00
0580
3e00
0400
0800
0840
0780
0000
0000
0000
ENDCHAR
STARTCHAR K+2A3E
ENCODING 10814
SWIDTH 960 0
DWIDTH 12 0
BBX 12 12 0 -2
BITMAP
0020
1100
0a40
05a0
3e00
0400
0800
0840
0780
0000
0000
0000
ENDCHAR
STARTCHAR K+2A3F
ENCODING 10815
SWIDTH 960 0
DWIDTH 12 0
BBX 12 12 0 -2
BITMAP
0800
0800
0e00
39c0
0800
0800
1200
11c0
1000
0000
0000
0000
ENDCHAR
STARTCHAR K+2A40
ENCODING 10816
SWIDTH 960 0
DWIDTH 12 0
BBX 12 12 0 -2
BITMAP
1020
1080
1c40
7380
1000
1000
2400
2380
2000
0000
0000
0000
ENDCHAR
STARTCHAR K+2A41
ENCODING 10817
SWIDTH 960 0
DWIDTH 12 0
BBX 12 12 0 -2
BITMAP
0400
0780
1c00
0400
0800
0f80
1840
0040
0380
0000
0000
0000
ENDCHAR
STARTCHAR K+2A42
ENCODING 10818
SWIDTH 960 0
DWIDTH 12 0
BBX 12 12 0 -2
BITMAP
0840
0e20
3880
0840
1000
1f00
3080
0080
0700
0000
0000
0000
ENDCHAR
STARTCHAR K+2A43
ENCODING 10819
SWIDTH 960 0
DWIDTH 12 0
BBX 12 12 0 -2
BITMAP
0000
0000
0000
0000
0380
1c40
0040
0040
0180
0000
0000
0000
ENDCHAR
STARTCHAR K+2A44
ENCODING 10820
SWIDTH 960 0
DWIDTH 12 0
BBX 12 12 0 -2
BITMAP
0000
0000
0700
3880
0040
0040
0040
0080
0300
0000
0000
0000
ENDCHAR
STARTCHAR K+2A45
ENCODING 10821
SWIDTH 960 0
DWIDTH 12 0
BBX 12 12 0 -2
BITMAP
00a0
0040
0700
3880
0040
0040
0040
0080
0300
0000
0000
0000
ENDCHAR
STARTCHAR K+2A46
ENCODING 10822
SWIDTH 960 0
DWIDTH 12 0
BBX 12 12 0 -2
BITMAP
0000
0000
01c0
3e00
0400
0800
0800
0400
0380
0000
0000
0000
ENDCHAR
STARTCHAR K+2A47
ENCODING 10823
SWIDTH 960 0
DWIDTH 12 0
BBX 12 12 0 -2
BITMAP
0000
0000
0300
7c40
0820
1080
1040
0800
0700
0000
0000
0000
ENDCHAR
STARTCHAR K+2A48
ENCODING 10824
SWIDTH 960 0
DWIDTH 12 0
BBX 12 12 0 -2
BITMAP
0800
0800
0b80
0c00
1000
2000
2000
1000
0f80
0000
0000
0000
ENDCHAR
STARTCHAR K+2A49
ENCODING 10825
SWIDTH 960 0
DWIDTH 12 0
BBX 12 12 0 -2
BITMAP
0820
0880
0840
0f00
1000
2000
2000
1000
0f80
0000
0000
0000
ENDCHAR
STARTCHAR K+2A4A
ENCODING 10826
SWIDTH 960 0
DWIDTH 12 0
BBX 12 12 0 -2
BITMAP
0800
0880
3c40
0900
0900
1100
1380
2540
0540
0200
0000
0000
ENDCHAR
STARTCHAR K+2A4B
ENCODING 10827
SWIDTH 960 0
DWIDTH 12 0
BBX 12 12 0 -2
BITMAP
1000
1000
13c0
2000
2000
2000
2400
13e0
1000
0000
0000
0000
ENDCHAR
STARTCHAR K+2A4C
ENCODING 10828
SWIDTH 960 0
DWIDTH 12 0
BBX 12 12 0 -2
BITMAP
0200
2200
2200
1f00
3480
4840
48e0
3520
00c0
0000
0000
0000
ENDCHAR
STARTCHAR K+2A4D
ENCODING 10829
SWIDTH 960 0
DWIDTH 12 0
BBX 12 12 0 -2
BITMAP
0400
0400
0600
3e00
0780
0c40
14c0
2560
04a0
0000
0000
0000
ENDCHAR
STARTCHAR K+2A4E
ENCODING 10830
SWIDTH 960 0
DWIDTH 12 0
BBX 12 12 0 -2
BITMAP
0000
0000
0f00
1280
2240
2240
2440
2440
1880
0000
0000
0000
ENDCHAR
STARTCHAR K+2A4F
ENCODING 10831
SWIDTH 960 0
DWIDTH 12 0
BBX 12 12 0 -2
BITMAP
1100
1140
2780
2100
2100
2900
2b00
14c0
1320
0000
0000
0000
ENDCHAR
STARTCHAR K+2A50
ENCODING 10832
SWIDTH 960 0
DWIDTH 12 0
BBX 12 12 0 -2
BITMAP
2220
2280
4f40
4220
4200
5200
5600
2980
2640
0000
0000
0000
ENDCHAR
STARTCHAR K+2A51
ENCODING 10833
SWIDTH 960 0
DWIDTH 12 0
BBX 12 12 0 -2
BITMAP
2220
22c0
4f20
4200
4200
5200
5600
2980
2640
0000
0000
0000
ENDCHAR
STARTCHAR K+2A52
ENCODING 10834
SWIDTH 960 0
DWIDTH 12 0
BBX 12 12 0 -2
BITMAP
0000
0900
1900
3180
1140
2100
2200
2200
1c00
0000
0000
0000
ENDCHAR
STARTCHAR K+2A53
ENCODING 10835
SWIDTH 960 0
DWIDTH 12 0
BBX 12 12 0 -2
BITMAP
0040
0020
1280
3240
6300
2280
4200
4400
4400
3800
0000
0000
ENDCHAR
STARTCHAR K+2A54
ENCODING 10836
SWIDTH 960 0
DWIDTH 12 0
BBX 12 12 0 -2
BITMAP
0020
0940
1920
3180
1140
2100
2200
2200
1c00
0000
0000
0000
ENDCHAR
STARTCHAR K+2A55
ENCODING 10837
SWIDTH 960 0
DWIDTH 12 0
BBX 12 12 0 -2
BITMAP
0600
0100
0000
0200
0220
2100
1880
0080
0700
0000
0000
0000
ENDCHAR
STARTCHAR K+2A56
ENCODING 10838
SWIDTH 960 0
DWIDTH 12 0
BBX 12 12 0 -2
BITMAP
0c20
0280
0040
0400
0440
4220
3100
0100
0e00
0000
0000
0000
ENDCHAR
STARTCHAR K+2A57
ENCODING 10839
SWIDTH 960 0
DWIDTH 12 0
BBX 12 12 0 -2
BITMAP
0c20
0240
0020
0400
0440
4220
3100
0100
0e00
0000
0000
0000
ENDCHAR
STARTCHAR K+2A58
ENCODING 10840
SWIDTH 960 0
DWIDTH 12 0
BBX 12 12 0 -2
BITMAP
0000
0000
0000
0c00
1300
20e0
0000
0000
0000
0000
0000
0000
ENDCHAR
STARTCHAR K+2A59
ENCODING 10841
SWIDTH 960 0
DWIDTH 12 0
BBX 12 12 0 -2
BITMAP
0020
0080
0040
0c00
1300
20e0
0000
0000
0000
0000
0000
0000
ENDCHAR
STARTCHAR K+2A5A
ENCODING 10842
SWIDTH 960 0
DWIDTH 12 0
BBX 12 12 0 -2
BITMAP
0040
00a0
0040
0c00
1300
20e0
0000
0000
0000
0000
0000
0000
ENDCHAR
STARTCHAR K+2A5B
ENCODING 10843
SWIDTH 960 0
DWIDTH 12 0
BBX 12 12 0 -2
BITMAP
20c0
2700
2100
41c0
4700
5100
5380
2540
2220
0000
0000
0000
ENDCHAR
STARTCHAR K+2A5C
ENCODING 10844
SWIDTH 960 0
DWIDTH 12 0
BBX 12 12 0 -2
BITMAP
21a0
2e00
2220
4380
4e00
5200
5700
2a80
2440
0000
0000
0000
ENDCHAR
STARTCHAR K+2A5D
ENCODING 10845
SWIDTH 960 0
DWIDTH 12 0
BBX 12 12 0 -2
BITMAP
21a0
2e40
2220
4380
4e00
5200
5700
2a80
2440
0000
0000
0000
ENDCHAR
STARTCHAR K+2A5E
ENCODING 10846
SWIDTH 960 0
DWIDTH 12 0
BBX 12 12 0 -2
BITMAP
0200
03c0
0e00
03c0
0e00
0200
0e00
1380
0c40
0000
0000
0000
ENDCHAR
STARTCHAR K+2A5F
ENCODING 10847
SWIDTH 960 0
DWIDTH 12 0
BBX 12 12 0 -2
BITMAP
0f00
0100
0200
0240
0440
1f80
2480
2940
1120
0000
0000
0000
ENDCHAR
STARTCHAR K+2A60
ENCODING 10848
SWIDTH 960 0
DWIDTH 12 0
BBX 12 12 0 -2
BITMAP
0800
0800
3e80
0840
1800
2c40
2ca0
1880
0780
0000
0000
0000
ENDCHAR
STARTCHAR K+2A61
ENCODING 10849
SWIDTH 960 0
DWIDTH 12 0
BBX 12 12 0 -2
BITMAP
0100
0100
1100
1380
0d40
1a20
2620
2620
1940
0000
0000
0000
ENDCHAR
STARTCHAR K+2A62
ENCODING 10850
SWIDTH 960 0
DWIDTH 12 0
BBX 12 12 0 -2
BITMAP
0400
0700
1c00
0700
1c00
0480
0440
0440
0380
0000
0000
0000
ENDCHAR
STARTCHAR K+2A63
ENCODING 10851
SWIDTH 960 0
DWIDTH 12 0
BBX 12 12 0 -2
BITMAP
0000
0400
1200
1000
0b80
3c40
0840
0480
0400
0400
0000
0000
ENDCHAR
STARTCHAR K+2A64
ENCODING 10852
SWIDTH 960 0
DWIDTH 12 0
BBX 12 12 0 -2
BITMAP
0200
1100
1000
0bc0
0c20
7420
0440
0200
0200
0200
0000
0000
ENDCHAR
STARTCHAR K+2A65
ENCODING 10853
SWIDTH 960 0
DWIDTH 12 0
BBX 12 12 0 -2
BITMAP
0000
0000
0100
1100
1780
1940
1140
1780
0200
0400
0000
0000
ENDCHAR
STARTCHAR K+2A66
ENCODING 10854
SWIDTH 960 0
DWIDTH 12 0
BBX 12 12 0 -2
BITMAP
0000
1100
1100
17c0
1920
1120
1140
1780
1200
0400
0000
0000
ENDCHAR
STARTCHAR K+2A67
ENCODING 10855
SWIDTH 960 0
DWIDTH 12 0
BBX 12 12 0 -2
BITMAP
0000
0200
0200
0380
0200
0200
0700
0a80
0440
0000
0000
0000
ENDCHAR
STARTCHAR K+2A68
ENCODING 10856
SWIDTH 960 0
DWIDTH 12 0
BBX 12 12 0 -2
BITMAP
0200
0200
03c0
0200
0200
0200
1f00
22c0
1c20
0000
0000
0000
ENDCHAR
STARTCHAR K+2A69
ENCODING 10857
SWIDTH 960 0
DWIDTH 12 0
BBX 12 12 0 -2
BITMAP
0800
0400
0000
1000
1000
1780
1840
0040
0080
0700
0000
0000
ENDCHAR
STARTCHAR K+2A6A
ENCODING 10858
SWIDTH 960 0
DWIDTH 12 0
BBX 12 12 0 -2
BITMAP
0840
0840
0840
0840
0c40
0840
0080
0080
0100
0200
0000
0000
ENDCHAR
STARTCHAR K+2A6B
ENCODING 10859
SWIDTH 960 0
DWIDTH 12 0
BBX 12 12 0 -2
BITMAP
1f00
0200
0400
0f80
1040
2040
0640
0980
0700
0000
0000
0000
ENDCHAR
STARTCHAR K+2A6C
ENCODING 10860
SWIDTH 960 0
DWIDTH 12 0
BBX 12 12 0 -2
BITMAP
0800
0c00
3c00
0b00
0c80
1880
1880
28a0
0840
0000
0000
0000
ENDCHAR
STARTCHAR K+2A6D
ENCODING 10861
SWIDTH 960 0
DWIDTH 12 0
BBX 12 12 0 -2
BITMAP
0000
1f00
0200
0400
0f80
1040
2040
0040
0080
0300
0000
0000
ENDCHAR
STARTCHAR K+2A6E
ENCODING 10862
SWIDTH 960 0
DWIDTH 12 0
BBX 12 12 0 -2
BITMAP
0400
0400
0500
1e00
0780
0c40
0c40
1440
0480
0000
0000
0000
ENDCHAR
STARTCHAR K+2A6F
ENCODING 10863
SWIDTH 960 0
DWIDTH 12 0
BBX 12 12 0 -2
BITMAP
0800
0800
0e00
3c00
0b80
1c40
1820
2820
0840
0000
0000
0000
ENDCHAR
STARTCHAR K+2A70
ENCODING 10864
SWIDTH 960 0
DWIDTH 12 0
BBX 12 12 0 -2
BITMAP
0300
0d00
0100
0200
0f80
1240
2420
28e0
3120
00c0
0000
0000
ENDCHAR
STARTCHAR K+2A71
ENCODING 10865
SWIDTH 960 0
DWIDTH 12 0
BBX 12 12 0 -2
BITMAP
0400
1c00
0f00
1080
0480
0b00
0400
0800
1d80
2240
0000
0000
ENDCHAR
STARTCHAR K+2A72
ENCODING 10866
SWIDTH 960 0
DWIDTH 12 0
BBX 12 12 0 -2
BITMAP
0400
0700
1c00
0600
0980
1300
2500
0900
0800
0780
0000
0000
ENDCHAR
STARTCHAR K+2A73
ENCODING 10867
SWIDTH 960 0
DWIDTH 12 0
BBX 12 12 0 -2
BITMAP
0400
0400
0400
0800
0e00
0900
1100
1140
1080
0000
0000
0000
ENDCHAR
STARTCHAR K+2B21
ENCODING 11041
SWIDTH 960 0
DWIDTH 12 0
BBX 12 12 0 -2
BITMAP
0000
0000
1fc0
0040
0280
0300
0200
0200
0400
0000
0000
0000
ENDCHAR
STARTCHAR K+2B22
ENCODING 11042
SWIDTH 960 0
DWIDTH 12 0
BBX 12 12 0 -2
BITMAP
0000
3fe0
0020
0240
0280
0200
0200
0400
0400
0800
0000
0000
ENDCHAR
STARTCHAR K+2B23
ENCODING 11043
SWIDTH 960 0
DWIDTH 12 0
BBX 12 12 0 -2
BITMAP
0000
0080
0100
0600
1a00
0200
0200
0200
0200
0000
0000
0000
ENDCHAR
STARTCHAR K+2B24
ENCODING 11044
SWIDTH 960 0
DWIDTH 12 0
BBX 12 12 0 -2
BITMAP
0040
0080
0100
0600
1a00
0200
0200
0200
0200
0200
0000
0000
ENDCHAR
STARTCHAR K+2B25
ENCODING 11045
SWIDTH 960 0
DWIDTH 12 0
BBX 12 12 0 -2
BITMAP
0000
0200
0200
1fc0
1040
1040
0040
0080
0100
0000
0000
0000
ENDCHAR
STARTCHAR K+2B26
ENCODING 11046
SWIDTH 960 0
DWIDTH 12 0
BBX 12 12 0 -2
BITMAP
0400
0400
3fc0
2040
2040
0040
0080
0080
0100
0200
0000
0000
ENDCHAR
STARTCHAR K+2B27
ENCODING 11047
SWIDTH 960 0
DWIDTH 12 0
BBX 12 12 0 -2
BITMAP
0000
0000
0000
1fc0
0200
0200
0200
3fe0
0000
0000
0000
0000
ENDCHAR
STARTCHAR K+2B28
ENCODING 11048
SWIDTH 960 0
DWIDTH 12 0
BBX 12 12 0 -2
BITMAP
0000
0000
3fc0
0400
0400
0400
0400
7fe0
0000
0000
0000
0000
ENDCHAR
STARTCHAR K+2B29
ENCODING 11049
SWIDTH 960 0
DWIDTH 12 0
BBX 12 12 0 -2
BITMAP
0000
0200
0200
1fc0
0600
0a00
1200
2200
0e00
0000
0000
0000
ENDCHAR
STARTCHAR K+2B2A
ENCODING 11050
SWIDTH 960 0
DWIDTH 12 0
BBX 12 12 0 -2
BITMAP
0100
0100
1fc0
0300
0500
0900
3100
0100
0700
0000
0000
0000
ENDCHAR
STARTCHAR K+2B2B
ENCODING 11051
SWIDTH 960 0
DWIDTH 12 0
BBX 12 12 0 -2
BITMAP
0400
0400
3f80
0480
0480
0880
0880
1080
2300
0000
0000
0000
ENDCHAR
STARTCHAR K+2B2C
ENCODING 11052
SWIDTH 960 0
DWIDTH 12 0
BBX 12 12 0 -2
BITMAP
0020
0400
0440
3fa0
0480
0480
0880
0880
1080
2300
0000
0000
ENDCHAR
STARTCHAR K+2B2D
ENCODING 11053
SWIDTH 960 0
DWIDTH 12 0
BBX 12 12 0 -2
BITMAP
0400
0400
05c0
1e00
03c0
1e00
0100
0100
0100
0000
0000
0000
ENDCHAR
STARTCHAR K+2B2E
ENCODING 11054
SWIDTH 960 0
DWIDTH 12 0
BBX 12 12 0 -2
BITMAP
0840
0820
0b40
3c20
0700
3c00
0200
0200
0200
0000
0000
0000
ENDCHAR
STARTCHAR K+2B2F
ENCODING 11055
SWIDTH 960 0
DWIDTH 12 0
BBX 12 12 0 -2
BITMAP
0200
0200
07c0
0840
1080
0100
0200
0c00
3000
0000
0000
0000
ENDCHAR
STARTCHAR K+2B30
ENCODING 11056
SWIDTH 960 0
DWIDTH 12 0
BBX 12 12 0 -2
BITMAP
0020
0400
0440
0f20
1100
2100
0200
0400
1800
6000
0000
0000
ENDCHAR
STARTCHAR K+2B31
ENCODING 11057
SWIDTH 960 0
DWIDTH 12 0
BBX 12 12 0 -2
BITMAP
0400
0400
0800
0fe0
1100
2100
0200
0200
0400
0000
0000
0000
ENDCHAR
STARTCHAR K+2B32
ENCODING 11058
SWIDTH 960 0
DWIDTH 12 0
BBX 12 12 0 -2
BITMAP
0020
0800
0840
1020
1f80
2200
4200
0400
0400
0800
0000
0000
ENDCHAR
STARTCHAR K+2B33
ENCODING 11059
SWIDTH 960 0
DWIDTH 12 0
BBX 12 12 0 -2
BITMAP
0000
0000
1fc0
0040
0040
0040
0040
1fc0
0040
0000
0000
0000
ENDCHAR
STARTCHAR K+2B34
ENCODING 11060
SWIDTH 960 0
DWIDTH 12 0
BBX 12 12 0 -2
BITMAP
0020
0080
0040
3f80
0080
0080
0080
0080
3f80
0080
0000
0000
ENDCHAR
STARTCHAR K+2B35
ENCODING 11061
SWIDTH 960 0
DWIDTH 12 0
BBX 12 12 0 -2
BITMAP
0000
0900
0900
7fe0
0900
0900
0200
0200
0400
0000
0000
0000
ENDCHAR
STARTCHAR K+2B36
ENCODING 11062
SWIDTH 960 0
DWIDTH 12 0
BBX 12 12 0 -2
BITMAP
0020
1280
1240
7f80
1200
1200
0400
0400
0800
0000
0000
0000
ENDCHAR
STARTCHAR K+2B37
ENCODING 11063
SWIDTH 960 0
DWIDTH 12 0
BBX 12 12 0 -2
BITMAP
0000
0800
0400
2400
1040
1080
0100
0600
3800
0000
0000
0000
ENDCHAR
STARTCHAR K+2B38
ENCODING 11064
SWIDTH 960 0
DWIDTH 12 0
BBX 12 12 0 -2
BITMAP
0020
0880
0440
2400
1040
1080
0100
0600
3800
0000
0000
0000
ENDCHAR
STARTCHAR K+2B39
ENCODING 11065
SWIDTH 960 0
DWIDTH 12 0
BBX 12 12 0 -2
BITMAP
0000
0000
1f80
0080
0100
0200
0500
0880
3040
0000
0000
0000
ENDCHAR
STARTCHAR K+2B3A
ENCODING 11066
SWIDTH 960 0
DWIDTH 12 0
BBX 12 12 0 -2
BITMAP
0020
0080
3f40
0100
0200
0400
0a00
1100
6080
0000
0000
0000
ENDCHAR
STARTCHAR K+2B3B
ENCODING 11067
SWIDTH 960 0
DWIDTH 12 0
BBX 12 12 0 -2
BITMAP
0000
0400
0400
07c0
3c80
0500
0400
0420
03c0
0000
0000
0000
ENDCHAR
STARTCHAR K+2B3C
ENCODING 11068
SWIDTH 960 0
DWIDTH 12 0
BBX 12 12 0 -2
BITMAP
0020
0880
0840
0f80
7900
0a00
0800
0840
0780
0000
0000
0000
ENDCHAR
STARTCHAR K+2B3D
ENCODING 11069
SWIDTH 960 0
DWIDTH 12 0
BBX 12 12 0 -2
BITMAP
0000
0000
1040
0840
0840
0080
0100
0600
1800
0000
0000
0000
ENDCHAR
STARTCHAR K+2B3E
ENCODING 11070
SWIDTH 960 0
DWIDTH 12 0
BBX 12 12 0 -2
BITMAP
0020
0000
0040
2020
1080
1080
0100
0200
0c00
3000
0000
0000
ENDCHAR
STARTCHAR K+2B3F
ENCODING 11071
SWIDTH 960 0
DWIDTH 12 0
BBX 12 12 0 -2
BITMAP
0200
0200
07c0
0840
1480
0300
0300
0c80
3000
0000
0000
0000
ENDCHAR
STARTCHAR K+2B40
ENCODING 11072
SWIDTH 960 0
DWIDTH 12 0
BBX 12 12 0 -2
BITMAP
0020
0480
0440
0f80
1080
2900
0600
0600
1900
6000
0000
0000
ENDCHAR
STARTCHAR K+2B41
ENCODING 11073
SWIDTH 960 0
DWIDTH 12 0
BBX 12 12 0 -2
BITMAP
0180
0e00
0200
0200
3fe0
0200
0200
0400
0400
0800
0000
0000
ENDCHAR
STARTCHAR K+2B42
ENCODING 11074
SWIDTH 960 0
DWIDTH 12 0
BBX 12 12 0 -2
BITMAP
0220
1c80
0440
0400
7fc0
0400
0400
0800
0800
1000
0000
0000
ENDCHAR
STARTCHAR K+2B43
ENCODING 11075
SWIDTH 960 0
DWIDTH 12 0
BBX 12 12 0 -2
BITMAP
0000
0000
0000
0800
2480
1100
0200
0400
1800
0000
0000
0000
ENDCHAR
STARTCHAR K+2B44
ENCODING 11076
SWIDTH 960 0
DWIDTH 12 0
BBX 12 12 0 -2
BITMAP
0000
0800
0480
2480
1100
1100
0200
0400
1800
0000
0000
0000
ENDCHAR
STARTCHAR K+2B45
ENCODING 11077
SWIDTH 960 0
DWIDTH 12 0
BBX 12 12 0 -2
BITMAP
0020
1000
0940
4920
2200
2200
0400
0800
3000
0000
0000
0000
ENDCHAR
STARTCHAR K+2B46
ENCODING 11078
SWIDTH 960 0
DWIDTH 12 0
BBX 12 12 0 -2
BITMAP
0f00
0000
0000
3fc0
0200
0200
0400
0400
0800
0000
0000
0000
ENDCHAR
STARTCHAR K+2B47
ENCODING 11079
SWIDTH 960 0
DWIDTH 12 0
BBX 12 12 0 -2
BITMAP
0020
1e00
0040
0020
7f80
0400
0400
0800
0800
1000
0000
0000
ENDCHAR
STARTCHAR K+2B48
ENCODING 11080
SWIDTH 960 0
DWIDTH 12 0
BBX 12 12 0 -2
BITMAP
0400
0400
0400
0600
0500
0400
0400
0400
0400
0000
0000
0000
ENDCHAR
STARTCHAR K+2B49
ENCODING 11081
SWIDTH 960 0
DWIDTH 12 0
BBX 12 12 0 -2
BITMAP
0440
0520
0480
0600
0500
0400
0400
0400
0400
0000
0000
0000
ENDCHAR
STARTCHAR K+2B4A
ENCODING 11082
SWIDTH 960 0
DWIDTH 12 0
BBX 12 12 0 -2
BITMAP
0400
0400
7fc0
0400
0400
0400
0800
0800
1000
0000
0000
0000
ENDCHAR
STARTCHAR K+2B4B
ENCODING 11083
SWIDTH 960 0
DWIDTH 12 0
BBX 12 12 0 -2
BITMAP
0000
0000
0f80
0000
0000
0000
0000
3fe0
0000
0000
0000
0000
ENDCHAR
STARTCHAR K+2B4C
ENCODING 11084
SWIDTH 960 0
DWIDTH 12 0
BBX 12 12 0 -2
BITMAP
0000
1f80
0080
0880
0500
0300
0300
0c80
3040
0000
0000
0000
ENDCHAR
STARTCHAR K+2B4D
ENCODING 11085
SWIDTH 960 0
DWIDTH 12 0
BBX 12 12 0 -2
BITMAP
0200
0200
1f80
0100
0300
0e80
3240
0200
0200
0200
0000
0000
ENDCHAR
STARTCHAR K+2B4E
ENCODING 11086
SWIDTH 960 0
DWIDTH 12 0
BBX 12 12 0 -2
BITMAP
0000
0080
0080
0100
0100
0200
0400
0800
3000
0000
0000
0000
ENDCHAR
STARTCHAR K+2B4F
ENCODING 11087
SWIDTH 960 0
DWIDTH 12 0
BBX 12 12 0 -2
BITMAP
0000
0000
0000
0900
0880
0880
1040
1040
2040
0000
0000
0000
ENDCHAR
STARTCHAR K+2B50
ENCODING 11088
SWIDTH 960 0
DWIDTH 12 0
BBX 12 12 0 -2
BITMAP
0020
0080
0040
0900
0880
0880
1040
1040
2040
0000
0000
0000
ENDCHAR
STARTCHAR K+2B51
ENCODING 11089
SWIDTH 960 0
DWIDTH 12 0
BBX 12 12 0 -2
BITMAP
0040
00a0
0040
0900
0880
0880
1040
1040
2040
0000
0000
0000
ENDCHAR
STARTCHAR K+2B52
ENCODING 11090
SWIDTH 960 0
DWIDTH 12 0
BBX 12 12 0 -2
BITMAP
0000
1000
1000
1180
1e00
1000
1000
1000
0f80
0000
0000
0000
ENDCHAR
STARTCHAR K+2B53
ENCODING 11091
SWIDTH 960 0
DWIDTH 12 0
BBX 12 12 0 -2
BITMAP
0020
1080
1040
1180
1e00
1000
1000
1000
0f80
0000
0000
0000
ENDCHAR
STARTCHAR K+2B54
ENCODING 11092
SWIDTH 960 0
DWIDTH 12 0
BBX 12 12 0 -2
BITMAP
0020
1040
1020
1180
1e00
1000
1000
1000
0f80
0000
0000
0000
ENDCHAR
STARTCHAR K+2B55
ENCODING 11093
SWIDTH 960 0
DWIDTH 12 0
BBX 12 12 0 -2
BITMAP
0000
0000
3f80
0080
0080
0100
0100
0200
0400
0000
0000
0000
ENDCHAR
STARTCHAR K+2B56
ENCODING 11094
SWIDTH 960 0
DWIDTH 12 0
BBX 12 12 0 -2
BITMAP
0020
0000
0040
3fa0
0080
0080
0100
0100
0200
0400
0000
0000
ENDCHAR
STARTCHAR K+2B57
ENCODING 11095
SWIDTH 960 0
DWIDTH 12 0
BBX 12 12 0 -2
BITMAP
0020
0040
0020
3f80
0080
0080
0100
0100
0200
0400
0000
0000
ENDCHAR
STARTCHAR K+2B58
ENCODING 11096
SWIDTH 960 0
DWIDTH 12 0
BBX 12 12 0 -2
BITMAP
0000
0000
0000
0c00
1200
2180
4060
0000
0000
0000
0000
0000
ENDCHAR
STARTCHAR K+2B59
ENCODING 11097
SWIDTH 960 0
DWIDTH 12 0
BBX 12 12 0 -2
BITMAP
0020
0080
0040
0c00
1200
2180
4060
0000
0000
0000
0000
0000
ENDCHAR
STARTCHAR K+2B5A
ENCODING 11098
SWIDTH 960 0
DWIDTH 12 0
BBX 12 12 0 -2
BITMAP
0040
00a0
0040
0c00
1200
2180
4060
0000
0000
0000
0000
0000
ENDCHAR
STARTCHAR K+2B5B
ENCODING 11099
SWIDTH 960 0
DWIDTH 12 0
BBX 12 12 0 -2
BITMAP
0200
0200
0200
3fe0
0200
1240
2220
4200
0200
0c00
0000
0000
ENDCHAR
STARTCHAR K+2B5C
ENCODING 11100
SWIDTH 960 0
DWIDTH 12 0
BBX 12 12 0 -2
BITMAP
0020
0280
0240
0200
3fe0
0200
1240
2220
4200
0200
0c00
0000
ENDCHAR
STARTCHAR K+2B5D
ENCODING 11101
SWIDTH 960 0
DWIDTH 12 0
BBX 12 12 0 -2
BITMAP
0020
0240
0220
0200
3fe0
0200
1240
2220
4200
0200
0c00
0000
ENDCHAR
STARTCHAR K+2B5E
ENCODING 11102
SWIDTH 960 0
DWIDTH 12 0
BBX 12 12 0 -2
BITMAP
0000
0000
3fe0
0040
0080
0900
0600
0200
0100
0000
0000
0000
ENDCHAR
STARTCHAR K+2B5F
ENCODING 11103
SWIDTH 960 0
DWIDTH 12 0
BBX 12 12 0 -2
BITMAP
0600
0180
0000
0c00
0300
0000
1800
0600
0180
0000
0000
0000
ENDCHAR
STARTCHAR K+2B60
ENCODING 11104
SWIDTH 960 0
DWIDTH 12 0
BBX 12 12 0 -2
BITMAP
0000
0200
0200
0400
0440
0840
3fe0
0020
0000
0000
0000
0000
ENDCHAR
STARTCHAR K+2B61
ENCODING 11105
SWIDTH 960 0
DWIDTH 12 0
BBX 12 12 0 -2
BITMAP
0000
0040
0040
0480
0280
0100
0280
0c80
3000
0000
0000
0000
ENDCHAR
STARTCHAR K+2B62
ENCODING 11106
SWIDTH 960 0
DWIDTH 12 0
BBX 12 12 0 -2
BITMAP
0000
0000
1f80
0400
0400
3fc0
0400
0400
03e0
0000
0000
0000
ENDCHAR
STARTCHAR K+2B63
ENCODING 11107
SWIDTH 960 0
DWIDTH 12 0
BBX 12 12 0 -2
BITMAP
0000
0000
0800
0bc0
3c80
0400
0400
0200
0200
0000
0000
0000
ENDCHAR
STARTCHAR K+2B64
ENCODING 11108
SWIDTH 960 0
DWIDTH 12 0
BBX 12 12 0 -2
BITMAP
0800
0800
0be0
3c40
0480
0400
0200
0200
0200
0000
0000
0000
ENDCHAR
STARTCHAR K+2B65
ENCODING 11109
SWIDTH 960 0
DWIDTH 12 0
BBX 12 12 0 -2
BITMAP
0000
0000
0000
0000
0f80
0080
0080
0080
3fe0
0000
0000
0000
ENDCHAR
STARTCHAR K+2B66
ENCODING 11110
SWIDTH 960 0
DWIDTH 12 0
BBX 12 12 0 -2
BITMAP
0000
0000
1f80
0080
0080
0080
0080
0080
7fe0
0000
0000
0000
ENDCHAR
STARTCHAR K+2B67
ENCODING 11111
SWIDTH 960 0
DWIDTH 12 0
BBX 12 12 0 -2
BITMAP
0000
0000
0000
1f80
0080
1f80
0080
1f80
0080
0000
0000
0000
ENDCHAR
STARTCHAR K+2B68
ENCODING 11112
SWIDTH 960 0
DWIDTH 12 0
BBX 12 12 0 -2
BITMAP
0000
1fc0
0040
0040
1fc0
0040
0040
1fc0
0040
0000
0000
0000
ENDCHAR
STARTCHAR K+2B69
ENCODING 11113
SWIDTH 960 0
DWIDTH 12 0
BBX 12 12 0 -2
BITMAP
0f00
0000
0000
3fc0
0040
0040
0080
0080
0100
0200
0000
0000
ENDCHAR
STARTCHAR K+2B6A
ENCODING 11114
SWIDTH 960 0
DWIDTH 12 0
BBX 12 12 0 -2
BITMAP
0000
0880
0880
0880
0880
0880
0880
0100
0100
0200
0000
0000
ENDCHAR
STARTCHAR K+2B6B
ENCODING 11115
SWIDTH 960 0
DWIDTH 12 0
BBX 12 12 0 -2
BITMAP
0000
0900
0900
0900
0900
0900
1120
1140
2180
0000
0000
0000
ENDCHAR
STARTCHAR K+2B6C
ENCODING 11116
SWIDTH 960 0
DWIDTH 12 0
BBX 12 12 0 -2
BITMAP
0000
0800
0800
0800
0800
0820
0840
0980
0e00
0000
0000
0000
ENDCHAR
STARTCHAR K+2B6D
ENCODING 11117
SWIDTH 960 0
DWIDTH 12 0
BBX 12 12 0 -2
BITMAP
0000
0000
1f80
1080
1080
1080
1080
1f80
1080
0000
0000
0000
ENDCHAR
STARTCHAR K+2B6E
ENCODING 11118
SWIDTH 960 0
DWIDTH 12 0
BBX 12 12 0 -2
BITMAP
0000
0000
0000
1f80
1080
1080
0100
0100
0200
0000
0000
0000
ENDCHAR
STARTCHAR K+2B6F
ENCODING 11119
SWIDTH 960 0
DWIDTH 12 0
BBX 12 12 0 -2
BITMAP
0000
3fc0
2040
2040
2040
0080
0080
0100
0200
0000
0000
0000
ENDCHAR
STARTCHAR K+2B70
ENCODING 11120
SWIDTH 960 0
DWIDTH 12 0
BBX 12 12 0 -2
BITMAP
0100
0100
3fc0
0900
0900
3fe0
0100
0100
0100
0000
0000
0000
ENDCHAR
STARTCHAR K+2B71
ENCODING 11121
SWIDTH 960 0
DWIDTH 12 0
BBX 12 12 0 -2
BITMAP
0000
3fc0
0040
0480
0500
0400
0400
7fe0
0000
0000
0000
0000
ENDCHAR
STARTCHAR K+2B72
ENCODING 11122
SWIDTH 960 0
DWIDTH 12 0
BBX 12 12 0 -2
BITMAP
0000
1fc0
0040
0040
1f80
0080
0100
0200
0400
0000
0000
0000
ENDCHAR
STARTCHAR K+2B73
ENCODING 11123
SWIDTH 960 0
DWIDTH 12 0
BBX 12 12 0 -2
BITMAP
0000
1000
0800
0400
0040
0080
0100
0600
1800
0000
0000
0000
ENDCHAR
STARTCHAR K+2B74
ENCODING 11124
SWIDTH 960 0
DWIDTH 12 0
BBX 12 12 0 -2
BITMAP
0020
0000
0440
0420
3fc0
2040
2040
0080
0080
0100
0200
0000
ENDCHAR
STARTCHAR K+2B75
ENCODING 11125
SWIDTH 960 0
DWIDTH 12 0
BBX 12 12 0 -2
BITMAP
0000
0200
0200
1fc0
0240
0240
0440
0440
0980
0000
0000
0000
ENDCHAR
STARTCHAR K+2B76
ENCODING 11126
SWIDTH 960 0
DWIDTH 12 0
BBX 12 12 0 -2
BITMAP
0000
0800
0800
0fc0
1200
2200
0200
0200
0400
0000
0000
0000
ENDCHAR
STARTCHAR K+2C21
ENCODING 11297
SWIDTH 960 0
DWIDTH 12 0
BBX 12 12 0 -2
BITMAP
0200
0200
0500
0500
0880
0f80
0880
1040
1040
0000
0000
0000
ENDCHAR
STARTCHAR K+2C22
ENCODING 11298
SWIDTH 960 0
DWIDTH 12 0
BBX 12 12 0 -2
BITMAP
1f00
1000
1000
1000
1f00
1080
1080
1080
1f00
0000
0000
0000
ENDCHAR
STARTCHAR K+2C23
ENCODING 11299
SWIDTH 960 0
DWIDTH 12 0
BBX 12 12 0 -2
BITMAP
1f00
1080
1080
1080
1f00
1080
1080
1080
1f00
0000
0000
0000
ENDCHAR
STARTCHAR K+2C24
ENCODING 11300
SWIDTH 960 0
DWIDTH 12 0
BBX 12 12 0 -2
BITMAP
0fc0
0800
0800
0800
0800
0800
0800
0800
0800
0000
0000
0000
ENDCHAR
STARTCHAR K+2C25
ENCODING 11301
SWIDTH 960 0
DWIDTH 12 0
BBX 12 12 0 -2
BITMAP
0780
0480
0480
0480
0480
0880
0fc0
1040
2040
0000
0000
0000
ENDCHAR
STARTCHAR K+2C26
ENCODING 11302
SWIDTH 960 0
DWIDTH 12 0
BBX 12 12 0 -2
BITMAP
1f80
1000
1000
1000
1f00
1000
1000
1000
1f80
0000
0000
0000
ENDCHAR
STARTCHAR K+2C27
ENCODING 11303
SWIDTH 960 0
DWIDTH 12 0
BBX 12 12 0 -2
BITMAP
0900
0000
1f80
1000
1000
1f00
1000
1000
1f80
0000
0000
0000
ENDCHAR
STARTCHAR K+2C28
ENCODING 11304
SWIDTH 960 0
DWIDTH 12 0
BBX 12 12 0 -2
BITMAP
2220
1240
0a80
0a80
0f80
0a80
0a80
1240
2220
0000
0000
0000
ENDCHAR
STARTCHAR K+2C29
ENCODING 11305
SWIDTH 960 0
DWIDTH 12 0
BBX 12 12 0 -2
BITMAP
0700
0880
0080
0080
0300
0080
0080
0880
0700
0000
0000
0000
ENDCHAR
STARTCHAR K+2C2A
ENCODING 11306
SWIDTH 960 0
DWIDTH 12 0
BBX 12 12 0 -2
BITMAP
1080
1180
1180
1280
1280
1480
1480
1880
1880
0000
0000
0000
ENDCHAR
STARTCHAR K+2C2B
ENCODING 11307
SWIDTH 960 0
DWIDTH 12 0
BBX 12 12 0 -2
BITMAP
0900
0600
0000
1080
1080
1180
1280
1480
1880
1080
0000
0000
ENDCHAR
STARTCHAR K+2C2C
ENCODING 11308
SWIDTH 960 0
DWIDTH 12 0
BBX 12 12 0 -2
BITMAP
0840
0880
0900
0a00
0c00
0a00
0900
0880
0840
0000
0000
0000
ENDCHAR
STARTCHAR K+2C2D
ENCODING 11309
SWIDTH 960 0
DWIDTH 12 0
BBX 12 12 0 -2
BITMAP
0fc0
0880
0880
0880
0880
0880
0880
1080
6080
0000
0000
0000
ENDCHAR
STARTCHAR K+2C2E
ENCODING 11310
SWIDTH 960 0
DWIDTH 12 0
BBX 12 12 0 -2
BITMAP
1040
18c0
18c0
1540
1540
1240
1240
1040
1040
0000
0000
0000
ENDCHAR
STARTCHAR K+2C2F
ENCODING 11311
SWIDTH 960 0
DWIDTH 12 0
BBX 12 12 0 -2
BITMAP
1080
1080
1080
1080
1f80
1080
1080
1080
1080
0000
0000
0000
ENDCHAR
STARTCHAR K+2C30
ENCODING 11312
SWIDTH 960 0
DWIDTH 12 0
BBX 12 12 0 -2
BITMAP
0700
0880
1040
1040
1040
1040
1040
0880
0700
0000
0000
0000
ENDCHAR
STARTCHAR K+2C31
ENCODING 11313
SWIDTH 960 0
DWIDTH 12 0
BBX 12 12 0 -2
BITMAP
1f80
1080
1080
1080
1080
1080
1080
1080
1080
0000
0000
0000
ENDCHAR
STARTCHAR K+2C32
ENCODING 11314
SWIDTH 960 0
DWIDTH 12 0
BBX 12 12 0 -2
BITMAP
0f00
0880
0880
0880
0880
0f00
0800
0800
0800
0000
0000
0000
ENDCHAR
STARTCHAR K+2C33
ENCODING 11315
SWIDTH 960 0
DWIDTH 12 0
BBX 12 12 0 -2
BITMAP
0700
0880
1000
1000
1000
1000
1000
0880
0700
0000
0000
0000
ENDCHAR
STARTCHAR K+2C34
ENCODING 11316
SWIDTH 960 0
DWIDTH 12 0
BBX 12 12 0 -2
BITMAP
1fc0
0200
0200
0200
0200
0200
0200
0200
0200
0000
0000
0000
ENDCHAR
STARTCHAR K+2C35
ENCODING 11317
SWIDTH 960 0
DWIDTH 12 0
BBX 12 12 0 -2
BITMAP
1040
1040
0880
0880
0500
0500
0200
0400
1800
0000
0000
0000
ENDCHAR
STARTCHAR K+2C36
ENCODING 11318
SWIDTH 960 0
DWIDTH 12 0
BBX 12 12 0 -2
BITMAP
0200
0700
0a80
1240
1240
1240
0a80
0700
0200
0000
0000
0000
ENDCHAR
STARTCHAR K+2C37
ENCODING 11319
SWIDTH 960 0
DWIDTH 12 0
BBX 12 12 0 -2
BITMAP
1040
1040
0880
0500
0200
0500
0880
1040
1040
0000
0000
0000
ENDCHAR
STARTCHAR K+2C38
ENCODING 11320
SWIDTH 960 0
DWIDTH 12 0
BBX 12 12 0 -2
BITMAP
1080
1080
1080
1080
1080
1080
1080
1080
1fc0
0040
0000
0000
ENDCHAR
STARTCHAR K+2C39
ENCODING 11321
SWIDTH 960 0
DWIDTH 12 0
BBX 12 12 0 -2
BITMAP
1080
1080
1080
1080
1080
0f80
0080
0080
0080
0000
0000
0000
ENDCHAR
STARTCHAR K+2C3A
ENCODING 11322
SWIDTH 960 0
DWIDTH 12 0
BBX 12 12 0 -2
BITMAP
1240
1240
1240
1240
1240
1240
1240
1240
1fc0
0000
0000
0000
ENDCHAR
STARTCHAR K+2C3B
ENCODING 11323
SWIDTH 960 0
DWIDTH 12 0
BBX 12 12 0 -2
BITMAP
1240
1240
1240
1240
1240
1240
1240
1240
1fe0
0020
0000
0000
ENDCHAR
STARTCHAR K+2C3C
ENCODING 11324
SWIDTH 960 0
DWIDTH 12 0
BBX 12 12 0 -2
BITMAP
1c00
0400
0400
0780
0440
0440
0440
0440
0780
0000
0000
0000
ENDCHAR
STARTCHAR K+2C3D
ENCODING 11325
SWIDTH 960 0
DWIDTH 12 0
BBX 12 12 0 -2
BITMAP
1040
1040
1040
1c40
1240
1240
1240
1240
1c40
0000
0000
0000
ENDCHAR
STARTCHAR K+2C3E
ENCODING 11326
SWIDTH 960 0
DWIDTH 12 0
BBX 12 12 0 -2
BITMAP
0800
0800
0800
0e00
0900
0900
0900
0900
0e00
0000
0000
0000
ENDCHAR
STARTCHAR K+2C3F
ENCODING 11327
SWIDTH 960 0
DWIDTH 12 0
BBX 12 12 0 -2
BITMAP
0700
0880
1040
0040
07c0
0040
1040
0880
0700
0000
0000
0000
ENDCHAR
STARTCHAR K+2C40
ENCODING 11328
SWIDTH 960 0
DWIDTH 12 0
BBX 12 12 0 -2
BITMAP
2180
2240
2420
2420
3c20
2420
2420
2240
2180
0000
0000
0000
ENDCHAR
STARTCHAR K+2C41
ENCODING 11329
SWIDTH 960 0
DWIDTH 12 0
BBX 12 12 0 -2
BITMAP
0780
0880
0880
0880
0780
0480
0880
0880
1080
0000
0000
0000
ENDCHAR
STARTCHAR K+2C51
ENCODING 11345
SWIDTH 960 0
DWIDTH 12 0
BBX 12 12 0 -2
BITMAP
0000
0000
0000
0600
0900
0700
0900
0900
0680
0000
0000
0000
ENDCHAR
STARTCHAR K+2C52
ENCODING 11346
SWIDTH 960 0
DWIDTH 12 0
BBX 12 12 0 -2
BITMAP
0100
0600
0800
0e00
0900
0900
0900
0900
0600
0000
0000
0000
ENDCHAR
STARTCHAR K+2C53
ENCODING 11347
SWIDTH 960 0
DWIDTH 12 0
BBX 12 12 0 -2
BITMAP
0000
0000
0000
0e00
0900
0e00
0900
0900
0e00
0000
0000
0000
ENDCHAR
STARTCHAR K+2C54
ENCODING 11348
SWIDTH 960 0
DWIDTH 12 0
BBX 12 12 0 -2
BITMAP
0000
0000
0000
0f00
0800
0800
0800
0800
0800
0000
0000
0000
ENDCHAR
STARTCHAR K+2C55
ENCODING 11349
SWIDTH 960 0
DWIDTH 12 0
BBX 12 12 0 -2
BITMAP
0000
0000
0000
0700
0500
0500
0500
0f00
0880
1080
0000
0000
ENDCHAR
STARTCHAR K+2C56
ENCODING 11350
SWIDTH 960 0
DWIDTH 12 0
BBX 12 12 0 -2
BITMAP
0000
0000
0000
0700
0880
0f80
0800
0880
0700
0000
0000
0000
ENDCHAR
STARTCHAR K+2C57
ENCODING 11351
SWIDTH 960 0
DWIDTH 12 0
BBX 12 12 0 -2
BITMAP
0000
0880
0000
0700
0880
0f80
0800
0880
0700
0000
0000
0000
ENDCHAR
STARTCHAR K+2C58
ENCODING 11352
SWIDTH 960 0
DWIDTH 12 0
BBX 12 12 0 -2
BITMAP
0000
0000
0000
1240
0a80
0f80
0a80
0a80
1240
0000
0000
0000
ENDCHAR
STARTCHAR K+2C59
ENCODING 11353
SWIDTH 960 0
DWIDTH 12 0
BBX 12 12 0 -2
BITMAP
0000
0000
0000
0e00
1100
0600
0100
1100
0e00
0000
0000
0000
ENDCHAR
STARTCHAR K+2C5A
ENCODING 11354
SWIDTH 960 0
DWIDTH 12 0
BBX 12 12 0 -2
BITMAP
0000
0000
0000
0880
0980
0a80
0c80
0880
0880
0000
0000
0000
ENDCHAR
STARTCHAR K+2C5B
ENCODING 11355
SWIDTH 960 0
DWIDTH 12 0
BBX 12 12 0 -2
BITMAP
0880
0700
0000
0880
0980
0a80
0c80
0880
0880
0000
0000
0000
ENDCHAR
STARTCHAR K+2C5C
ENCODING 11356
SWIDTH 960 0
DWIDTH 12 0
BBX 12 12 0 -2
BITMAP
0000
0000
0000
0900
0a00
0c00
0c00
0a00
0900
0000
0000
0000
ENDCHAR
STARTCHAR K+2C5D
ENCODING 11357
SWIDTH 960 0
DWIDTH 12 0
BBX 12 12 0 -2
BITMAP
0000
0000
0000
0f00
0900
0900
0900
0900
1100
0000
0000
0000
ENDCHAR
STARTCHAR K+2C5E
ENCODING 11358
SWIDTH 960 0
DWIDTH 12 0
BBX 12 12 0 -2
BITMAP
0000
0000
0000
18c0
18c0
1540
1540
1240
1240
0000
0000
0000
ENDCHAR
STARTCHAR K+2C5F
ENCODING 11359
SWIDTH 960 0
DWIDTH 12 0
BBX 12 12 0 -2
BITMAP
0000
0000
0000
0880
0880
0f80
0880
0880
0880
0000
0000
0000
ENDCHAR
STARTCHAR K+2C60
ENCODING 11360
SWIDTH 960 0
DWIDTH 12 0
BBX 12 12 0 -2
BITMAP
0000
0000
0000
0700
0880
0880
0880
0880
0700
0000
0000
0000
ENDCHAR
STARTCHAR K+2C61
ENCODING 11361
SWIDTH 960 0
DWIDTH 12 0
BBX 12 12 0 -2
BITMAP
0000
0000
0000
0f80
0880
0880
0880
0880
0880
0000
0000
0000
ENDCHAR
STARTCHAR K+2C62
ENCODING 11362
SWIDTH 960 0
DWIDTH 12 0
BBX 12 12 0 -2
BITMAP
0000
0000
0000
0f00
0880
0880
0880
0f00
0800
0800
0000
0000
ENDCHAR
STARTCHAR K+2C63
ENCODING 11363
SWIDTH 960 0
DWIDTH 12 0
BBX 12 12 0 -2
BITMAP
0000
0000
0000
0e00
1100
1000
1000
1100
0e00
0000
0000
0000
ENDCHAR
STARTCHAR K+2C64
ENCODING 11364
SWIDTH 960 0
DWIDTH 12 0
BBX 12 12 0 -2
BITMAP
0000
0000
0000
0f80
0200
0200
0200
0200
0200
0000
0000
0000
ENDCHAR
STARTCHAR K+2C65
ENCODING 11365
SWIDTH 960 0
DWIDTH 12 0
BBX 12 12 0 -2
BITMAP
0000
0000
0000
0880
0880
0500
0500
0200
0400
1800
0000
0000
ENDCHAR
STARTCHAR K+2C66
ENCODING 11366
SWIDTH 960 0
DWIDTH 12 0
BBX 12 12 0 -2
BITMAP
0200
0200
0a80
1740
1240
1240
1740
0a80
0200
0000
0000
0000
ENDCHAR
STARTCHAR K+2C67
ENCODING 11367
SWIDTH 960 0
DWIDTH 12 0
BBX 12 12 0 -2
BITMAP
0000
0000
0000
0880
0500
0200
0200
0500
0880
0000
0000
0000
ENDCHAR
STARTCHAR K+2C68
ENCODING 11368
SWIDTH 960 0
DWIDTH 12 0
BBX 12 12 0 -2
BITMAP
0000
0000
0000
1100
1100
1100
1100
1100
1f80
0080
0000
0000
ENDCHAR
STARTCHAR K+2C69
ENCODING 11369
SWIDTH 960 0
DWIDTH 12 0
BBX 12 12 0 -2
BITMAP
0000
0000
0000
1100
1100
1100
0f00
0100
0100
0000
0000
0000
ENDCHAR
STARTCHAR K+2C6A
ENCODING 11370
SWIDTH 960 0
DWIDTH 12 0
BBX 12 12 0 -2
BITMAP
0000
0000
0000
1240
1240
1240
1240
1240
1fc0
0000
0000
0000
ENDCHAR
STARTCHAR K+2C6B
ENCODING 11371
SWIDTH 960 0
DWIDTH 12 0
BBX 12 12 0 -2
BITMAP
0000
0000
0000
1240
1240
1240
1240
1240
1fe0
0020
0000
0000
ENDCHAR
STARTCHAR K+2C6C
ENCODING 11372
SWIDTH 960 0
DWIDTH 12 0
BBX 12 12 0 -2
BITMAP
0000
0000
0000
1c00
0400
0700
0480
0480
0700
0000
0000
0000
ENDCHAR
STARTCHAR K+2C6D
ENCODING 11373
SWIDTH 960 0
DWIDTH 12 0
BBX 12 12 0 -2
BITMAP
0000
0000
0000
1080
1080
1c80
1280
1280
1c80
0000
0000
0000
ENDCHAR
STARTCHAR K+2C6E
ENCODING 11374
SWIDTH 960 0
DWIDTH 12 0
BBX 12 12 0 -2
BITMAP
0000
0000
0000
0400
0400
0700
0480
0480
0700
0000
0000
0000
ENDCHAR
STARTCHAR K+2C6F
ENCODING 11375
SWIDTH 960 0
DWIDTH 12 0
BBX 12 12 0 -2
BITMAP
0000
0000
0000
0700
0880
0380
0080
0880
0700
0000
0000
0000
ENDCHAR
STARTCHAR K+2C70
ENCODING 11376
SWIDTH 960 0
DWIDTH 12 0
BBX 12 12 0 -2
BITMAP
0000
0000
0000
1180
1240
1e40
1240
1240
1180
0000
0000
0000
ENDCHAR
STARTCHAR K+2C71
ENCODING 11377
SWIDTH 960 0
DWIDTH 12 0
BBX 12 12 0 -2
BITMAP
0000
0000
0000
0780
0880
0780
0480
0880
0880
0000
0000
0000
ENDCHAR
STARTCHAR K+3021
ENCODING 12321
SWIDTH 960 0
DWIDTH 12 0
BBX 12 12 0 -2
BITMAP
7e40
0240
0240
0240
0270
0440
0440
1840
6040
0040
0040
0000
ENDCHAR
STARTCHAR K+3022
ENCODING 12322
SWIDTH 960 0
DWIDTH 12 0
BBX 12 12 0 -2
BITMAP
7e40
0240
0270
0440
1840
6040
0000
3fc0
0040
0040
0040
0000
ENDCHAR
STARTCHAR K+3023
ENCODING 12323
SWIDTH 960 0
DWIDTH 12 0
BBX 12 12 0 -2
BITMAP
7e40
0240
0270
0240
0440
1840
6040
0040
2000
2000
1fc0
0000
ENDCHAR
STARTCHAR K+3024
ENCODING 12324
SWIDTH 960 0
DWIDTH 12 0
BBX 12 12 0 -2
BITMAP
7e40
0240
0270
0440
1840
6040
0000
3fc0
2000
2000
1fc0
0000
ENDCHAR
STARTCHAR K+3025
ENCODING 12325
SWIDTH 960 0
DWIDTH 12 0
BBX 12 12 0 -2
BITMAP
7e40
0240
0470
1840
6040
0040
3fc0
0040
3fc0
2000
1fc0
0000
ENDCHAR
STARTCHAR K+3026
ENCODING 12326
SWIDTH 960 0
DWIDTH 12 0
BBX 12 12 0 -2
BITMAP
7e40
0240
0470
1840
6040
0040
3dc0
0440
3c40
2040
1c40
0000
ENDCHAR
STARTCHAR K+3027
ENCODING 12327
SWIDTH 960 0
DWIDTH 12 0
BBX 12 12 0 -2
BITMAP
7e40
0240
0470
1840
6040
0040
3dc0
0540
3d40
2140
1cc0
0000
ENDCHAR
STARTCHAR K+3028
ENCODING 12328
SWIDTH 960 0
DWIDTH 12 0
BBX 12 12 0 -2
BITMAP
7e40
0240
0270
0440
1840
6040
0000
3fc0
2040
2040
1fc0
0000
ENDCHAR
STARTCHAR K+3029
ENCODING 12329
SWIDTH 960 0
DWIDTH 12 0
BBX 12 12 0 -2
BITMAP
7e40
0240
0270
0440
1840
6040
0000
2040
3fc0
2040
1fc0
0000
ENDCHAR
STARTCHAR K+302A
ENCODING 12330
SWIDTH 960 0
DWIDTH 12 0
BBX 12 12 0 -2
BITMAP
7e40
0240
0270
0440
1840
6040
0000
2480
3c80
2540
1e20
0000
ENDCHAR
STARTCHAR K+302B
ENCODING 12331
SWIDTH 960 0
DWIDTH 12 0
BBX 12 12 0 -2
BITMAP
7e40
0240
0270
0440
1840
6040
0000
0200
0200
0d80
3060
0000
ENDCHAR
STARTCHAR K+302C
ENCODING 12332
SWIDTH 960 0
DWIDTH 12 0
BBX 12 12 0 -2
BITMAP
7e40
0240
0270
0440
1840
6040
0000
0880
0880
1540
2220
0000
ENDCHAR
STARTCHAR K+302D
ENCODING 12333
SWIDTH 960 0
DWIDTH 12 0
BBX 12 12 0 -2
BITMAP
7e40
0240
0270
0440
1840
6040
0000
1f80
2040
2040
1f80
0000
ENDCHAR
STARTCHAR K+302E
ENCODING 12334
SWIDTH 960 0
DWIDTH 12 0
BBX 12 12 0 -2
BITMAP
7e40
0240
0270
0440
1840
6040
0000
3fc0
0200
0500
38c0
0000
ENDCHAR
STARTCHAR K+302F
ENCODING 12335
SWIDTH 960 0
DWIDTH 12 0
BBX 12 12 0 -2
BITMAP
7e40
0240
0470
1840
6040
0040
0700
0000
3fc0
0500
38c0
0000
ENDCHAR
STARTCHAR K+3030
ENCODING 12336
SWIDTH 960 0
DWIDTH 12 0
BBX 12 12 0 -2
BITMAP
7e40
0240
0470
1840
6040
0040
3fc0
2000
3fc0
2000
1fc0
0000
ENDCHAR
STARTCHAR K+3031
ENCODING 12337
SWIDTH 960 0
DWIDTH 12 0
BBX 12 12 0 -2
BITMAP
7e40
0240
0270
0440
1840
6040
0000
3fc0
0900
0900
3fc0
0000
ENDCHAR
STARTCHAR K+3032
ENCODING 12338
SWIDTH 960 0
DWIDTH 12 0
BBX 12 12 0 -2
BITMAP
7e40
0240
0470
1840
6040
0040
0700
0000
7fe0
1080
0f00
0000
ENDCHAR
STARTCHAR K+3033
ENCODING 12339
SWIDTH 960 0
DWIDTH 12 0
BBX 12 12 0 -2
BITMAP
7a40
0a40
0a40
0a40
0bc0
1240
1240
2240
4240
0240
0240
0000
ENDCHAR
STARTCHAR K+3034
ENCODING 12340
SWIDTH 960 0
DWIDTH 12 0
BBX 12 12 0 -2
BITMAP
7d40
0540
05c0
0540
1940
6140
0000
3fc0
0040
0040
0040
0000
ENDCHAR
STARTCHAR K+3035
ENCODING 12341
SWIDTH 960 0
DWIDTH 12 0
BBX 12 12 0 -2
BITMAP
7d40
0540
05c0
0540
1940
6140
0140
0040
2000
2000
1fc0
0000
ENDCHAR
STARTCHAR K+3036
ENCODING 12342
SWIDTH 960 0
DWIDTH 12 0
BBX 12 12 0 -2
BITMAP
7d40
0540
05c0
1940
6140
0140
3fc0
0040
3fc0
2000
1fc0
0000
ENDCHAR
STARTCHAR K+3037
ENCODING 12343
SWIDTH 960 0
DWIDTH 12 0
BBX 12 12 0 -2
BITMAP
7d40
0540
05c0
0540
1940
6140
0000
3fc0
2040
2040
1fc0
0000
ENDCHAR
STARTCHAR K+3038
ENCODING 12344
SWIDTH 960 0
DWIDTH 12 0
BBX 12 12 0 -2
BITMAP
7d40
0540
05c0
0540
1940
6140
0000
2040
3fc0
2040
1fc0
0000
ENDCHAR
STARTCHAR K+3039
ENCODING 12345
SWIDTH 960 0
DWIDTH 12 0
BBX 12 12 0 -2
BITMAP
7d40
0540
05c0
0540
1940
6140
0000
0200
0200
0d80
3060
0000
ENDCHAR
STARTCHAR K+303A
ENCODING 12346
SWIDTH 960 0
DWIDTH 12 0
BBX 12 12 0 -2
BITMAP
7d40
0540
05c0
0540
1940
6140
0000
0880
0880
1540
2220
0000
ENDCHAR
STARTCHAR K+303B
ENCODING 12347
SWIDTH 960 0
DWIDTH 12 0
BBX 12 12 0 -2
BITMAP
7d40
0540
05c0
0540
1940
6140
0000
1f80
2040
2040
1f80
0000
ENDCHAR
STARTCHAR K+303C
ENCODING 12348
SWIDTH 960 0
DWIDTH 12 0
BBX 12 12 0 -2
BITMAP
7e40
0240
0270
0240
0240
0440
0470
1840
6040
0040
0040
0000
ENDCHAR
STARTCHAR K+303D
ENCODING 12349
SWIDTH 960 0
DWIDTH 12 0
BBX 12 12 0 -2
BITMAP
7e40
0270
0240
0470
1840
6040
0000
3fc0
0040
0040
0040
0000
ENDCHAR
STARTCHAR K+303E
ENCODING 12350
SWIDTH 960 0
DWIDTH 12 0
BBX 12 12 0 -2
BITMAP
7e40
0270
0240
0240
0470
1840
6040
0040
2000
2000
1fc0
0000
ENDCHAR
STARTCHAR K+303F
ENCODING 12351
SWIDTH 960 0
DWIDTH 12 0
BBX 12 12 0 -2
BITMAP
7e40
0270
0440
1870
6040
0040
3fc0
0040
3fc0
2000
1fc0
0000
ENDCHAR
STARTCHAR K+3040
ENCODING 12352
SWIDTH 960 0
DWIDTH 12 0
BBX 12 12 0 -2
BITMAP
7e40
0270
0240
0470
1840
6040
0000
0200
0200
0d80
3060
0000
ENDCHAR
STARTCHAR K+3041
ENCODING 12353
SWIDTH 960 0
DWIDTH 12 0
BBX 12 12 0 -2
BITMAP
7e40
0270
0240
0470
1840
6040
0000
1f80
2040
2040
1f80
0000
ENDCHAR
STARTCHAR K+3042
ENCODING 12354
SWIDTH 960 0
DWIDTH 12 0
BBX 12 12 0 -2
BITMAP
7a40
0a40
0bc0
0a40
0a40
1240
13c0
2240
4240
0240
0240
0000
ENDCHAR
STARTCHAR K+3043
ENCODING 12355
SWIDTH 960 0
DWIDTH 12 0
BBX 12 12 0 -2
BITMAP
7d40
05c0
0540
05c0
1940
6140
0140
0040
2000
2000
1fc0
0000
ENDCHAR
STARTCHAR K+3044
ENCODING 12356
SWIDTH 960 0
DWIDTH 12 0
BBX 12 12 0 -2
BITMAP
7d40
05c0
0540
19c0
6140
0140
3fc0
0040
3fc0
2000
1fc0
0000
ENDCHAR
STARTCHAR K+3045
ENCODING 12357
SWIDTH 960 0
DWIDTH 12 0
BBX 12 12 0 -2
BITMAP
7e40
0240
0240
0240
03c0
0440
0440
1840
6040
0040
0040
0000
ENDCHAR
STARTCHAR K+3046
ENCODING 12358
SWIDTH 960 0
DWIDTH 12 0
BBX 12 12 0 -2
BITMAP
7e40
0240
03c0
0440
1840
6040
0000
3fc0
0040
0040
0040
0000
ENDCHAR
STARTCHAR K+3047
ENCODING 12359
SWIDTH 960 0
DWIDTH 12 0
BBX 12 12 0 -2
BITMAP
7e40
0240
03c0
0240
0440
1840
6040
0040
2000
2000
1fc0
0000
ENDCHAR
STARTCHAR K+3048
ENCODING 12360
SWIDTH 960 0
DWIDTH 12 0
BBX 12 12 0 -2
BITMAP
7e40
0240
03c0
0440
1840
6040
0000
3fc0
2000
2000
1fc0
0000
ENDCHAR
STARTCHAR K+3049
ENCODING 12361
SWIDTH 960 0
DWIDTH 12 0
BBX 12 12 0 -2
BITMAP
7e40
0240
05c0
1840
6040
0040
3fc0
0040
3fc0
2000
1fc0
0000
ENDCHAR
STARTCHAR K+304A
ENCODING 12362
SWIDTH 960 0
DWIDTH 12 0
BBX 12 12 0 -2
BITMAP
7e40
0240
05c0
1840
6040
0040
3dc0
0540
3d40
2140
1cc0
0000
ENDCHAR
STARTCHAR K+304B
ENCODING 12363
SWIDTH 960 0
DWIDTH 12 0
BBX 12 12 0 -2
BITMAP
7e40
0240
03c0
0440
1840
6040
0000
3fc0
2040
2040
1fc0
0000
ENDCHAR
STARTCHAR K+304C
ENCODING 12364
SWIDTH 960 0
DWIDTH 12 0
BBX 12 12 0 -2
BITMAP
7e40
0240
03c0
0440
1840
6040
0000
2040
3fc0
2040
1fc0
0000
ENDCHAR
STARTCHAR K+304D
ENCODING 12365
SWIDTH 960 0
DWIDTH 12 0
BBX 12 12 0 -2
BITMAP
7e40
0240
03c0
0440
1840
6040
0000
0200
0200
0d80
3060
0000
ENDCHAR
STARTCHAR K+304E
ENCODING 12366
SWIDTH 960 0
DWIDTH 12 0
BBX 12 12 0 -2
BITMAP
7e40
0240
03c0
0440
1840
6040
0000
0880
0880
1540
2220
0000
ENDCHAR
STARTCHAR K+304F
ENCODING 12367
SWIDTH 960 0
DWIDTH 12 0
BBX 12 12 0 -2
BITMAP
7e40
0240
03c0
0440
1840
6040
0000
1f80
2040
2040
1f80
0000
ENDCHAR
STARTCHAR K+3050
ENCODING 12368
SWIDTH 960 0
DWIDTH 12 0
BBX 12 12 0 -2
BITMAP
7e40
0240
03c0
0440
1840
6040
0000
3fc0
0200
0500
38c0
0000
ENDCHAR
STARTCHAR K+3051
ENCODING 12369
SWIDTH 960 0
DWIDTH 12 0
BBX 12 12 0 -2
BITMAP
7e40
0240
05c0
1840
6040
0040
3fc0
2000
3fc0
2000
1fc0
0000
ENDCHAR
STARTCHAR K+3052
ENCODING 12370
SWIDTH 960 0
DWIDTH 12 0
BBX 12 12 0 -2
BITMAP
7e40
0240
03c0
0440
1840
6040
0000
3fc0
0900
0900
3fc0
0000
ENDCHAR
STARTCHAR K+3053
ENCODING 12371
SWIDTH 960 0
DWIDTH 12 0
BBX 12 12 0 -2
BITMAP
7e40
0240
05c0
1840
6040
0040
0700
0000
7fe0
1080
0f00
0000
ENDCHAR
STARTCHAR K+3054
ENCODING 12372
SWIDTH 960 0
DWIDTH 12 0
BBX 12 12 0 -2
BITMAP
7940
0940
0940
0940
0f40
1140
1140
2140
4140
0140
0140
0000
ENDCHAR
STARTCHAR K+3055
ENCODING 12373
SWIDTH 960 0
DWIDTH 12 0
BBX 12 12 0 -2
BITMAP
7d40
0540
0740
0540
1940
6140
0140
0040
2000
2000
1fc0
0000
ENDCHAR
STARTCHAR K+3056
ENCODING 12374
SWIDTH 960 0
DWIDTH 12 0
BBX 12 12 0 -2
BITMAP
7d40
0540
0740
1940
6140
0140
3fc0
0040
3fc0
2000
1fc0
0000
ENDCHAR
STARTCHAR K+3057
ENCODING 12375
SWIDTH 960 0
DWIDTH 12 0
BBX 12 12 0 -2
BITMAP
7d40
0540
0740
0540
1940
6140
0000
3fc0
2040
2040
1fc0
0000
ENDCHAR
STARTCHAR K+3058
ENCODING 12376
SWIDTH 960 0
DWIDTH 12 0
BBX 12 12 0 -2
BITMAP
7d40
0540
0740
0540
1940
6140
0000
2040
3fc0
2040
1fc0
0000
ENDCHAR
STARTCHAR K+3059
ENCODING 12377
SWIDTH 960 0
DWIDTH 12 0
BBX 12 12 0 -2
BITMAP
7d40
0540
0740
0540
1940
6140
0000
0200
0200
0d80
3060
0000
ENDCHAR
STARTCHAR K+305A
ENCODING 12378
SWIDTH 960 0
DWIDTH 12 0
BBX 12 12 0 -2
BITMAP
7d40
0540
0740
0540
1940
6140
0000
0880
0880
1540
2220
0000
ENDCHAR
STARTCHAR K+305B
ENCODING 12379
SWIDTH 960 0
DWIDTH 12 0
BBX 12 12 0 -2
BITMAP
7d40
0540
0740
0540
1940
6140
0000
1f80
2040
2040
1f80
0000
ENDCHAR
STARTCHAR K+305C
ENCODING 12380
SWIDTH 960 0
DWIDTH 12 0
BBX 12 12 0 -2
BITMAP
7e40
0240
03c0
0240
0240
05c0
0440
1840
6040
0040
0040
0000
ENDCHAR
STARTCHAR K+305D
ENCODING 12381
SWIDTH 960 0
DWIDTH 12 0
BBX 12 12 0 -2
BITMAP
7e40
03c0
0240
05c0
1840
6040
0000
3fc0
0040
0040
0040
0000
ENDCHAR
STARTCHAR K+305E
ENCODING 12382
SWIDTH 960 0
DWIDTH 12 0
BBX 12 12 0 -2
BITMAP
7e40
03c0
0240
05c0
1840
6040
0000
3fc0
0440
0440
0440
0000
ENDCHAR
STARTCHAR K+305F
ENCODING 12383
SWIDTH 960 0
DWIDTH 12 0
BBX 12 12 0 -2
BITMAP
7e40
03c0
0240
03c0
0440
1840
6040
0040
2000
2000
1fc0
0000
ENDCHAR
STARTCHAR K+3060
ENCODING 12384
SWIDTH 960 0
DWIDTH 12 0
BBX 12 12 0 -2
BITMAP
7e40
03c0
0240
05c0
1840
6040
0000
3fc0
2000
2000
1fc0
0000
ENDCHAR
STARTCHAR K+3061
ENCODING 12385
SWIDTH 960 0
DWIDTH 12 0
BBX 12 12 0 -2
BITMAP
7e40
03c0
0440
19c0
6040
0040
3fc0
0040
3fc0
2000
1fc0
0000
ENDCHAR
STARTCHAR K+3062
ENCODING 12386
SWIDTH 960 0
DWIDTH 12 0
BBX 12 12 0 -2
BITMAP
7e40
03c0
0240
05c0
1840
6040
0000
3fc0
2040
2040
1fc0
0000
ENDCHAR
STARTCHAR K+3063
ENCODING 12387
SWIDTH 960 0
DWIDTH 12 0
BBX 12 12 0 -2
BITMAP
7e40
03c0
0240
05c0
1840
6040
0000
2040
3fc0
2040
1fc0
0000
ENDCHAR
STARTCHAR K+3064
ENCODING 12388
SWIDTH 960 0
DWIDTH 12 0
BBX 12 12 0 -2
BITMAP
7e40
03c0
0240
05c0
1840
6040
0000
0200
0200
0d80
3060
0000
ENDCHAR
STARTCHAR K+3065
ENCODING 12389
SWIDTH 960 0
DWIDTH 12 0
BBX 12 12 0 -2
BITMAP
7e40
03c0
0240
05c0
1840
6040
0000
0880
0880
1540
2220
0000
ENDCHAR
STARTCHAR K+3066
ENCODING 12390
SWIDTH 960 0
DWIDTH 12 0
BBX 12 12 0 -2
BITMAP
7e40
03c0
0240
05c0
1840
6040
0000
1f80
2040
2040
1f80
0000
ENDCHAR
STARTCHAR K+3067
ENCODING 12391
SWIDTH 960 0
DWIDTH 12 0
BBX 12 12 0 -2
BITMAP
7e40
03c0
0440
19c0
6040
0040
3fc0
2000
3fc0
2000
1fc0
0000
ENDCHAR
STARTCHAR K+3068
ENCODING 12392
SWIDTH 960 0
DWIDTH 12 0
BBX 12 12 0 -2
BITMAP
7940
0940
0f40
0940
0940
1740
1140
2140
4140
0140
0140
0000
ENDCHAR
STARTCHAR K+3069
ENCODING 12393
SWIDTH 960 0
DWIDTH 12 0
BBX 12 12 0 -2
BITMAP
7d40
0740
0540
0740
1940
6140
0140
0040
2000
2000
1fc0
0000
ENDCHAR
STARTCHAR K+306A
ENCODING 12394
SWIDTH 960 0
DWIDTH 12 0
BBX 12 12 0 -2
BITMAP
7d40
0740
0540
1f40
6140
0140
3fc0
0040
3fc0
2000
1fc0
0000
ENDCHAR
STARTCHAR K+306B
ENCODING 12395
SWIDTH 960 0
DWIDTH 12 0
BBX 12 12 0 -2
BITMAP
7d40
0740
0540
0740
1940
6140
0000
2040
3fc0
2040
1fc0
0000
ENDCHAR
STARTCHAR K+306C
ENCODING 12396
SWIDTH 960 0
DWIDTH 12 0
BBX 12 12 0 -2
BITMAP
7d40
0740
0540
0740
1940
6140
0000
0200
0200
0d80
3060
0000
ENDCHAR
STARTCHAR K+306D
ENCODING 12397
SWIDTH 960 0
DWIDTH 12 0
BBX 12 12 0 -2
BITMAP
3fc0
0040
0040
0040
0040
0440
0440
0480
0400
7fe0
0000
0000
ENDCHAR
STARTCHAR K+306E
ENCODING 12398
SWIDTH 960 0
DWIDTH 12 0
BBX 12 12 0 -2
BITMAP
3fc0
0040
0040
0440
0480
7fe0
0000
3fc0
0040
0040
0040
0000
ENDCHAR
STARTCHAR K+306F
ENCODING 12399
SWIDTH 960 0
DWIDTH 12 0
BBX 12 12 0 -2
BITMAP
3fc0
0040
0040
0440
0480
7fe0
0000
0000
2000
2000
1fc0
0000
ENDCHAR
STARTCHAR K+3070
ENCODING 12400
SWIDTH 960 0
DWIDTH 12 0
BBX 12 12 0 -2
BITMAP
3fc0
0040
0040
0440
0480
7fe0
0000
3fc0
2000
2000
1fc0
0000
ENDCHAR
STARTCHAR K+3071
ENCODING 12401
SWIDTH 960 0
DWIDTH 12 0
BBX 12 12 0 -2
BITMAP
3fc0
0040
0440
0480
7fe0
0000
3fc0
0040
3fc0
2000
1fc0
0000
ENDCHAR
STARTCHAR K+3072
ENCODING 12402
SWIDTH 960 0
DWIDTH 12 0
BBX 12 12 0 -2
BITMAP
3fc0
0040
0440
0480
7fe0
0000
3dc0
0540
3d40
2140
1cc0
0000
ENDCHAR
STARTCHAR K+3073
ENCODING 12403
SWIDTH 960 0
DWIDTH 12 0
BBX 12 12 0 -2
BITMAP
3fc0
0040
0440
0480
7fe0
0000
3c80
0480
3c80
2140
1e20
0000
ENDCHAR
STARTCHAR K+3074
ENCODING 12404
SWIDTH 960 0
DWIDTH 12 0
BBX 12 12 0 -2
BITMAP
3fc0
0040
0440
0480
7fe0
0000
3c80
07e0
3d40
2140
1c80
0000
ENDCHAR
STARTCHAR K+3075
ENCODING 12405
SWIDTH 960 0
DWIDTH 12 0
BBX 12 12 0 -2
BITMAP
3fc0
0040
0040
0440
0480
7fe0
0000
3fc0
2040
2040
1fc0
0000
ENDCHAR
STARTCHAR K+3076
ENCODING 12406
SWIDTH 960 0
DWIDTH 12 0
BBX 12 12 0 -2
BITMAP
3fc0
0040
0040
0440
0480
7fe0
0000
2040
3fc0
2040
1fc0
0000
ENDCHAR
STARTCHAR K+3077
ENCODING 12407
SWIDTH 960 0
DWIDTH 12 0
BBX 12 12 0 -2
BITMAP
3fc0
0040
0040
0440
0480
7fe0
0000
0200
0200
0d00
30c0
0000
ENDCHAR
STARTCHAR K+3078
ENCODING 12408
SWIDTH 960 0
DWIDTH 12 0
BBX 12 12 0 -2
BITMAP
3fc0
0040
0040
0440
0480
7fe0
0000
1f80
2040
2040
1f80
0000
ENDCHAR
STARTCHAR K+3079
ENCODING 12409
SWIDTH 960 0
DWIDTH 12 0
BBX 12 12 0 -2
BITMAP
3fc0
0040
0040
0440
0480
7fe0
0000
3fc0
0200
0d00
30c0
0000
ENDCHAR
STARTCHAR K+307A
ENCODING 12410
SWIDTH 960 0
DWIDTH 12 0
BBX 12 12 0 -2
BITMAP
7e40
0240
0240
0240
1270
1240
1440
1040
7f40
0040
0040
0000
ENDCHAR
STARTCHAR K+307B
ENCODING 12411
SWIDTH 960 0
DWIDTH 12 0
BBX 12 12 0 -2
BITMAP
7e40
0240
0240
1270
1440
7f40
0000
3fc0
0040
0040
0040
0000
ENDCHAR
STARTCHAR K+307C
ENCODING 12412
SWIDTH 960 0
DWIDTH 12 0
BBX 12 12 0 -2
BITMAP
7e40
0240
0240
1270
1440
7f40
0040
0000
2000
2000
1fc0
0000
ENDCHAR
STARTCHAR K+307D
ENCODING 12413
SWIDTH 960 0
DWIDTH 12 0
BBX 12 12 0 -2
BITMAP
7e40
0240
1240
1470
7fc0
0000
3fc0
0040
3fc0
2000
1fc0
0000
ENDCHAR
STARTCHAR K+307E
ENCODING 12414
SWIDTH 960 0
DWIDTH 12 0
BBX 12 12 0 -2
BITMAP
7e40
0240
1240
1470
7fc0
0000
3dc0
0540
3d40
2140
1cc0
0000
ENDCHAR
STARTCHAR K+3121
ENCODING 12577
SWIDTH 960 0
DWIDTH 12 0
BBX 12 12 0 -2
BITMAP
7e40
0240
0240
1270
1440
7f40
0000
3fc0
2040
2040
1fc0
0000
ENDCHAR
STARTCHAR K+3122
ENCODING 12578
SWIDTH 960 0
DWIDTH 12 0
BBX 12 12 0 -2
BITMAP
7e40
0240
0240
1270
1440
7f40
0000
2040
3fc0
2040
1fc0
0000
ENDCHAR
STARTCHAR K+3123
ENCODING 12579
SWIDTH 960 0
DWIDTH 12 0
BBX 12 12 0 -2
BITMAP
7e40
0240
0240
1270
1440
7f40
0000
0200
0200
0d80
3060
0000
ENDCHAR
STARTCHAR K+3124
ENCODING 12580
SWIDTH 960 0
DWIDTH 12 0
BBX 12 12 0 -2
BITMAP
7e40
0240
0240
1270
1440
7f40
0000
1f80
2040
2040
1f80
0000
ENDCHAR
STARTCHAR K+3125
ENCODING 12581
SWIDTH 960 0
DWIDTH 12 0
BBX 12 12 0 -2
BITMAP
7d40
0540
0540
0540
25c0
2540
2940
2140
7f40
0140
0140
0000
ENDCHAR
STARTCHAR K+3126
ENCODING 12582
SWIDTH 960 0
DWIDTH 12 0
BBX 12 12 0 -2
BITMAP
7d40
0540
05c0
2940
2140
7f40
0140
0000
2000
2000
1fc0
0000
ENDCHAR
STARTCHAR K+3127
ENCODING 12583
SWIDTH 960 0
DWIDTH 12 0
BBX 12 12 0 -2
BITMAP
7d40
0540
05c0
1940
7f40
0000
3fc0
0040
3fc0
2000
1fc0
0000
ENDCHAR
STARTCHAR K+3128
ENCODING 12584
SWIDTH 960 0
DWIDTH 12 0
BBX 12 12 0 -2
BITMAP
7d40
0540
05c0
2940
2140
7f40
0140
2040
3fc0
2040
1fc0
0000
ENDCHAR
STARTCHAR K+3129
ENCODING 12585
SWIDTH 960 0
DWIDTH 12 0
BBX 12 12 0 -2
BITMAP
7d40
0540
05c0
2940
2140
7f40
0140
0880
0880
1540
2220
0000
ENDCHAR
STARTCHAR K+312A
ENCODING 12586
SWIDTH 960 0
DWIDTH 12 0
BBX 12 12 0 -2
BITMAP
7d40
0540
05c0
2940
2140
7f40
0140
1f80
2040
2040
1f80
0000
ENDCHAR
STARTCHAR K+312B
ENCODING 12587
SWIDTH 960 0
DWIDTH 12 0
BBX 12 12 0 -2
BITMAP
7e40
0240
0240
0240
1240
1240
1440
1040
7f40
0040
0040
0000
ENDCHAR
STARTCHAR K+312C
ENCODING 12588
SWIDTH 960 0
DWIDTH 12 0
BBX 12 12 0 -2
BITMAP
7e40
0240
0240
1240
1440
7f40
0040
3fc0
0040
0040
0040
0000
ENDCHAR
STARTCHAR K+312D
ENCODING 12589
SWIDTH 960 0
DWIDTH 12 0
BBX 12 12 0 -2
BITMAP
7e40
0240
0240
1240
1440
7f40
0040
0000
2000
2000
1fc0
0000
ENDCHAR
STARTCHAR K+312E
ENCODING 12590
SWIDTH 960 0
DWIDTH 12 0
BBX 12 12 0 -2
BITMAP
7e40
0240
1240
1440
7f40
0000
3fc0
0040
3fc0
2000
1fc0
0000
ENDCHAR
STARTCHAR K+312F
ENCODING 12591
SWIDTH 960 0
DWIDTH 12 0
BBX 12 12 0 -2
BITMAP
7e40
0240
0240
1240
1440
7f40
0040
3fc0
2040
2040
1fc0
0000
ENDCHAR
STARTCHAR K+3130
ENCODING 12592
SWIDTH 960 0
DWIDTH 12 0
BBX 12 12 0 -2
BITMAP
7e40
0240
0240
1240
1440
7f40
0040
2040
3fc0
2040
1fc0
0000
ENDCHAR
STARTCHAR K+3131
ENCODING 12593
SWIDTH 960 0
DWIDTH 12 0
BBX 12 12 0 -2
BITMAP
7e40
0240
0240
1240
1440
7f40
0040
0200
0200
0d80
3060
0000
ENDCHAR
STARTCHAR K+3132
ENCODING 12594
SWIDTH 960 0
DWIDTH 12 0
BBX 12 12 0 -2
BITMAP
7e40
0240
0240
1240
1440
7f40
0040
1f80
2040
2040
1f80
0000
ENDCHAR
STARTCHAR K+3133
ENCODING 12595
SWIDTH 960 0
DWIDTH 12 0
BBX 12 12 0 -2
BITMAP
3fc0
0040
0040
0040
1240
1240
1240
1280
1200
7fe0
0000
0000
ENDCHAR
STARTCHAR K+3134
ENCODING 12596
SWIDTH 960 0
DWIDTH 12 0
BBX 12 12 0 -2
BITMAP
3fc0
0040
0040
1240
1280
7fe0
0000
0000
2000
2000
1fc0
0000
ENDCHAR
STARTCHAR K+3135
ENCODING 12597
SWIDTH 960 0
DWIDTH 12 0
BBX 12 12 0 -2
BITMAP
3fc0
0040
1240
1280
7fe0
0000
3fc0
0040
3fc0
2000
1fc0
0000
ENDCHAR
STARTCHAR K+3136
ENCODING 12598
SWIDTH 960 0
DWIDTH 12 0
BBX 12 12 0 -2
BITMAP
3fc0
0040
0040
1240
1280
7fe0
0000
2040
3fc0
2040
1fc0
0000
ENDCHAR
STARTCHAR K+3137
ENCODING 12599
SWIDTH 960 0
DWIDTH 12 0
BBX 12 12 0 -2
BITMAP
3fc0
0040
0040
1240
1280
7fe0
0000
0200
0200
0d00
30c0
0000
ENDCHAR
STARTCHAR K+3138
ENCODING 12600
SWIDTH 960 0
DWIDTH 12 0
BBX 12 12 0 -2
BITMAP
3fc0
0040
0040
0040
0040
0080
7fe0
0200
0200
0200
0200
0000
ENDCHAR
STARTCHAR K+3139
ENCODING 12601
SWIDTH 960 0
DWIDTH 12 0
BBX 12 12 0 -2
BITMAP
3fc0
0040
0040
0080
7fe0
0200
0200
3fc0
0040
0040
0040
0000
ENDCHAR
STARTCHAR K+313A
ENCODING 12602
SWIDTH 960 0
DWIDTH 12 0
BBX 12 12 0 -2
BITMAP
3fc0
0040
0040
0040
0080
7fe0
0200
0200
2000
2000
1fc0
0000
ENDCHAR
STARTCHAR K+313B
ENCODING 12603
SWIDTH 960 0
DWIDTH 12 0
BBX 12 12 0 -2
BITMAP
3fc0
0040
0040
0080
7fe0
0200
0200
3fc0
2000
2000
1fc0
0000
ENDCHAR
STARTCHAR K+313C
ENCODING 12604
SWIDTH 960 0
DWIDTH 12 0
BBX 12 12 0 -2
BITMAP
3fc0
0040
0040
0080
7fe0
0200
3fc0
0040
3fc0
2000
1fc0
0000
ENDCHAR
STARTCHAR K+313D
ENCODING 12605
SWIDTH 960 0
DWIDTH 12 0
BBX 12 12 0 -2
BITMAP
3fc0
0040
0040
0080
7fe0
0200
3dc0
0440
3c40
2040
1c40
0000
ENDCHAR
STARTCHAR K+313E
ENCODING 12606
SWIDTH 960 0
DWIDTH 12 0
BBX 12 12 0 -2
BITMAP
3fc0
0040
0040
0080
7fe0
0200
3dc0
0540
3d40
2140
1cc0
0000
ENDCHAR
STARTCHAR K+313F
ENCODING 12607
SWIDTH 960 0
DWIDTH 12 0
BBX 12 12 0 -2
BITMAP
3fc0
0040
0040
0080
7fe0
0200
3c80
07e0
3d40
2140
1c80
0000
ENDCHAR
STARTCHAR K+3140
ENCODING 12608
SWIDTH 960 0
DWIDTH 12 0
BBX 12 12 0 -2
BITMAP
3fc0
0040
0040
0080
7fe0
0200
0200
3fc0
2040
2040
1fc0
0000
ENDCHAR
STARTCHAR K+3141
ENCODING 12609
SWIDTH 960 0
DWIDTH 12 0
BBX 12 12 0 -2
BITMAP
3fc0
0040
0040
0080
7fe0
0200
0200
2040
3fc0
2040
1fc0
0000
ENDCHAR
STARTCHAR K+3142
ENCODING 12610
SWIDTH 960 0
DWIDTH 12 0
BBX 12 12 0 -2
BITMAP
3fc0
0040
0040
0080
7fe0
0200
0200
0000
0200
0d00
30c0
0000
ENDCHAR
STARTCHAR K+3143
ENCODING 12611
SWIDTH 960 0
DWIDTH 12 0
BBX 12 12 0 -2
BITMAP
3fc0
0040
0040
0080
7fe0
0200
0200
1f80
2040
2040
1f80
0000
ENDCHAR
STARTCHAR K+3144
ENCODING 12612
SWIDTH 960 0
DWIDTH 12 0
BBX 12 12 0 -2
BITMAP
3fc0
0040
0040
0080
7fe0
0200
0200
3fc0
0200
0d00
30c0
0000
ENDCHAR
STARTCHAR K+3145
ENCODING 12613
SWIDTH 960 0
DWIDTH 12 0
BBX 12 12 0 -2
BITMAP
7e40
0240
0240
0240
0440
0040
7f40
0840
0bc0
0840
1040
0000
ENDCHAR
STARTCHAR K+3146
ENCODING 12614
SWIDTH 960 0
DWIDTH 12 0
BBX 12 12 0 -2
BITMAP
7e40
0240
03c0
0440
0040
7f40
0840
3fc0
0040
0040
0040
0000
ENDCHAR
STARTCHAR K+3147
ENCODING 12615
SWIDTH 960 0
DWIDTH 12 0
BBX 12 12 0 -2
BITMAP
7e40
0240
03c0
0440
0040
7f40
0840
0840
2000
2000
1fc0
0000
ENDCHAR
STARTCHAR K+3148
ENCODING 12616
SWIDTH 960 0
DWIDTH 12 0
BBX 12 12 0 -2
BITMAP
7e40
0240
03c0
0440
7f40
0840
3fc0
0040
3fc0
2000
1fc0
0000
ENDCHAR
STARTCHAR K+3149
ENCODING 12617
SWIDTH 960 0
DWIDTH 12 0
BBX 12 12 0 -2
BITMAP
7e40
0240
03c0
0440
0040
7f40
0840
0880
0880
1540
2220
0000
ENDCHAR
STARTCHAR K+314A
ENCODING 12618
SWIDTH 960 0
DWIDTH 12 0
BBX 12 12 0 -2
BITMAP
7e40
0240
03c0
0440
0040
7f40
0840
1f80
2040
2040
1f80
0000
ENDCHAR
STARTCHAR K+314B
ENCODING 12619
SWIDTH 960 0
DWIDTH 12 0
BBX 12 12 0 -2
BITMAP
7d40
0540
0540
0540
0540
0940
7d40
1140
1740
1140
2140
0000
ENDCHAR
STARTCHAR K+314C
ENCODING 12620
SWIDTH 960 0
DWIDTH 12 0
BBX 12 12 0 -2
BITMAP
7d40
0540
0740
0940
0140
7d40
1140
0200
0200
0d80
3060
0000
ENDCHAR
STARTCHAR K+314D
ENCODING 12621
SWIDTH 960 0
DWIDTH 12 0
BBX 12 12 0 -2
BITMAP
7e40
0240
0240
0240
0440
0040
7f40
0840
0840
0840
1040
0000
ENDCHAR
STARTCHAR K+314E
ENCODING 12622
SWIDTH 960 0
DWIDTH 12 0
BBX 12 12 0 -2
BITMAP
7e40
0240
0240
0440
0040
7fc0
0840
3fc0
0040
0040
0040
0000
ENDCHAR
STARTCHAR K+314F
ENCODING 12623
SWIDTH 960 0
DWIDTH 12 0
BBX 12 12 0 -2
BITMAP
7e40
0240
0240
0440
0040
7fc0
0840
0800
2000
2000
1fc0
0000
ENDCHAR
STARTCHAR K+3150
ENCODING 12624
SWIDTH 960 0
DWIDTH 12 0
BBX 12 12 0 -2
BITMAP
7e40
0240
0240
0440
7f40
0840
3fc0
0040
3fc0
2000
1fc0
0000
ENDCHAR
STARTCHAR K+3151
ENCODING 12625
SWIDTH 960 0
DWIDTH 12 0
BBX 12 12 0 -2
BITMAP
7e40
0240
0240
0440
0040
7fc0
0840
3fc0
2040
2040
1fc0
0000
ENDCHAR
STARTCHAR K+3152
ENCODING 12626
SWIDTH 960 0
DWIDTH 12 0
BBX 12 12 0 -2
BITMAP
7e40
0240
0240
0440
0040
7fc0
0840
2040
3fc0
2040
1fc0
0000
ENDCHAR
STARTCHAR K+3153
ENCODING 12627
SWIDTH 960 0
DWIDTH 12 0
BBX 12 12 0 -2
BITMAP
7e40
0240
0240
0440
0040
7fc0
0840
0200
0200
0d80
3060
0000
ENDCHAR
STARTCHAR K+3154
ENCODING 12628
SWIDTH 960 0
DWIDTH 12 0
BBX 12 12 0 -2
BITMAP
3fc0
0040
0040
0040
0040
0080
7fe0
1080
1080
1080
1080
0000
ENDCHAR
STARTCHAR K+3155
ENCODING 12629
SWIDTH 960 0
DWIDTH 12 0
BBX 12 12 0 -2
BITMAP
3fc0
0040
0040
0040
0080
7fe0
0880
0880
2000
2000
1fc0
0000
ENDCHAR
STARTCHAR K+3156
ENCODING 12630
SWIDTH 960 0
DWIDTH 12 0
BBX 12 12 0 -2
BITMAP
3fc0
0040
0040
0080
7fe0
1080
3fc0
0040
3fc0
2000
1fc0
0000
ENDCHAR
STARTCHAR K+3157
ENCODING 12631
SWIDTH 960 0
DWIDTH 12 0
BBX 12 12 0 -2
BITMAP
3fc0
0040
0040
0040
0040
0040
0040
0080
0000
7fe0
0000
0000
ENDCHAR
STARTCHAR K+3158
ENCODING 12632
SWIDTH 960 0
DWIDTH 12 0
BBX 12 12 0 -2
BITMAP
3fc0
0040
0040
0080
7fe0
0000
0000
3fc0
0040
0040
0040
0000
ENDCHAR
STARTCHAR K+3159
ENCODING 12633
SWIDTH 960 0
DWIDTH 12 0
BBX 12 12 0 -2
BITMAP
3fc0
0040
0040
0040
0080
7fe0
0000
0000
2000
2000
1fc0
0000
ENDCHAR
STARTCHAR K+315A
ENCODING 12634
SWIDTH 960 0
DWIDTH 12 0
BBX 12 12 0 -2
BITMAP
3fc0
0040
0040
0080
7fe0
0000
0000
3fc0
2000
2000
1fc0
0000
ENDCHAR
STARTCHAR K+315B
ENCODING 12635
SWIDTH 960 0
DWIDTH 12 0
BBX 12 12 0 -2
BITMAP
3fc0
0040
0040
0080
7fe0
0000
3fc0
0040
3fc0
2000
1fc0
0000
ENDCHAR
STARTCHAR K+315C
ENCODING 12636
SWIDTH 960 0
DWIDTH 12 0
BBX 12 12 0 -2
BITMAP
3fc0
0040
0040
0080
7fe0
0000
3dc0
0440
3c40
2040
1c40
0000
ENDCHAR
STARTCHAR K+315D
ENCODING 12637
SWIDTH 960 0
DWIDTH 12 0
BBX 12 12 0 -2
BITMAP
3fc0
0040
0040
0080
7fe0
0000
0000
3fc0
2040
2040
1fc0
0000
ENDCHAR
STARTCHAR K+315E
ENCODING 12638
SWIDTH 960 0
DWIDTH 12 0
BBX 12 12 0 -2
BITMAP
3fc0
0040
0040
0080
7fe0
0000
0000
2040
3fc0
2040
1fc0
0000
ENDCHAR
STARTCHAR K+315F
ENCODING 12639
SWIDTH 960 0
DWIDTH 12 0
BBX 12 12 0 -2
BITMAP
3fc0
0040
0040
0080
7fe0
0000
0000
0000
0200
0d00
30c0
0000
ENDCHAR
STARTCHAR K+3160
ENCODING 12640
SWIDTH 960 0
DWIDTH 12 0
BBX 12 12 0 -2
BITMAP
3fc0
0040
0040
0080
7fe0
0000
0000
1f80
2040
2040
1f80
0000
ENDCHAR
STARTCHAR K+3161
ENCODING 12641
SWIDTH 960 0
DWIDTH 12 0
BBX 12 12 0 -2
BITMAP
7e40
0240
0240
0240
0240
0240
0440
0040
7fc0
0040
0040
0000
ENDCHAR
STARTCHAR K+3162
ENCODING 12642
SWIDTH 960 0
DWIDTH 12 0
BBX 12 12 0 -2
BITMAP
7e40
0240
0240
0240
0240
0440
0440
1840
6040
0040
0040
0000
ENDCHAR
STARTCHAR K+3163
ENCODING 12643
SWIDTH 960 0
DWIDTH 12 0
BBX 12 12 0 -2
BITMAP
7e40
0240
0240
0440
1840
6040
0000
3fc0
0040
0040
0040
0000
ENDCHAR
STARTCHAR K+3164
ENCODING 12644
SWIDTH 960 0
DWIDTH 12 0
BBX 12 12 0 -2
BITMAP
7e40
0240
0240
0240
0440
1840
6040
0040
2000
2000
1fc0
0000
ENDCHAR
STARTCHAR K+3165
ENCODING 12645
SWIDTH 960 0
DWIDTH 12 0
BBX 12 12 0 -2
BITMAP
7e40
0240
0240
0440
1840
6040
0000
3fc0
2000
2000
1fc0
0000
ENDCHAR
STARTCHAR K+3166
ENCODING 12646
SWIDTH 960 0
DWIDTH 12 0
BBX 12 12 0 -2
BITMAP
7e40
0240
0440
1840
6040
0000
3fc0
0040
3fc0
2000
1fc0
0000
ENDCHAR
STARTCHAR K+3167
ENCODING 12647
SWIDTH 960 0
DWIDTH 12 0
BBX 12 12 0 -2
BITMAP
7e40
0240
0440
1840
6040
0000
3dc0
0540
3d40
2140
1cc0
0000
ENDCHAR
STARTCHAR K+3168
ENCODING 12648
SWIDTH 960 0
DWIDTH 12 0
BBX 12 12 0 -2
BITMAP
7e40
0240
0240
0440
1840
6040
0000
3fc0
2040
2040
1fc0
0000
ENDCHAR
STARTCHAR K+3169
ENCODING 12649
SWIDTH 960 0
DWIDTH 12 0
BBX 12 12 0 -2
BITMAP
7e40
0240
0240
0440
1840
6040
0000
2040
3fc0
2040
1fc0
0000
ENDCHAR
STARTCHAR K+316A
ENCODING 12650
SWIDTH 960 0
DWIDTH 12 0
BBX 12 12 0 -2
BITMAP
7e40
0240
0240
0440
1840
6040
0000
0200
0200
0d80
3060
0000
ENDCHAR
STARTCHAR K+316B
ENCODING 12651
SWIDTH 960 0
DWIDTH 12 0
BBX 12 12 0 -2
BITMAP
7e40
0240
0240
0440
1840
6040
0000
1f80
2040
2040
1f80
0000
ENDCHAR
STARTCHAR K+316C
ENCODING 12652
SWIDTH 960 0
DWIDTH 12 0
BBX 12 12 0 -2
BITMAP
7e40
0240
0240
0440
1840
6040
0000
3fc0
0200
0500
38c0
0000
ENDCHAR
STARTCHAR K+316D
ENCODING 12653
SWIDTH 960 0
DWIDTH 12 0
BBX 12 12 0 -2
BITMAP
7e40
0240
0240
0440
1840
6040
0000
3fc0
0900
0900
3fc0
0000
ENDCHAR
STARTCHAR K+316E
ENCODING 12654
SWIDTH 960 0
DWIDTH 12 0
BBX 12 12 0 -2
BITMAP
7e40
1240
1240
1240
1270
1240
2240
2440
4440
0840
0040
0000
ENDCHAR
STARTCHAR K+316F
ENCODING 12655
SWIDTH 960 0
DWIDTH 12 0
BBX 12 12 0 -2
BITMAP
7e40
1240
1270
1240
2240
4440
0000
3fc0
0040
0040
0040
0000
ENDCHAR
STARTCHAR K+3170
ENCODING 12656
SWIDTH 960 0
DWIDTH 12 0
BBX 12 12 0 -2
BITMAP
7e40
1240
1270
1240
2240
4440
0000
3fc0
0440
0440
0440
0000
ENDCHAR
STARTCHAR K+3171
ENCODING 12657
SWIDTH 960 0
DWIDTH 12 0
BBX 12 12 0 -2
BITMAP
7e40
1240
1240
1270
2240
4440
0840
0040
2000
2000
1fc0
0000
ENDCHAR
STARTCHAR K+3172
ENCODING 12658
SWIDTH 960 0
DWIDTH 12 0
BBX 12 12 0 -2
BITMAP
7e40
1240
1270
2240
4440
0040
3fc0
0040
3fc0
2000
1fc0
0000
ENDCHAR
STARTCHAR K+3173
ENCODING 12659
SWIDTH 960 0
DWIDTH 12 0
BBX 12 12 0 -2
BITMAP
7e40
1240
1270
2240
4440
0040
3dc0
0540
3d40
2140
1cc0
0000
ENDCHAR
STARTCHAR K+3174
ENCODING 12660
SWIDTH 960 0
DWIDTH 12 0
BBX 12 12 0 -2
BITMAP
7e40
1240
1270
1240
2240
4440
0000
3fc0
2040
2040
1fc0
0000
ENDCHAR
STARTCHAR K+3175
ENCODING 12661
SWIDTH 960 0
DWIDTH 12 0
BBX 12 12 0 -2
BITMAP
7e40
1240
1270
1240
2240
4440
0000
2040
3fc0
2040
1fc0
0000
ENDCHAR
STARTCHAR K+3176
ENCODING 12662
SWIDTH 960 0
DWIDTH 12 0
BBX 12 12 0 -2
BITMAP
7e40
1240
1270
1240
2240
4440
0000
0200
0200
0d80
3060
0000
ENDCHAR
STARTCHAR K+3177
ENCODING 12663
SWIDTH 960 0
DWIDTH 12 0
BBX 12 12 0 -2
BITMAP
7e40
1240
1270
1240
2240
4440
0000
0880
0880
1540
2220
0000
ENDCHAR
STARTCHAR K+3178
ENCODING 12664
SWIDTH 960 0
DWIDTH 12 0
BBX 12 12 0 -2
BITMAP
7e40
1240
1270
1240
2240
4440
0000
1f80
2040
2040
1f80
0000
ENDCHAR
STARTCHAR K+3179
ENCODING 12665
SWIDTH 960 0
DWIDTH 12 0
BBX 12 12 0 -2
BITMAP
7e40
1240
1270
2240
4440
0040
3fc0
2000
3fc0
2000
1fc0
0000
ENDCHAR
STARTCHAR K+317A
ENCODING 12666
SWIDTH 960 0
DWIDTH 12 0
BBX 12 12 0 -2
BITMAP
fd40
2540
2540
2540
25c0
2540
4540
4940
8940
1140
0140
0000
ENDCHAR
STARTCHAR K+317B
ENCODING 12667
SWIDTH 960 0
DWIDTH 12 0
BBX 12 12 0 -2
BITMAP
7d40
1540
15c0
2540
4940
1140
0000
3fc0
0040
0040
0040
0000
ENDCHAR
STARTCHAR K+317C
ENCODING 12668
SWIDTH 960 0
DWIDTH 12 0
BBX 12 12 0 -2
BITMAP
7d40
1540
15c0
2540
4940
1140
0140
0040
2000
2000
1fc0
0000
ENDCHAR
STARTCHAR K+317D
ENCODING 12669
SWIDTH 960 0
DWIDTH 12 0
BBX 12 12 0 -2
BITMAP
7d40
1540
15c0
2540
4940
0140
3fc0
0040
3fc0
2000
1fc0
0000
ENDCHAR
STARTCHAR K+317E
ENCODING 12670
SWIDTH 960 0
DWIDTH 12 0
BBX 12 12 0 -2
BITMAP
7d40
1540
15c0
2540
4940
1140
0000
3fc0
2040
2040
1fc0
0000
ENDCHAR
STARTCHAR K+3221
ENCODING 12833
SWIDTH 960 0
DWIDTH 12 0
BBX 12 12 0 -2
BITMAP
7d40
1540
15c0
2540
4940
1140
0000
2040
3fc0
2040
1fc0
0000
ENDCHAR
STARTCHAR K+3222
ENCODING 12834
SWIDTH 960 0
DWIDTH 12 0
BBX 12 12 0 -2
BITMAP
7d40
1540
15c0
2540
4940
1140
0000
0200
0200
0d80
3060
0000
ENDCHAR
STARTCHAR K+3223
ENCODING 12835
SWIDTH 960 0
DWIDTH 12 0
BBX 12 12 0 -2
BITMAP
7d40
1540
15c0
2540
4940
1140
0000
0880
0880
1540
2220
0000
ENDCHAR
STARTCHAR K+3224
ENCODING 12836
SWIDTH 960 0
DWIDTH 12 0
BBX 12 12 0 -2
BITMAP
7d40
1540
15c0
2540
4940
1140
0000
1f80
2040
2040
1f80
0000
ENDCHAR
STARTCHAR K+3225
ENCODING 12837
SWIDTH 960 0
DWIDTH 12 0
BBX 12 12 0 -2
BITMAP
7e40
1240
1270
1240
1240
1240
2270
2440
4440
0840
0040
0000
ENDCHAR
STARTCHAR K+3226
ENCODING 12838
SWIDTH 960 0
DWIDTH 12 0
BBX 12 12 0 -2
BITMAP
7e40
1270
1240
1270
2240
4440
0000
3fc0
0040
0040
0040
0000
ENDCHAR
STARTCHAR K+3227
ENCODING 12839
SWIDTH 960 0
DWIDTH 12 0
BBX 12 12 0 -2
BITMAP
7e40
1270
1240
2270
4440
0040
3fc0
0040
3fc0
2000
1fc0
0000
ENDCHAR
STARTCHAR K+3228
ENCODING 12840
SWIDTH 960 0
DWIDTH 12 0
BBX 12 12 0 -2
BITMAP
7e40
1240
1240
1240
13c0
1240
2240
2440
4440
0840
0040
0000
ENDCHAR
STARTCHAR K+3229
ENCODING 12841
SWIDTH 960 0
DWIDTH 12 0
BBX 12 12 0 -2
BITMAP
7e40
1240
13c0
1240
2240
4440
0000
3fc0
0040
0040
0040
0000
ENDCHAR
STARTCHAR K+322A
ENCODING 12842
SWIDTH 960 0
DWIDTH 12 0
BBX 12 12 0 -2
BITMAP
7e40
1240
13c0
1240
2240
4440
0000
3fc0
0440
0440
0440
0000
ENDCHAR
STARTCHAR K+322B
ENCODING 12843
SWIDTH 960 0
DWIDTH 12 0
BBX 12 12 0 -2
BITMAP
7e40
1240
13c0
1240
2240
4440
0840
0040
2000
2000
1fc0
0000
ENDCHAR
STARTCHAR K+322C
ENCODING 12844
SWIDTH 960 0
DWIDTH 12 0
BBX 12 12 0 -2
BITMAP
7e40
1240
13c0
2240
4440
0040
3fc0
0040
3fc0
2000
1fc0
0000
ENDCHAR
STARTCHAR K+322D
ENCODING 12845
SWIDTH 960 0
DWIDTH 12 0
BBX 12 12 0 -2
BITMAP
7e40
1240
13c0
1240
2240
4440
0000
3fc0
2040
2040
1fc0
0000
ENDCHAR
STARTCHAR K+322E
ENCODING 12846
SWIDTH 960 0
DWIDTH 12 0
BBX 12 12 0 -2
BITMAP
7e40
1240
13c0
1240
2240
4440
0000
2040
3fc0
2040
1fc0
0000
ENDCHAR
STARTCHAR K+322F
ENCODING 12847
SWIDTH 960 0
DWIDTH 12 0
BBX 12 12 0 -2
BITMAP
7e40
1240
13c0
1240
2240
4440
0000
0200
0200
0d80
3060
0000
ENDCHAR
STARTCHAR K+3230
ENCODING 12848
SWIDTH 960 0
DWIDTH 12 0
BBX 12 12 0 -2
BITMAP
7e40
1240
13c0
1240
2240
4440
0000
0880
0880
1540
2220
0000
ENDCHAR
STARTCHAR K+3231
ENCODING 12849
SWIDTH 960 0
DWIDTH 12 0
BBX 12 12 0 -2
BITMAP
7e40
1240
13c0
1240
2240
4440
0000
1f80
2040
2040
1f80
0000
ENDCHAR
STARTCHAR K+3232
ENCODING 12850
SWIDTH 960 0
DWIDTH 12 0
BBX 12 12 0 -2
BITMAP
fd40
2540
2540
2540
2740
2540
4540
4940
8940
1140
0140
0000
ENDCHAR
STARTCHAR K+3233
ENCODING 12851
SWIDTH 960 0
DWIDTH 12 0
BBX 12 12 0 -2
BITMAP
7d40
1540
1740
2540
4940
1140
0000
3fc0
0040
0040
0040
0000
ENDCHAR
STARTCHAR K+3234
ENCODING 12852
SWIDTH 960 0
DWIDTH 12 0
BBX 12 12 0 -2
BITMAP
7d40
1540
1740
2540
4940
1140
0140
0040
2000
2000
1fc0
0000
ENDCHAR
STARTCHAR K+3235
ENCODING 12853
SWIDTH 960 0
DWIDTH 12 0
BBX 12 12 0 -2
BITMAP
7d40
1540
1740
2540
4940
1140
0000
3fc0
2040
2040
1fc0
0000
ENDCHAR
STARTCHAR K+3236
ENCODING 12854
SWIDTH 960 0
DWIDTH 12 0
BBX 12 12 0 -2
BITMAP
7d40
1540
1740
2540
4940
1140
0000
0200
0200
0d80
3060
0000
ENDCHAR
STARTCHAR K+3237
ENCODING 12855
SWIDTH 960 0
DWIDTH 12 0
BBX 12 12 0 -2
BITMAP
7d40
1540
1740
2540
4940
1140
0000
1f80
2040
2040
1f80
0000
ENDCHAR
STARTCHAR K+3238
ENCODING 12856
SWIDTH 960 0
DWIDTH 12 0
BBX 12 12 0 -2
BITMAP
7e40
1240
13c0
1240
1240
13c0
2240
2440
4440
0840
0040
0000
ENDCHAR
STARTCHAR K+3239
ENCODING 12857
SWIDTH 960 0
DWIDTH 12 0
BBX 12 12 0 -2
BITMAP
7e40
13c0
1240
13c0
2240
4440
0840
0040
2000
2000
1fc0
0000
ENDCHAR
STARTCHAR K+323A
ENCODING 12858
SWIDTH 960 0
DWIDTH 12 0
BBX 12 12 0 -2
BITMAP
7e40
13c0
1240
23c0
4440
0040
3fc0
0040
3fc0
2000
1fc0
0000
ENDCHAR
STARTCHAR K+323B
ENCODING 12859
SWIDTH 960 0
DWIDTH 12 0
BBX 12 12 0 -2
BITMAP
7e40
13c0
1240
13c0
2240
4440
0000
0200
0200
0d80
3060
0000
ENDCHAR
STARTCHAR K+323C
ENCODING 12860
SWIDTH 960 0
DWIDTH 12 0
BBX 12 12 0 -2
BITMAP
7e40
13c0
1240
13c0
2240
4440
0000
0880
0880
1540
2220
0000
ENDCHAR
STARTCHAR K+323D
ENCODING 12861
SWIDTH 960 0
DWIDTH 12 0
BBX 12 12 0 -2
BITMAP
7e40
13c0
1240
23c0
4440
0040
3fc0
2000
3fc0
2000
1fc0
0000
ENDCHAR
STARTCHAR K+323E
ENCODING 12862
SWIDTH 960 0
DWIDTH 12 0
BBX 12 12 0 -2
BITMAP
fd40
2540
2740
2540
2540
2740
4540
4940
8940
1140
0140
0000
ENDCHAR
STARTCHAR K+323F
ENCODING 12863
SWIDTH 960 0
DWIDTH 12 0
BBX 12 12 0 -2
BITMAP
3fc0
0440
0440
0440
0440
0840
1240
2280
0200
7fe0
0000
0000
ENDCHAR
STARTCHAR K+3240
ENCODING 12864
SWIDTH 960 0
DWIDTH 12 0
BBX 12 12 0 -2
BITMAP
3dc0
0440
0440
0a80
0200
7fe0
0000
3fc0
0040
0040
0040
0000
ENDCHAR
STARTCHAR K+3241
ENCODING 12865
SWIDTH 960 0
DWIDTH 12 0
BBX 12 12 0 -2
BITMAP
3fc0
0440
0440
0840
1280
0200
7fe0
0000
2000
2000
1fc0
0000
ENDCHAR
STARTCHAR K+3242
ENCODING 12866
SWIDTH 960 0
DWIDTH 12 0
BBX 12 12 0 -2
BITMAP
3dc0
0440
0440
0a80
0200
7fe0
0080
23e0
2140
2140
1c80
0000
ENDCHAR
STARTCHAR K+3243
ENCODING 12867
SWIDTH 960 0
DWIDTH 12 0
BBX 12 12 0 -2
BITMAP
3dc0
0440
0840
0200
7fe0
0000
3fc0
0040
3fc0
2000
1fc0
0000
ENDCHAR
STARTCHAR K+3244
ENCODING 12868
SWIDTH 960 0
DWIDTH 12 0
BBX 12 12 0 -2
BITMAP
3dc0
0440
0440
0a80
0200
7fe0
0000
3fc0
2040
2040
1fc0
0000
ENDCHAR
STARTCHAR K+3245
ENCODING 12869
SWIDTH 960 0
DWIDTH 12 0
BBX 12 12 0 -2
BITMAP
3dc0
0440
0440
0a80
0200
7fe0
0000
2040
3fc0
2040
1fc0
0000
ENDCHAR
STARTCHAR K+3246
ENCODING 12870
SWIDTH 960 0
DWIDTH 12 0
BBX 12 12 0 -2
BITMAP
3dc0
0440
0440
0a80
0200
7fe0
0000
0200
0200
0d00
30c0
0000
ENDCHAR
STARTCHAR K+3247
ENCODING 12871
SWIDTH 960 0
DWIDTH 12 0
BBX 12 12 0 -2
BITMAP
3dc0
0440
0440
0a80
0200
7fe0
0000
1f80
2040
2040
1f80
0000
ENDCHAR
STARTCHAR K+3248
ENCODING 12872
SWIDTH 960 0
DWIDTH 12 0
BBX 12 12 0 -2
BITMAP
3dc0
0440
0440
0a80
0200
7fe0
0000
3fc0
0200
0d00
30c0
0000
ENDCHAR
STARTCHAR K+3249
ENCODING 12873
SWIDTH 960 0
DWIDTH 12 0
BBX 12 12 0 -2
BITMAP
3dc0
0440
0840
0200
7fe0
0000
0700
0000
3fc0
0500
38c0
0000
ENDCHAR
STARTCHAR K+324A
ENCODING 12874
SWIDTH 960 0
DWIDTH 12 0
BBX 12 12 0 -2
BITMAP
7740
1140
1140
1140
2170
4240
0840
0840
7f40
0040
0040
0000
ENDCHAR
STARTCHAR K+324B
ENCODING 12875
SWIDTH 960 0
DWIDTH 12 0
BBX 12 12 0 -2
BITMAP
7740
1140
2140
4270
0840
7f40
0000
3fc0
0040
0040
0040
0000
ENDCHAR
STARTCHAR K+324C
ENCODING 12876
SWIDTH 960 0
DWIDTH 12 0
BBX 12 12 0 -2
BITMAP
7740
1140
2140
0870
7fc0
0000
3fc0
0040
3fc0
2000
1fc0
0000
ENDCHAR
STARTCHAR K+324D
ENCODING 12877
SWIDTH 960 0
DWIDTH 12 0
BBX 12 12 0 -2
BITMAP
7740
1140
2140
4270
0840
7f40
0000
0880
0880
1540
2220
0000
ENDCHAR
STARTCHAR K+324E
ENCODING 12878
SWIDTH 960 0
DWIDTH 12 0
BBX 12 12 0 -2
BITMAP
7740
1140
2140
4270
0840
7f40
0000
1f80
2040
2040
1f80
0000
ENDCHAR
STARTCHAR K+324F
ENCODING 12879
SWIDTH 960 0
DWIDTH 12 0
BBX 12 12 0 -2
BITMAP
7d40
1540
1540
1540
25c0
4540
1140
1140
7f40
0140
0140
0000
ENDCHAR
STARTCHAR K+3250
ENCODING 12880
SWIDTH 960 0
DWIDTH 12 0
BBX 12 12 0 -2
BITMAP
7d40
1540
25c0
4940
1140
7f40
0140
3fc0
0040
0040
0040
0000
ENDCHAR
STARTCHAR K+3251
ENCODING 12881
SWIDTH 960 0
DWIDTH 12 0
BBX 12 12 0 -2
BITMAP
7d40
1540
25c0
4940
1140
7f40
0140
1f80
2040
2040
1f80
0000
ENDCHAR
STARTCHAR K+3252
ENCODING 12882
SWIDTH 960 0
DWIDTH 12 0
BBX 12 12 0 -2
BITMAP
7740
1140
1140
1140
2140
4240
0840
0840
7f40
0040
0040
0000
ENDCHAR
STARTCHAR K+3253
ENCODING 12883
SWIDTH 960 0
DWIDTH 12 0
BBX 12 12 0 -2
BITMAP
7740
1140
2140
4240
0040
0840
7f40
0040
2000
2000
1fc0
0000
ENDCHAR
STARTCHAR K+3254
ENCODING 12884
SWIDTH 960 0
DWIDTH 12 0
BBX 12 12 0 -2
BITMAP
7740
1140
2140
0840
7f40
0040
3fc0
0040
3fc0
2000
1fc0
0000
ENDCHAR
STARTCHAR K+3255
ENCODING 12885
SWIDTH 960 0
DWIDTH 12 0
BBX 12 12 0 -2
BITMAP
7740
1140
2140
4240
0840
7f40
0040
3fc0
2040
2040
1fc0
0000
ENDCHAR
STARTCHAR K+3256
ENCODING 12886
SWIDTH 960 0
DWIDTH 12 0
BBX 12 12 0 -2
BITMAP
7740
1140
2140
4240
0840
7f40
0040
2040
3fc0
2040
1fc0
0000
ENDCHAR
STARTCHAR K+3257
ENCODING 12887
SWIDTH 960 0
DWIDTH 12 0
BBX 12 12 0 -2
BITMAP
7740
1140
2140
4240
0840
7f40
0040
1f80
2040
2040
1f80
0000
ENDCHAR
STARTCHAR K+3258
ENCODING 12888
SWIDTH 960 0
DWIDTH 12 0
BBX 12 12 0 -2
BITMAP
3fc0
0440
0440
0440
0440
0840
1940
2980
0900
7fe0
0000
0000
ENDCHAR
STARTCHAR K+3259
ENCODING 12889
SWIDTH 960 0
DWIDTH 12 0
BBX 12 12 0 -2
BITMAP
3fc0
0440
0440
0440
0440
0880
0000
7fe0
0200
0200
0200
0000
ENDCHAR
STARTCHAR K+325A
ENCODING 12890
SWIDTH 960 0
DWIDTH 12 0
BBX 12 12 0 -2
BITMAP
3fc0
0440
0440
0880
0000
7fe0
0200
3fc0
0040
0040
0040
0000
ENDCHAR
STARTCHAR K+325B
ENCODING 12891
SWIDTH 960 0
DWIDTH 12 0
BBX 12 12 0 -2
BITMAP
3fc0
0440
0440
0440
0880
0000
7fe0
0200
2200
2000
1fc0
0000
ENDCHAR
STARTCHAR K+325C
ENCODING 12892
SWIDTH 960 0
DWIDTH 12 0
BBX 12 12 0 -2
BITMAP
3fc0
0440
0440
0880
7fe0
0200
3fc0
0040
3fc0
2000
1fc0
0000
ENDCHAR
STARTCHAR K+325D
ENCODING 12893
SWIDTH 960 0
DWIDTH 12 0
BBX 12 12 0 -2
BITMAP
3fc0
0440
0440
0880
7fe0
0200
3c80
07e0
3d40
2140
1c80
0000
ENDCHAR
STARTCHAR K+325E
ENCODING 12894
SWIDTH 960 0
DWIDTH 12 0
BBX 12 12 0 -2
BITMAP
3fc0
0440
0440
0880
0000
7fe0
0200
3fc0
2040
2040
1fc0
0000
ENDCHAR
STARTCHAR K+325F
ENCODING 12895
SWIDTH 960 0
DWIDTH 12 0
BBX 12 12 0 -2
BITMAP
3fc0
0440
0440
0880
0000
7fe0
0200
2240
3fc0
2040
1fc0
0000
ENDCHAR
STARTCHAR K+3260
ENCODING 12896
SWIDTH 960 0
DWIDTH 12 0
BBX 12 12 0 -2
BITMAP
3fc0
0440
0440
0880
0000
7fe0
0200
0200
0200
0d00
30c0
0000
ENDCHAR
STARTCHAR K+3261
ENCODING 12897
SWIDTH 960 0
DWIDTH 12 0
BBX 12 12 0 -2
BITMAP
3fc0
0440
0440
0880
0000
7fe0
0200
1f80
2040
2040
1f80
0000
ENDCHAR
STARTCHAR K+3262
ENCODING 12898
SWIDTH 960 0
DWIDTH 12 0
BBX 12 12 0 -2
BITMAP
3fc0
0440
0440
0880
0000
7fe0
0200
3fc0
0200
0d00
30c0
0000
ENDCHAR
STARTCHAR K+3263
ENCODING 12899
SWIDTH 960 0
DWIDTH 12 0
BBX 12 12 0 -2
BITMAP
7740
1140
1140
1140
2240
0040
7f40
0840
0bc0
0840
1040
0000
ENDCHAR
STARTCHAR K+3264
ENCODING 12900
SWIDTH 960 0
DWIDTH 12 0
BBX 12 12 0 -2
BITMAP
7e40
1240
12c0
2440
7f40
0840
3fc0
0040
3fc0
2000
1fc0
0000
ENDCHAR
STARTCHAR K+3265
ENCODING 12901
SWIDTH 960 0
DWIDTH 12 0
BBX 12 12 0 -2
BITMAP
7e40
1240
13c0
2440
0040
7f40
0840
0880
0880
1540
2220
0000
ENDCHAR
STARTCHAR K+3266
ENCODING 12902
SWIDTH 960 0
DWIDTH 12 0
BBX 12 12 0 -2
BITMAP
7e40
1240
13c0
2440
0040
7f40
0840
1f80
2040
2040
1f80
0000
ENDCHAR
STARTCHAR K+3267
ENCODING 12903
SWIDTH 960 0
DWIDTH 12 0
BBX 12 12 0 -2
BITMAP
7d40
2540
2540
2540
2540
4940
7d40
1140
1740
1140
2140
0000
ENDCHAR
STARTCHAR K+3268
ENCODING 12904
SWIDTH 960 0
DWIDTH 12 0
BBX 12 12 0 -2
BITMAP
7d40
2540
2740
4940
0140
7d40
1140
3fc0
0040
0040
0040
0000
ENDCHAR
STARTCHAR K+3269
ENCODING 12905
SWIDTH 960 0
DWIDTH 12 0
BBX 12 12 0 -2
BITMAP
7d40
1540
1740
2940
0140
7d40
1140
1000
2000
2000
1fc0
0000
ENDCHAR
STARTCHAR K+326A
ENCODING 12906
SWIDTH 960 0
DWIDTH 12 0
BBX 12 12 0 -2
BITMAP
7d40
2540
2740
4940
7d40
1140
3fc0
0040
3fc0
2000
1fc0
0000
ENDCHAR
STARTCHAR K+326B
ENCODING 12907
SWIDTH 960 0
DWIDTH 12 0
BBX 12 12 0 -2
BITMAP
7d40
2540
2740
4940
0140
7d40
1140
3fc0
2040
2040
1fc0
0000
ENDCHAR
STARTCHAR K+326C
ENCODING 12908
SWIDTH 960 0
DWIDTH 12 0
BBX 12 12 0 -2
BITMAP
7d40
2540
2740
4940
0140
7d40
1140
2040
3fc0
2040
1fc0
0000
ENDCHAR
STARTCHAR K+326D
ENCODING 12909
SWIDTH 960 0
DWIDTH 12 0
BBX 12 12 0 -2
BITMAP
7d40
2540
2740
4940
0140
7d40
1140
0880
0880
1540
2220
0000
ENDCHAR
STARTCHAR K+326E
ENCODING 12910
SWIDTH 960 0
DWIDTH 12 0
BBX 12 12 0 -2
BITMAP
7740
1140
1140
1140
2240
0040
7f40
0840
0840
0840
1040
0000
ENDCHAR
STARTCHAR K+326F
ENCODING 12911
SWIDTH 960 0
DWIDTH 12 0
BBX 12 12 0 -2
BITMAP
7e40
1240
1240
2440
0040
7fc0
0840
0840
2000
2000
1fc0
0000
ENDCHAR
STARTCHAR K+3270
ENCODING 12912
SWIDTH 960 0
DWIDTH 12 0
BBX 12 12 0 -2
BITMAP
7e40
1240
1240
2440
7fc0
0840
3fc0
0040
3fc0
2000
1fc0
0000
ENDCHAR
STARTCHAR K+3271
ENCODING 12913
SWIDTH 960 0
DWIDTH 12 0
BBX 12 12 0 -2
BITMAP
7e40
1240
1240
2440
0040
7fc0
0840
3fc0
2040
2040
1fc0
0000
ENDCHAR
STARTCHAR K+3272
ENCODING 12914
SWIDTH 960 0
DWIDTH 12 0
BBX 12 12 0 -2
BITMAP
7e40
1240
1240
2440
0040
7fc0
0840
2040
3fc0
2040
1fc0
0000
ENDCHAR
STARTCHAR K+3273
ENCODING 12915
SWIDTH 960 0
DWIDTH 12 0
BBX 12 12 0 -2
BITMAP
3fc0
0440
0440
0440
0440
0880
0000
7fe0
1080
1080
1080
0000
ENDCHAR
STARTCHAR K+3274
ENCODING 12916
SWIDTH 960 0
DWIDTH 12 0
BBX 12 12 0 -2
BITMAP
3fc0
0440
0440
0440
0440
0840
1040
2080
0000
7fe0
0000
0000
ENDCHAR
STARTCHAR K+3275
ENCODING 12917
SWIDTH 960 0
DWIDTH 12 0
BBX 12 12 0 -2
BITMAP
3fc0
0440
0440
0880
0000
7fe0
0000
3fc0
0040
0040
0040
0000
ENDCHAR
STARTCHAR K+3276
ENCODING 12918
SWIDTH 960 0
DWIDTH 12 0
BBX 12 12 0 -2
BITMAP
3fc0
0440
0440
0440
0880
0000
7fe0
0000
2000
2000
1fc0
0000
ENDCHAR
STARTCHAR K+3277
ENCODING 12919
SWIDTH 960 0
DWIDTH 12 0
BBX 12 12 0 -2
BITMAP
3fc0
0440
0440
0880
0000
7fe0
0000
2080
23e0
2140
1c80
0000
ENDCHAR
STARTCHAR K+3278
ENCODING 12920
SWIDTH 960 0
DWIDTH 12 0
BBX 12 12 0 -2
BITMAP
3fc0
0440
0440
0880
7fe0
0000
3fc0
0040
3fc0
2000
1fc0
0000
ENDCHAR
STARTCHAR K+3279
ENCODING 12921
SWIDTH 960 0
DWIDTH 12 0
BBX 12 12 0 -2
BITMAP
3fc0
0440
0440
0880
7fe0
0000
3dc0
0540
3d40
2140
1cc0
0000
ENDCHAR
STARTCHAR K+327A
ENCODING 12922
SWIDTH 960 0
DWIDTH 12 0
BBX 12 12 0 -2
BITMAP
3fc0
0440
0440
0880
7fe0
0000
3c80
07e0
3d40
2140
1c80
0000
ENDCHAR
STARTCHAR K+327B
ENCODING 12923
SWIDTH 960 0
DWIDTH 12 0
BBX 12 12 0 -2
BITMAP
3fc0
0440
0440
0880
0000
7fe0
0000
3fc0
2040
2040
1fc0
0000
ENDCHAR
STARTCHAR K+327C
ENCODING 12924
SWIDTH 960 0
DWIDTH 12 0
BBX 12 12 0 -2
BITMAP
3fc0
0440
0440
0880
0000
7fe0
0000
2040
3fc0
2040
1fc0
0000
ENDCHAR
STARTCHAR K+327D
ENCODING 12925
SWIDTH 960 0
DWIDTH 12 0
BBX 12 12 0 -2
BITMAP
3fc0
0440
0440
0880
0000
7fe0
0000
0000
0200
0d00
30c0
0000
ENDCHAR
STARTCHAR K+327E
ENCODING 12926
SWIDTH 960 0
DWIDTH 12 0
BBX 12 12 0 -2
BITMAP
3fc0
0440
0440
0880
0000
7fe0
0000
1f80
2040
2040
1f80
0000
ENDCHAR
STARTCHAR K+3321
ENCODING 13089
SWIDTH 960 0
DWIDTH 12 0
BBX 12 12 0 -2
BITMAP
3fc0
0440
0440
0880
7fe0
0000
3fc0
2000
3fc0
2000
1fc0
0000
ENDCHAR
STARTCHAR K+3322
ENCODING 13090
SWIDTH 960 0
DWIDTH 12 0
BBX 12 12 0 -2
BITMAP
7e40
1240
1240
1240
1240
1240
2240
2440
4440
0840
0040
0000
ENDCHAR
STARTCHAR K+3323
ENCODING 13091
SWIDTH 960 0
DWIDTH 12 0
BBX 12 12 0 -2
BITMAP
7e40
1240
1240
1240
2240
4440
0000
3fc0
0040
0040
0040
0000
ENDCHAR
STARTCHAR K+3324
ENCODING 13092
SWIDTH 960 0
DWIDTH 12 0
BBX 12 12 0 -2
BITMAP
7e40
1240
1240
1240
2240
4440
0840
0040
2000
2000
1fc0
0000
ENDCHAR
STARTCHAR K+3325
ENCODING 13093
SWIDTH 960 0
DWIDTH 12 0
BBX 12 12 0 -2
BITMAP
7e40
1240
1240
2240
4440
0000
3fc0
0040
3fc0
2000
1fc0
0000
ENDCHAR
STARTCHAR K+3326
ENCODING 13094
SWIDTH 960 0
DWIDTH 12 0
BBX 12 12 0 -2
BITMAP
7e40
1240
1240
1240
2240
4440
0000
3fc0
2040
2040
1fc0
0000
ENDCHAR
STARTCHAR K+3327
ENCODING 13095
SWIDTH 960 0
DWIDTH 12 0
BBX 12 12 0 -2
BITMAP
7e40
1240
1240
1240
2240
4440
0000
2040
3fc0
2040
1fc0
0000
ENDCHAR
STARTCHAR K+3328
ENCODING 13096
SWIDTH 960 0
DWIDTH 12 0
BBX 12 12 0 -2
BITMAP
7e40
1240
1240
1240
2240
4440
0000
0200
0200
0d80
3060
0000
ENDCHAR
STARTCHAR K+3329
ENCODING 13097
SWIDTH 960 0
DWIDTH 12 0
BBX 12 12 0 -2
BITMAP
7e40
1240
1240
1240
2240
4440
0000
1f80
2040
2040
1f80
0000
ENDCHAR
STARTCHAR K+332A
ENCODING 13098
SWIDTH 960 0
DWIDTH 12 0
BBX 12 12 0 -2
BITMAP
4040
4040
4040
4040
4070
4040
4040
4040
3f40
0040
0040
0000
ENDCHAR
STARTCHAR K+332B
ENCODING 13099
SWIDTH 960 0
DWIDTH 12 0
BBX 12 12 0 -2
BITMAP
4040
4040
4070
4040
3f40
0040
0000
3fc0
0040
0040
0040
0000
ENDCHAR
STARTCHAR K+332C
ENCODING 13100
SWIDTH 960 0
DWIDTH 12 0
BBX 12 12 0 -2
BITMAP
4040
4040
4070
4040
3f40
0040
0000
3fc0
0440
0440
0440
0000
ENDCHAR
STARTCHAR K+332D
ENCODING 13101
SWIDTH 960 0
DWIDTH 12 0
BBX 12 12 0 -2
BITMAP
4040
4040
4040
4070
4040
3f40
0040
0040
2000
2000
1fc0
0000
ENDCHAR
STARTCHAR K+332E
ENCODING 13102
SWIDTH 960 0
DWIDTH 12 0
BBX 12 12 0 -2
BITMAP
4040
4040
4070
4040
3f40
0040
0000
3fc0
2000
2000
1fc0
0000
ENDCHAR
STARTCHAR K+332F
ENCODING 13103
SWIDTH 960 0
DWIDTH 12 0
BBX 12 12 0 -2
BITMAP
4040
4040
4070
4040
3f40
0040
3fc0
0040
3fc0
2000
1fc0
0000
ENDCHAR
STARTCHAR K+3330
ENCODING 13104
SWIDTH 960 0
DWIDTH 12 0
BBX 12 12 0 -2
BITMAP
4040
4040
4070
4040
3f40
0040
3dc0
0440
3c40
2040
1c40
0000
ENDCHAR
STARTCHAR K+3331
ENCODING 13105
SWIDTH 960 0
DWIDTH 12 0
BBX 12 12 0 -2
BITMAP
4040
4040
4070
4040
3f40
0040
3dc0
0540
3d40
2140
1cc0
0000
ENDCHAR
STARTCHAR K+3332
ENCODING 13106
SWIDTH 960 0
DWIDTH 12 0
BBX 12 12 0 -2
BITMAP
4040
4040
4070
4040
3f40
0040
0000
3fc0
2040
2040
1fc0
0000
ENDCHAR
STARTCHAR K+3333
ENCODING 13107
SWIDTH 960 0
DWIDTH 12 0
BBX 12 12 0 -2
BITMAP
4040
4040
4070
4040
3f40
0040
0000
2040
3fc0
2040
1fc0
0000
ENDCHAR
STARTCHAR K+3334
ENCODING 13108
SWIDTH 960 0
DWIDTH 12 0
BBX 12 12 0 -2
BITMAP
4040
4040
4070
4040
3f40
0040
0000
0200
0200
0d80
3060
0000
ENDCHAR
STARTCHAR K+3335
ENCODING 13109
SWIDTH 960 0
DWIDTH 12 0
BBX 12 12 0 -2
BITMAP
4040
4040
4070
4040
3f40
0040
0000
0880
0880
1540
2220
0000
ENDCHAR
STARTCHAR K+3336
ENCODING 13110
SWIDTH 960 0
DWIDTH 12 0
BBX 12 12 0 -2
BITMAP
4040
4040
4070
4040
3f40
0040
0000
1f80
2040
2040
1f80
0000
ENDCHAR
STARTCHAR K+3337
ENCODING 13111
SWIDTH 960 0
DWIDTH 12 0
BBX 12 12 0 -2
BITMAP
4040
4040
4070
4040
3f40
0040
0000
3fc0
0200
0500
38c0
0000
ENDCHAR
STARTCHAR K+3338
ENCODING 13112
SWIDTH 960 0
DWIDTH 12 0
BBX 12 12 0 -2
BITMAP
4040
4040
4070
4040
3f40
0040
0700
0000
3fc0
0500
38c0
0000
ENDCHAR
STARTCHAR K+3339
ENCODING 13113
SWIDTH 960 0
DWIDTH 12 0
BBX 12 12 0 -2
BITMAP
4040
4040
4070
4040
3f40
0040
3fc0
2000
3fc0
2000
1fc0
0000
ENDCHAR
STARTCHAR K+333A
ENCODING 13114
SWIDTH 960 0
DWIDTH 12 0
BBX 12 12 0 -2
BITMAP
4040
4040
4070
4040
3f40
0040
0700
0000
7fe0
1080
0f00
0000
ENDCHAR
STARTCHAR K+333B
ENCODING 13115
SWIDTH 960 0
DWIDTH 12 0
BBX 12 12 0 -2
BITMAP
4140
4140
4140
4140
41c0
4140
4140
4140
3d40
0140
0140
0000
ENDCHAR
STARTCHAR K+333C
ENCODING 13116
SWIDTH 960 0
DWIDTH 12 0
BBX 12 12 0 -2
BITMAP
4140
4140
41c0
4140
3d40
0140
0000
3fc0
0040
0040
0040
0000
ENDCHAR
STARTCHAR K+333D
ENCODING 13117
SWIDTH 960 0
DWIDTH 12 0
BBX 12 12 0 -2
BITMAP
4140
4140
41c0
4140
4140
3d40
0140
0040
2000
2000
1fc0
0000
ENDCHAR
STARTCHAR K+333E
ENCODING 13118
SWIDTH 960 0
DWIDTH 12 0
BBX 12 12 0 -2
BITMAP
4140
4140
41c0
4140
3d40
0140
3fc0
0040
3fc0
2000
1fc0
0000
ENDCHAR
STARTCHAR K+333F
ENCODING 13119
SWIDTH 960 0
DWIDTH 12 0
BBX 12 12 0 -2
BITMAP
4140
4140
41c0
4140
3d40
0140
0000
3fc0
2040
2040
1fc0
0000
ENDCHAR
STARTCHAR K+3340
ENCODING 13120
SWIDTH 960 0
DWIDTH 12 0
BBX 12 12 0 -2
BITMAP
4140
4140
41c0
4140
3d40
0140
0000
2040
3fc0
2040
1fc0
0000
ENDCHAR
STARTCHAR K+3341
ENCODING 13121
SWIDTH 960 0
DWIDTH 12 0
BBX 12 12 0 -2
BITMAP
4140
4140
41c0
4140
3d40
0140
0000
0200
0200
0d80
3060
0000
ENDCHAR
STARTCHAR K+3342
ENCODING 13122
SWIDTH 960 0
DWIDTH 12 0
BBX 12 12 0 -2
BITMAP
4140
4140
41c0
4140
3d40
0140
0000
0880
0880
1540
2220
0000
ENDCHAR
STARTCHAR K+3343
ENCODING 13123
SWIDTH 960 0
DWIDTH 12 0
BBX 12 12 0 -2
BITMAP
4140
4140
41c0
4140
3d40
0140
0000
1f80
2040
2040
1f80
0000
ENDCHAR
STARTCHAR K+3344
ENCODING 13124
SWIDTH 960 0
DWIDTH 12 0
BBX 12 12 0 -2
BITMAP
4040
4040
4070
4040
4040
4040
4070
4040
3f40
0040
0040
0000
ENDCHAR
STARTCHAR K+3345
ENCODING 13125
SWIDTH 960 0
DWIDTH 12 0
BBX 12 12 0 -2
BITMAP
4040
4070
4040
4070
3f40
0040
0000
3fc0
0040
0040
0040
0000
ENDCHAR
STARTCHAR K+3346
ENCODING 13126
SWIDTH 960 0
DWIDTH 12 0
BBX 12 12 0 -2
BITMAP
4040
4070
4040
4040
4070
3f40
0040
0040
2000
2000
1fc0
0000
ENDCHAR
STARTCHAR K+3347
ENCODING 13127
SWIDTH 960 0
DWIDTH 12 0
BBX 12 12 0 -2
BITMAP
4040
4070
4040
4070
3f40
0040
3fc0
0040
3fc0
2000
1fc0
0000
ENDCHAR
STARTCHAR K+3348
ENCODING 13128
SWIDTH 960 0
DWIDTH 12 0
BBX 12 12 0 -2
BITMAP
4040
4070
4040
4070
3f40
0040
0000
3fc0
2040
2040
1fc0
0000
ENDCHAR
STARTCHAR K+3349
ENCODING 13129
SWIDTH 960 0
DWIDTH 12 0
BBX 12 12 0 -2
BITMAP
4040
4070
4040
4070
3f40
0040
0000
1f80
2040
2040
1f80
0000
ENDCHAR
STARTCHAR K+334A
ENCODING 13130
SWIDTH 960 0
DWIDTH 12 0
BBX 12 12 0 -2
BITMAP
4040
4040
4040
4040
41c0
4040
4040
4040
3f40
0040
0040
0000
ENDCHAR
STARTCHAR K+334B
ENCODING 13131
SWIDTH 960 0
DWIDTH 12 0
BBX 12 12 0 -2
BITMAP
4040
4040
41c0
4040
3f40
0040
0000
3fc0
0040
0040
0040
0000
ENDCHAR
STARTCHAR K+334C
ENCODING 13132
SWIDTH 960 0
DWIDTH 12 0
BBX 12 12 0 -2
BITMAP
4040
4040
41c0
4040
3f40
0040
0000
3c80
0480
0540
0620
0000
ENDCHAR
STARTCHAR K+334D
ENCODING 13133
SWIDTH 960 0
DWIDTH 12 0
BBX 12 12 0 -2
BITMAP
4040
4040
41c0
4040
4040
3f40
0040
0040
2000
2000
1fc0
0000
ENDCHAR
STARTCHAR K+334E
ENCODING 13134
SWIDTH 960 0
DWIDTH 12 0
BBX 12 12 0 -2
BITMAP
4040
4040
41c0
4040
3f40
0040
3fc0
0040
3fc0
2000
1fc0
0000
ENDCHAR
STARTCHAR K+334F
ENCODING 13135
SWIDTH 960 0
DWIDTH 12 0
BBX 12 12 0 -2
BITMAP
4040
4040
41c0
4040
3f40
0040
3dc0
0540
3d40
2140
1cc0
0000
ENDCHAR
STARTCHAR K+3350
ENCODING 13136
SWIDTH 960 0
DWIDTH 12 0
BBX 12 12 0 -2
BITMAP
4040
4040
41c0
4040
3f40
0040
3d40
0540
3dc0
2140
1fc0
0000
ENDCHAR
STARTCHAR K+3351
ENCODING 13137
SWIDTH 960 0
DWIDTH 12 0
BBX 12 12 0 -2
BITMAP
4040
4040
41c0
4040
3f40
0040
0000
3fc0
2040
2040
1fc0
0000
ENDCHAR
STARTCHAR K+3352
ENCODING 13138
SWIDTH 960 0
DWIDTH 12 0
BBX 12 12 0 -2
BITMAP
4040
4040
41c0
4040
3f40
0040
0000
2040
3fc0
2040
1fc0
0000
ENDCHAR
STARTCHAR K+3353
ENCODING 13139
SWIDTH 960 0
DWIDTH 12 0
BBX 12 12 0 -2
BITMAP
4040
4040
41c0
4040
3f40
0040
0000
0200
0200
0d80
3060
0000
ENDCHAR
STARTCHAR K+3354
ENCODING 13140
SWIDTH 960 0
DWIDTH 12 0
BBX 12 12 0 -2
BITMAP
4040
4040
41c0
4040
3f40
0040
0000
0880
0880
1540
2220
0000
ENDCHAR
STARTCHAR K+3355
ENCODING 13141
SWIDTH 960 0
DWIDTH 12 0
BBX 12 12 0 -2
BITMAP
4040
4040
41c0
4040
3f40
0040
0000
1f80
2040
2040
1f80
0000
ENDCHAR
STARTCHAR K+3356
ENCODING 13142
SWIDTH 960 0
DWIDTH 12 0
BBX 12 12 0 -2
BITMAP
4040
4040
41c0
4040
3f40
0040
0700
0000
7fe0
1080
0f00
0000
ENDCHAR
STARTCHAR K+3357
ENCODING 13143
SWIDTH 960 0
DWIDTH 12 0
BBX 12 12 0 -2
BITMAP
4140
4140
4140
4140
4740
4140
4140
4140
3d40
0140
0140
0000
ENDCHAR
STARTCHAR K+3358
ENCODING 13144
SWIDTH 960 0
DWIDTH 12 0
BBX 12 12 0 -2
BITMAP
4140
4140
4740
4140
3d40
0140
0000
3fc0
0040
0040
0040
0000
ENDCHAR
STARTCHAR K+3359
ENCODING 13145
SWIDTH 960 0
DWIDTH 12 0
BBX 12 12 0 -2
BITMAP
4140
4140
4740
4140
4140
3d40
0140
0040
2000
2000
1fc0
0000
ENDCHAR
STARTCHAR K+335A
ENCODING 13146
SWIDTH 960 0
DWIDTH 12 0
BBX 12 12 0 -2
BITMAP
4140
4140
4740
4140
3d40
0140
3fc0
0040
3fc0
2000
1fc0
0000
ENDCHAR
STARTCHAR K+335B
ENCODING 13147
SWIDTH 960 0
DWIDTH 12 0
BBX 12 12 0 -2
BITMAP
4140
4140
4740
4140
3d40
0140
0000
3fc0
2040
2040
1fc0
0000
ENDCHAR
STARTCHAR K+335C
ENCODING 13148
SWIDTH 960 0
DWIDTH 12 0
BBX 12 12 0 -2
BITMAP
4140
4140
4740
4140
3d40
0140
0000
2040
3fc0
2040
1fc0
0000
ENDCHAR
STARTCHAR K+335D
ENCODING 13149
SWIDTH 960 0
DWIDTH 12 0
BBX 12 12 0 -2
BITMAP
4140
4140
4740
4140
3d40
0140
0000
0200
0200
0d80
3060
0000
ENDCHAR
STARTCHAR K+335E
ENCODING 13150
SWIDTH 960 0
DWIDTH 12 0
BBX 12 12 0 -2
BITMAP
4140
4140
4740
4140
3d40
0140
0000
0880
0880
1540
2220
0000
ENDCHAR
STARTCHAR K+335F
ENCODING 13151
SWIDTH 960 0
DWIDTH 12 0
BBX 12 12 0 -2
BITMAP
4140
4140
4740
4140
3d40
0140
0000
1f80
2040
2040
1f80
0000
ENDCHAR
STARTCHAR K+3360
ENCODING 13152
SWIDTH 960 0
DWIDTH 12 0
BBX 12 12 0 -2
BITMAP
4040
4040
41c0
4040
4040
41c0
4040
4040
3f40
0040
0040
0000
ENDCHAR
STARTCHAR K+3361
ENCODING 13153
SWIDTH 960 0
DWIDTH 12 0
BBX 12 12 0 -2
BITMAP
4040
41c0
4040
41c0
3f40
0040
0000
3fc0
0040
0040
0040
0000
ENDCHAR
STARTCHAR K+3362
ENCODING 13154
SWIDTH 960 0
DWIDTH 12 0
BBX 12 12 0 -2
BITMAP
4040
41c0
4040
41c0
4040
3f40
0040
0040
2000
2000
1fc0
0000
ENDCHAR
STARTCHAR K+3363
ENCODING 13155
SWIDTH 960 0
DWIDTH 12 0
BBX 12 12 0 -2
BITMAP
4040
41c0
4040
41c0
3f40
0040
3fc0
0040
3fc0
2000
1fc0
0000
ENDCHAR
STARTCHAR K+3364
ENCODING 13156
SWIDTH 960 0
DWIDTH 12 0
BBX 12 12 0 -2
BITMAP
4040
41c0
4040
41c0
3f40
0040
0000
3fc0
2040
2040
1fc0
0000
ENDCHAR
STARTCHAR K+3365
ENCODING 13157
SWIDTH 960 0
DWIDTH 12 0
BBX 12 12 0 -2
BITMAP
4040
41c0
4040
41c0
3f40
0040
0000
2040
3fc0
2040
1fc0
0000
ENDCHAR
STARTCHAR K+3366
ENCODING 13158
SWIDTH 960 0
DWIDTH 12 0
BBX 12 12 0 -2
BITMAP
4040
41c0
4040
41c0
3f40
0040
0000
0880
0880
1540
2220
0000
ENDCHAR
STARTCHAR K+3367
ENCODING 13159
SWIDTH 960 0
DWIDTH 12 0
BBX 12 12 0 -2
BITMAP
4040
41c0
4040
41c0
3f40
0040
0000
1f80
2040
2040
1f80
0000
ENDCHAR
STARTCHAR K+3368
ENCODING 13160
SWIDTH 960 0
DWIDTH 12 0
BBX 12 12 0 -2
BITMAP
4040
41c0
4040
41c0
3f40
0040
0000
3fc0
0040
3fc0
0040
0000
ENDCHAR
STARTCHAR K+3369
ENCODING 13161
SWIDTH 960 0
DWIDTH 12 0
BBX 12 12 0 -2
BITMAP
4140
4140
4740
4140
4140
4740
4140
4140
3d40
0140
0140
0000
ENDCHAR
STARTCHAR K+336A
ENCODING 13162
SWIDTH 960 0
DWIDTH 12 0
BBX 12 12 0 -2
BITMAP
4140
4740
4140
4740
4140
3d40
0140
0040
2000
2000
1fc0
0000
ENDCHAR
STARTCHAR K+336B
ENCODING 13163
SWIDTH 960 0
DWIDTH 12 0
BBX 12 12 0 -2
BITMAP
2000
2000
2000
2000
2000
1fc0
0200
0200
0200
7fe0
0000
0000
ENDCHAR
STARTCHAR K+336C
ENCODING 13164
SWIDTH 960 0
DWIDTH 12 0
BBX 12 12 0 -2
BITMAP
2000
2000
2000
1fc0
0200
7fe0
0000
3fc0
0040
0040
0040
0000
ENDCHAR
STARTCHAR K+336D
ENCODING 13165
SWIDTH 960 0
DWIDTH 12 0
BBX 12 12 0 -2
BITMAP
2000
2000
2000
1fc0
0200
0200
7fe0
0000
2000
2000
1fc0
0000
ENDCHAR
STARTCHAR K+336E
ENCODING 13166
SWIDTH 960 0
DWIDTH 12 0
BBX 12 12 0 -2
BITMAP
2000
2000
1fc0
0200
7fe0
0000
3fc0
0040
3fc0
2000
1fc0
0000
ENDCHAR
STARTCHAR K+336F
ENCODING 13167
SWIDTH 960 0
DWIDTH 12 0
BBX 12 12 0 -2
BITMAP
2000
2000
1fc0
0200
7fe0
0000
3dc0
0540
3d40
2140
1cc0
0000
ENDCHAR
STARTCHAR K+3370
ENCODING 13168
SWIDTH 960 0
DWIDTH 12 0
BBX 12 12 0 -2
BITMAP
2000
2000
2000
1fc0
0200
7fe0
0000
3fc0
2040
2040
1fc0
0000
ENDCHAR
STARTCHAR K+3371
ENCODING 13169
SWIDTH 960 0
DWIDTH 12 0
BBX 12 12 0 -2
BITMAP
2000
2000
2000
1fc0
0200
7fe0
0000
2040
3fc0
2040
1fc0
0000
ENDCHAR
STARTCHAR K+3372
ENCODING 13170
SWIDTH 960 0
DWIDTH 12 0
BBX 12 12 0 -2
BITMAP
2000
2000
2000
1fc0
0200
7fe0
0000
0200
0200
0d00
30c0
0000
ENDCHAR
STARTCHAR K+3373
ENCODING 13171
SWIDTH 960 0
DWIDTH 12 0
BBX 12 12 0 -2
BITMAP
2000
2000
2000
1fc0
0200
7fe0
0000
1f80
2040
2040
1f80
0000
ENDCHAR
STARTCHAR K+3374
ENCODING 13172
SWIDTH 960 0
DWIDTH 12 0
BBX 12 12 0 -2
BITMAP
2000
2000
2000
1fc0
0200
7fe0
0000
3fc0
0900
0900
3fc0
0000
ENDCHAR
ENDFONT
